SplineFontDB: 3.2
FontName: Giphurs-Regular
FullName: Giphurs Regular
FamilyName: Giphurs
Weight: Regular
Copyright: Copyright 2023 The Giphurs Project Authors (https://github.com/Corne2Plum3/Giphurs)
UComments: "2022-06-21: Created with FontForge (http://fontforge.org)"
Version: 000.620
ItalicAngle: 0
UnderlinePosition: -213
UnderlineWidth: 142
Ascent: 1637
Descent: 411
InvalidEm: 0
LayerCount: 4
Layer: 0 0 "Back" 1
Layer: 1 0 "Fore" 0
Layer: 2 0 "Back 3" 1
Layer: 3 0 "Back 8" 1
XUID: [1021 347 -1220005877 17853]
StyleMap: 0x0040
FSType: 0
OS2Version: 0
OS2_WeightWidthSlopeOnly: 0
OS2_UseTypoMetrics: 1
CreationTime: 1655845567
ModificationTime: 1677777767
PfmFamily: 33
TTFWeight: 400
TTFWidth: 5
LineGap: 0
VLineGap: 0
OS2TypoAscent: 2122
OS2TypoAOffset: 0
OS2TypoDescent: -578
OS2TypoDOffset: 0
OS2TypoLinegap: 0
OS2WinAscent: 2122
OS2WinAOffset: 0
OS2WinDescent: 578
OS2WinDOffset: 0
HheadAscent: 2122
HheadAOffset: 0
HheadDescent: -578
HheadDOffset: 0
OS2CapHeight: 1480
OS2XHeight: 1040
OS2Vendor: 'PfEd'
Lookup: 1 0 0 "'smcp' Bas-de-casse vers petites capitales lookups0" { "'smcp' Bas-de-casse vers petites capitales lookups0-1"  } ['smcp' ('DFLT' <'dflt' > 'copt' <'dflt' > 'cyrl' <'dflt' > 'grek' <'dflt' > 'latn' <'dflt' > ) ]
Lookup: 1 0 0 "'cv03' Centered asterisk lookup0" { "'cv03' Centered asterisk lookup0-1"  } ['cv03' ('DFLT' <'dflt' > 'copt' <'dflt' > 'cyrl' <'dflt' > 'grek' <'dflt' > 'latn' <'dflt' > ) ]
Lookup: 1 0 0 "'cv02' Centered colon lookup0" { "'cv02' Centered colon lookup0-1"  } ['cv02' ('DFLT' <'dflt' > 'copt' <'dflt' > 'cyrl' <'dflt' > 'grek' <'dflt' > 'latn' <'dflt' > ) ]
Lookup: 1 0 0 "'cv01' x to multiply sign lookup0" { "'cv01' Character Variants 99 lookup0-1"  } ['cv01' ('DFLT' <'dflt' > 'copt' <'dflt' > 'cyrl' <'dflt' > 'grek' <'dflt' > 'latn' <'dflt' > ) ]

StartChar: o
Encoding: 111 111 0
Width: 1193
VWidth: 997
Flags: HMW
AnchorPoint: "bottom_right" 738 0 basechar 0
AnchorPoint: "top_right" 1048 1040 basechar 0
AnchorPoint: "bottom_center" 598 0 basechar 0
AnchorPoint: "top_center" 598 1040 basechar 0
LayerCount: 3
Fore
SplineSet
280 520 m 0
 280 300 407 141 598 141 c 0
 789 141 917 300 917 520 c 0
 917 740 789 900 598 900 c 0
 407 900 280 740 280 520 c 0
100 520 m 0
 100 831 317 1060 598 1060 c 0
 879 1060 1097 831 1097 520 c 0
 1097 209 879 -20 598 -20 c 0
 317 -20 100 209 100 520 c 0
EndSplineSet
Substitution2: "'smcp' Bas-de-casse vers petites capitales lookups0-1" o.sc
Colour: ff00
EndChar

StartChar: n
Encoding: 110 110 1
Width: 1154
VWidth: 997
Flags: HMW
AnchorPoint: "bottom_center" 578 0 basechar 0
AnchorPoint: "top_center" 578 1040 basechar 0
LayerCount: 3
Fore
SplineSet
836 0 m 1
 836 572 l 2
 836 791 758 900 578 900 c 0
 398 900 320 791 320 572 c 2
 320 0 l 1
 141 0 l 1
 141 1040 l 1
 308 1040 l 1
 308 920 l 1
 393 1005 493 1060 618 1060 c 0
 888 1060 1016 892 1016 572 c 1
 1016 0 l 1
 836 0 l 1
EndSplineSet
Substitution2: "'smcp' Bas-de-casse vers petites capitales lookups0-1" n.sc
Colour: ff00
EndChar

StartChar: u
Encoding: 117 117 2
Width: 1154
VWidth: 997
Flags: HMW
AnchorPoint: "top_right" 1016 1040 basechar 0
AnchorPoint: "bottom_right" 1037 0 basechar 0
AnchorPoint: "bottom_center" 578 0 basechar 0
AnchorPoint: "top_center" 578 1040 basechar 0
LayerCount: 3
Fore
SplineSet
320 1040 m 1
 320 468 l 2
 320 249 398 141 578 141 c 0
 758 141 836 249 836 468 c 2
 836 1040 l 1
 1016 1040 l 1
 1016 167 l 1
 1016 65 1037 0 1037 0 c 1
 864 0 l 1
 864 0 848 60 848 120 c 1
 763 35 663 -20 538 -20 c 0
 268 -20 141 148 141 468 c 1
 141 1040 l 1
 320 1040 l 1
EndSplineSet
Substitution2: "'smcp' Bas-de-casse vers petites capitales lookups0-1" u.sc
Colour: ff00
EndChar

StartChar: d
Encoding: 100 100 3
Width: 1181
VWidth: 997
Flags: HMW
AnchorPoint: "top_right" 1044 1480 basechar 0
AnchorPoint: "bottom_cedilla" 578 -20 basechar 0
AnchorPoint: "bottom_center" 578 0 basechar 0
AnchorPoint: "top_center" 954 1400 basechar 0
LayerCount: 3
Fore
SplineSet
876 520 m 0
 876 750 758 900 578 900 c 0
 398 900 280 750 280 520 c 0
 280 290 398 141 578 141 c 0
 758 141 876 290 876 520 c 0
1044 167 m 1
 1044 65 1064 0 1064 0 c 1
 892 0 l 1
 892 0 876 60 876 120 c 1
 791 35 703 -20 578 -20 c 0
 297 -20 100 209 100 520 c 0
 100 831 297 1060 578 1060 c 0
 703 1060 779 1005 864 920 c 1
 864 1480 l 1
 1044 1480 l 1
 1044 167 l 1
EndSplineSet
Substitution2: "'smcp' Bas-de-casse vers petites capitales lookups0-1" d.sc
Colour: ff00
EndChar

StartChar: b
Encoding: 98 98 4
Width: 1181
VWidth: 997
Flags: HMW
AnchorPoint: "bottom_center" 606 0 basechar 0
AnchorPoint: "top_center" 230 1400 basechar 0
LayerCount: 3
Fore
SplineSet
308 520 m 0
 308 290 426 141 606 141 c 0
 786 141 904 290 904 520 c 0
 904 750 786 900 606 900 c 0
 426 900 308 750 308 520 c 0
141 167 m 1
 141 1480 l 1
 320 1480 l 1
 320 920 l 1
 405 1005 481 1060 606 1060 c 0
 887 1060 1084 831 1084 520 c 0
 1084 209 887 -20 606 -20 c 0
 481 -20 396 35 311 120 c 1
 311 60 311 0 311 0 c 1
 141 0 l 1
 141 0 141 65 141 167 c 1
EndSplineSet
Substitution2: "'smcp' Bas-de-casse vers petites capitales lookups0-1" b.sc
Colour: ff00
EndChar

StartChar: p
Encoding: 112 112 5
Width: 1181
VWidth: 997
Flags: HMW
AnchorPoint: "bottom_center" 230 -361 basechar 0
AnchorPoint: "top_center" 606 1040 basechar 0
LayerCount: 3
Fore
SplineSet
308 520 m 0
 308 290 426 141 606 141 c 0
 786 141 904 290 904 520 c 0
 904 750 786 900 606 900 c 0
 426 900 308 750 308 520 c 0
141 873 m 1
 141 975 141 1040 141 1040 c 1
 311 1040 l 1
 311 1040 311 980 311 920 c 1
 396 1005 481 1060 606 1060 c 0
 887 1060 1084 831 1084 520 c 0
 1084 209 887 -20 606 -20 c 0
 481 -20 405 35 320 120 c 1
 320 -439 l 1
 141 -439 l 1
 141 873 l 1
EndSplineSet
Substitution2: "'smcp' Bas-de-casse vers petites capitales lookups0-1" p.sc
Colour: ff00
EndChar

StartChar: q
Encoding: 113 113 6
Width: 1181
VWidth: 997
Flags: HMW
AnchorPoint: "bottom_center" 954 -361 basechar 0
AnchorPoint: "top_center" 578 1040 basechar 0
LayerCount: 3
Fore
SplineSet
876 520 m 0
 876 750 758 900 578 900 c 0
 398 900 280 750 280 520 c 0
 280 290 398 141 578 141 c 0
 758 141 876 290 876 520 c 0
1044 873 m 1
 1044 -439 l 1
 864 -439 l 1
 864 120 l 1
 779 35 703 -20 578 -20 c 0
 297 -20 100 209 100 520 c 0
 100 831 297 1060 578 1060 c 0
 703 1060 788 1005 873 920 c 1
 873 980 873 1040 873 1040 c 1
 1044 1040 l 1
 1044 1040 1044 975 1044 873 c 1
EndSplineSet
Substitution2: "'smcp' Bas-de-casse vers petites capitales lookups0-1" q.sc
Colour: ff00
EndChar

StartChar: h
Encoding: 104 104 7
Width: 1154
VWidth: 997
Flags: HMW
AnchorPoint: "bottom_cedilla" 230 -20 basechar 0
AnchorPoint: "bottom_center" 598 0 basechar 0
AnchorPoint: "top_center" 230 1400 basechar 0
LayerCount: 3
Fore
SplineSet
836 0 m 1
 836 572 l 2
 836 791 758 900 578 900 c 0
 398 900 320 791 320 572 c 2
 320 0 l 1
 141 0 l 1
 141 1480 l 1
 311 1480 l 1
 311 920 l 1
 396 1005 493 1060 618 1060 c 0
 888 1060 1016 892 1016 572 c 1
 1016 0 l 1
 836 0 l 1
EndSplineSet
Substitution2: "'smcp' Bas-de-casse vers petites capitales lookups0-1" h.sc
Colour: ff00
EndChar

StartChar: m
Encoding: 109 109 8
Width: 1670
VWidth: 997
Flags: HMW
AnchorPoint: "bottom_center" 836 0 basechar 0
AnchorPoint: "top_center" 836 1040 basechar 0
LayerCount: 3
Fore
SplineSet
791 572 m 5
 791 892 941 1060 1171 1060 c 4
 1401 1060 1532 912 1532 572 c 5
 1532 0 l 5
 1352 0 l 5
 1352 572 l 5
 1352 791 1299 900 1139 900 c 4
 979 900 926 791 926 572 c 5
 791 572 l 5
746 0 m 5
 746 572 l 5
 746 791 694 900 534 900 c 4
 374 900 320 791 320 572 c 6
 320 0 l 5
 141 0 l 5
 141 1040 l 5
 308 1040 l 5
 308 920 l 5
 393 1005 441 1060 566 1060 c 4
 796 1060 926 912 926 572 c 5
 926 0 l 5
 746 0 l 5
EndSplineSet
Substitution2: "'smcp' Bas-de-casse vers petites capitales lookups0-1" m.sc
Colour: ff00
EndChar

StartChar: e
Encoding: 101 101 9
Width: 1193
VWidth: 997
Flags: MW
AnchorPoint: "bottom_cedilla" 598 -20 basechar 0
AnchorPoint: "bottom_right" 752 0 basechar 0
AnchorPoint: "bottom_center" 598 0 basechar 0
AnchorPoint: "top_center" 598 1040 basechar 0
LayerCount: 4
Fore
SplineSet
174 600 m 1
 980 600 l 1
 980 439 l 1
 174 439 l 1
 174 600 l 1
910 340 m 1
 1062 252 l 1
 980 74 797 -20 598 -20 c 4
 317 -20 100 209 100 520 c 0
 100 831 317 1060 598 1060 c 0
 879 1060 1097 831 1097 520 c 0
 1097 493 1093 465 1090 439 c 1
 910 439 l 1
 914 465 917 492 917 520 c 0
 917 740 789 900 598 900 c 0
 407 900 280 740 280 520 c 0
 280 300 407 141 598 141 c 0
 739 141 861 208 910 340 c 1
EndSplineSet
Substitution2: "'smcp' Bas-de-casse vers petites capitales lookups0-1" e.sc
Colour: ff00
EndChar

StartChar: c
Encoding: 99 99 10
Width: 1140
VWidth: 997
Flags: HMW
AnchorPoint: "bottom_cedilla" 598 -20 basechar 0
AnchorPoint: "bottom_center" 598 0 basechar 0
AnchorPoint: "top_center" 598 1040 basechar 0
LayerCount: 4
Fore
SplineSet
280 520 m 4
 280 300 407 141 598 141 c 4
 739 141 840 208 889 340 c 1
 1042 252 l 1
 960 74 797 -20 598 -20 c 4
 317 -20 100 209 100 520 c 4
 100 831 317 1060 598 1060 c 4
 797 1060 960 966 1042 788 c 1
 889 700 l 1
 840 832 739 900 598 900 c 4
 407 900 280 740 280 520 c 4
EndSplineSet
Substitution2: "'smcp' Bas-de-casse vers petites capitales lookups0-1" c.sc
Colour: ff00
EndChar

StartChar: f
Encoding: 102 102 11
Width: 812
VWidth: 997
Flags: HMW
AnchorPoint: "bottom_center" 350 0 basechar 0
AnchorPoint: "top_center" 510 1400 basechar 0
LayerCount: 3
Fore
SplineSet
720 1305 m 5
 694 1324 643 1340 600 1340 c 4
 498 1340 439 1283 439 1181 c 6
 439 1040 l 1
 720 1040 l 1
 720 880 l 1
 439 880 l 1
 439 0 l 1
 260 0 l 1
 260 880 l 1
 50 880 l 1
 50 926 50 994 50 1040 c 1
 260 1040 l 1
 260 1181 l 6
 260 1382 399 1500 600 1500 c 4
 656 1500 720 1486 765 1468 c 5
 720 1305 l 5
EndSplineSet
Substitution2: "'ss05' Latin f ligatures lookups0-1" f.ss05
Substitution2: "'smcp' Bas-de-casse vers petites capitales lookups0-1" f.sc
Colour: ff00
EndChar

StartChar: r
Encoding: 114 114 12
Width: 840
VWidth: 997
Flags: HMW
AnchorPoint: "bottom_center" 230 0 basechar 0
AnchorPoint: "top_center" 488 1040 basechar 0
LayerCount: 3
Fore
SplineSet
744 849 m 5
 701 883 649 900 578 900 c 4
 398 900 320 791 320 572 c 6
 320 0 l 1
 141 0 l 1
 141 1040 l 1
 308 1040 l 1
 308 920 l 5
 393 1005 493 1060 618 1060 c 4
 686 1060 742 1050 792 1028 c 5
 744 849 l 5
EndSplineSet
Substitution2: "'smcp' Bas-de-casse vers petites capitales lookups0-1" r.sc
Colour: ff00
EndChar

StartChar: t
Encoding: 116 116 13
Width: 812
VWidth: 997
Flags: HMW
AnchorPoint: "bottom_cedilla" 526 -20 basechar 0
AnchorPoint: "bottom_center" 480 0 basechar 0
AnchorPoint: "top_center" 350 1400 basechar 0
LayerCount: 3
Fore
SplineSet
122 1028 m 17
 212 1028 272 1092 272 1182 c 9
 272 1319 l 1
 439 1319 l 1
 439 1040 l 1
 720 1040 l 1
 720 880 l 1
 439 880 l 1
 439 301 l 2
 439 199 498 141 600 141 c 0
 643 141 694 156 720 175 c 1
 765 13 l 1
 720 -5 656 -20 600 -20 c 0
 399 -20 260 102 260 301 c 2
 260 880 l 1
 50 880 l 1
 50 926 50 982 50 1028 c 1
 122 1028 l 17
EndSplineSet
Substitution2: "'smcp' Bas-de-casse vers petites capitales lookups0-1" t.sc
Substitution2: "'ss05' Latin f ligatures lookups0-1" t.ss05
Colour: ff00
EndChar

StartChar: v
Encoding: 118 118 14
Width: 1057
VWidth: 997
Flags: HMW
AnchorPoint: "bottom_center" 530 0 basechar 0
AnchorPoint: "top_center" 530 1040 basechar 0
LayerCount: 3
Fore
SplineSet
431 0 m 1
 70 1040 l 1
 262 1040 l 1
 530 224 l 1
 798 1040 l 1
 990 1040 l 1
 629 0 l 1
 431 0 l 1
EndSplineSet
Substitution2: "'smcp' Bas-de-casse vers petites capitales lookups0-1" v.sc
Colour: ff00
EndChar

StartChar: w
Encoding: 119 119 15
Width: 1592
VWidth: 997
Flags: HMW
AnchorPoint: "bottom_center" 796 0 basechar 0
AnchorPoint: "top_center" 796 1040 basechar 0
LayerCount: 3
Fore
SplineSet
390 0 m 1
 70 1040 l 1
 260 1040 l 1
 483 250 l 1
 706 1040 l 1
 886 1040 l 1
 1109 250 l 1
 1332 1040 l 1
 1523 1040 l 1
 1201 0 l 1
 1018 0 l 1
 800 770 l 1
 575 0 l 1
 390 0 l 1
EndSplineSet
Substitution2: "'smcp' Bas-de-casse vers petites capitales lookups0-1" w.sc
Colour: ff00
EndChar

StartChar: x
Encoding: 120 120 16
Width: 1090
Flags: HMW
AnchorPoint: "bottom_center" 546 0 basechar 0
AnchorPoint: "top_center" 546 1040 basechar 0
LayerCount: 3
Fore
SplineSet
407 520 m 1
 70 1040 l 5
 278 1040 l 1
 546 613 l 1
 814 1040 l 1
 1022 1040 l 1
 684 520 l 1
 1022 0 l 1
 814 0 l 1
 544 430 l 1
 280 0 l 1
 70 0 l 1
 407 520 l 1
EndSplineSet
Substitution2: "'cv01' Character Variants 99 lookup0-1" multiply
Substitution2: "'smcp' Bas-de-casse vers petites capitales lookups0-1" x.sc
Colour: ff00
EndChar

StartChar: y
Encoding: 121 121 17
Width: 1074
VWidth: 997
Flags: HMW
AnchorPoint: "bottom_center" 294 -361 basechar 0
AnchorPoint: "top_center" 530 1040 basechar 0
LayerCount: 3
Back
SplineSet
691 680 m 1
 880 680 l 1
 515 -360 l 1
 331 -360 l 1
 691 680 l 1
EndSplineSet
Fore
SplineSet
552 -254 m 1
 507 -384 392 -459 234 -459 c 0
 178 -459 115 -446 70 -428 c 1
 115 -265 l 1
 141 -284 191 -301 234 -301 c 0
 312 -301 364 -267 386 -206 c 1
 458 0 l 1
 94 1040 l 1
 282 1040 l 1
 550 224 l 1
 818 1040 l 1
 1007 1040 l 1
 642 0 l 1
 552 -254 l 1
EndSplineSet
Substitution2: "'smcp' Bas-de-casse vers petites capitales lookups0-1" y.sc
Colour: ff00
EndChar

StartChar: i
Encoding: 105 105 18
Width: 498
Flags: HMW
AnchorPoint: "bottom_right" 340 0 basechar 0
AnchorPoint: "bottom_center" 250 0 basechar 0
AnchorPoint: "top_center" 250 1040 basechar 0
LayerCount: 3
Fore
SplineSet
122 1372 m 0
 122 1445 177 1500 250 1500 c 0
 323 1500 378 1445 378 1372 c 0
 378 1299 323 1244 250 1244 c 0
 177 1244 122 1299 122 1372 c 0
160 0 m 5
 160 1040 l 1
 340 1040 l 1
 340 0 l 5
 160 0 l 5
EndSplineSet
Substitution2: "'ss05' Latin f ligatures lookups0-1" i.ss05
Substitution2: "'smcp' Bas-de-casse vers petites capitales lookups0-1" i.sc
Colour: ff00
EndChar

StartChar: j
Encoding: 106 106 19
Width: 527
Flags: HMW
AnchorPoint: "bottom_center" 219 -361 basechar 0
AnchorPoint: "top_center" 279 1040 basechar 0
LayerCount: 3
Fore
SplineSet
150 1372 m 0
 150 1445 206 1500 279 1500 c 0
 352 1500 407 1445 407 1372 c 0
 407 1299 352 1244 279 1244 c 0
 206 1244 150 1299 150 1372 c 0
47 -284 m 1
 60 -290 83 -301 99 -301 c 0
 159 -301 189 -270 189 -210 c 2
 189 0 l 1
 189 138 l 1
 189 1040 l 1
 369 1040 l 1
 369 138 l 1
 369 0 l 1
 369 -210 l 2
 369 -380 269 -459 99 -459 c 4
 67 -459 27 -449 5 -436 c 1
 47 -284 l 1
EndSplineSet
Substitution2: "'ss05' Latin f ligatures lookups0-1" j.ss05
Substitution2: "'smcp' Bas-de-casse vers petites capitales lookups0-1" j.sc
Colour: ff00
EndChar

StartChar: l
Encoding: 108 108 20
Width: 507
Flags: HMW
AnchorPoint: "bottom_center" 290 0 basechar 0
AnchorPoint: "top_center" 230 1400 basechar 0
LayerCount: 3
Fore
SplineSet
462 157 m 1
 504 4 l 1
 482 -9 442 -20 410 -20 c 0
 240 -20 141 60 141 230 c 2
 141 439 l 1
 141 578 l 1
 141 1480 l 1
 320 1480 l 1
 320 578 l 1
 320 439 l 1
 320 230 l 2
 320 170 350 141 410 141 c 0
 426 141 449 151 462 157 c 1
EndSplineSet
Substitution2: "'ss05' Latin f ligatures lookups0-1" l.ss05
Substitution2: "'smcp' Bas-de-casse vers petites capitales lookups0-1" l.sc
Colour: ff00
EndChar

StartChar: k
Encoding: 107 107 21
Width: 1056
Flags: HMW
AnchorPoint: "bottom_center" 568 0 basechar 0
AnchorPoint: "top_center" 230 1400 basechar 0
LayerCount: 3
Fore
SplineSet
417 562 m 1
 526 702 l 1
 1024 0 l 1
 816 0 l 1
 417 562 l 1
320 340 m 1
 320 0 l 1
 141 0 l 1
 141 1480 l 1
 320 1480 l 1
 320 572 l 1
 788 1040 l 1
 848 1040 960 1040 1020 1040 c 1
 320 340 l 1
EndSplineSet
Substitution2: "'smcp' Bas-de-casse vers petites capitales lookups0-1" k.sc
Colour: ff00
EndChar

StartChar: s
Encoding: 115 115 22
Width: 1030
VWidth: 997
Flags: HMW
AnchorPoint: "bottom_center" 532 0 basechar 0
AnchorPoint: "top_center" 532 1040 basechar 0
LayerCount: 3
Fore
SplineSet
311 755 m 0
 311 674 379 651 532 613 c 0
 755 557 933 474 933 286 c 0
 933 98 762 -20 532 -20 c 0
 302 -20 150 63 100 252 c 1
 253 340 l 1
 278 199 391 141 532 141 c 0
 708 141 752 205 752 286 c 0
 752 367 685 391 532 431 c 0
 309 489 132 567 132 755 c 0
 132 942 302 1060 532 1060 c 0
 762 1060 862 957 924 788 c 1
 771 700 l 5
 735 799 690 900 532 900 c 0
 356 900 311 836 311 755 c 0
EndSplineSet
Substitution2: "'smcp' Bas-de-casse vers petites capitales lookups0-1" s.sc
Colour: ff00
EndChar

StartChar: a
Encoding: 97 97 23
Width: 1137
VWidth: 997
Flags: HMW
AnchorPoint: "top_right" 980 1040 basechar 0
AnchorPoint: "bottom_right" 1033 0 basechar 0
AnchorPoint: "bottom_center" 540 0 basechar 0
AnchorPoint: "top_center" 540 1040 basechar 0
LayerCount: 3
Fore
SplineSet
890 340 m 0
 800 340 l 0
 800 460 720 540 540 540 c 0
 360 540 280 460 280 340 c 0
 280 220 360 141 540 141 c 0
 690 141 800 220 800 340 c 2
 800 640 l 2
 800 820 706 901 539 901 c 0
 359 901 222 795 222 795 c 1
 141 936 l 1
 141 936 286 1060 540 1060 c 0
 786 1060 980 959 980 609 c 1
 980 458 l 1
 980 458 980 281 980 167 c 9
 818 120 l 1
 733 35 624 -20 499 -20 c 0
 245 -20 100 139 100 340 c 0
 100 541 286 700 540 700 c 0
 766 700 890 541 890 340 c 0
1028 -20 m 1
 884 -7 800 71 800 226 c 2
 800 507 l 1
 980 507 l 1
 980 226 l 2
 980 166 1010 138 1070 138 c 0
 1028 -20 l 1
EndSplineSet
Substitution2: "'ss04' Simplified a and g lookups0-1" a.ss04
Substitution2: "'smcp' Bas-de-casse vers petites capitales lookups0-1" a.sc
Colour: ff00
EndChar

StartChar: g
Encoding: 103 103 24
Width: 1085
VWidth: 997
Flags: HMW
AnchorPoint: "bottom_center" 520 -361 basechar 0
AnchorPoint: "top_center" 520 1040 basechar 0
LayerCount: 4
Fore
SplineSet
571 941 m 5
 656 1026 736 1081 861 1081 c 4
 929 1081 985 1071 1035 1049 c 5
 987 870 l 5
 944 904 892 921 821 921 c 4
 765 921 739 910 702 889 c 5
 571 941 l 5
50 -165 m 0
 50 36 260 80 520 80 c 0
 520 15 l 0
 272 15 230 -90 230 -165 c 0
 50 -165 l 0
520 160 m 0
 520 0 l 0
 280 0 141 80 141 210 c 0
 141 370 380 420 520 420 c 0
 520 300 l 0
 362 300 320 260 320 220 c 0
 320 180 412 160 520 160 c 0
520 160 m 0
 841 160 1035 60 1035 -120 c 0
 1035 -300 881 -460 520 -460 c 0
 159 -460 50 -325 50 -165 c 0
 230 -165 l 0
 230 -240 272 -300 520 -300 c 0
 768 -300 855 -230 855 -130 c 0
 855 -50 718 0 520 0 c 0
 520 160 l 0
320 680 m 0
 320 560 400 460 520 460 c 0
 640 460 720 560 720 680 c 0
 720 800 640 900 520 900 c 0
 400 900 320 800 320 680 c 0
140 680 m 0
 140 899 301 1060 520 1060 c 0
 739 1060 900 899 900 680 c 0
 900 461 739 300 520 300 c 0
 301 300 140 461 140 680 c 0
EndSplineSet
Layer: 2
SplineSet
520 -460 m 4
 880 -460 1035 -330 1035 -150 c 4
 1035 30 880 160 520 160 c 4
 200 160 50 10 50 -150 c 4
 50 -310 160 -460 520 -460 c 4
520 0 m 4
 768 0 855 -50 855 -150 c 4
 855 -250 768 -300 520 -300 c 4
 272 -300 230 -225 230 -150 c 4
 230 -75 272 0 520 0 c 4
320 680 m 4
 320 560 400 460 520 460 c 4
 640 460 720 560 720 680 c 4
 720 800 640 900 520 900 c 4
 400 900 320 800 320 680 c 4
140 680 m 4
 140 899 301 1060 520 1060 c 4
 739 1060 900 899 900 680 c 4
 900 461 739 300 520 300 c 4
 301 300 140 461 140 680 c 4
EndSplineSet
Layer: 3
SplineSet
604.309570312 967.537109375 m 5
 677.329101562 1023.9375 761.196289062 1060 861 1060 c 4
 929 1060 984 1049 1035 1028 c 5
 987 849 l 5
 944 883 892 900 821 900 c 4
 773.765625 900 733.5546875 892.494140625 699.93359375 877.462890625 c 5
 604.309570312 967.537109375 l 5
520 160 m 4
 520 0 l 4
 280 0 140 70 140 230 c 4
 140 390 280 460 520 460 c 4
 520 300 l 4
 362 300 320 270 320 230 c 4
 320 190 362 160 520 160 c 4
EndSplineSet
Substitution2: "'ss04' Simplified a and g lookups0-1" g.ss04
Substitution2: "'smcp' Bas-de-casse vers petites capitales lookups0-1" g.sc
Colour: ff00
EndChar

StartChar: z
Encoding: 122 122 25
Width: 1024
Flags: HMW
AnchorPoint: "bottom_center" 512 0 basechar 0
AnchorPoint: "top_center" 512 1040 basechar 0
LayerCount: 3
Fore
SplineSet
141 1040 m 1
 141 880 l 1
 679 880 l 1
 883 896 l 1
 883 1040 l 1
 141 1040 l 1
880 160 m 1
 345 160 l 1
 141 144 l 1
 141 0 l 1
 880 0 l 1
 880 160 l 1
345 160 m 1
 883 896 l 1
 679 880 l 1
 141 144 l 1
 345 160 l 1
EndSplineSet
Substitution2: "'smcp' Bas-de-casse vers petites capitales lookups0-1" z.sc
Colour: ff00
EndChar

StartChar: A
Encoding: 65 65 27
Width: 1356
VWidth: 997
Flags: HMW
AnchorPoint: "bottom_ypogegrammeni" 678 -90 basechar 0
AnchorPoint: "top_left" 490 1480 basechar 0
AnchorPoint: "bottom_center" 678 0 basechar 0
AnchorPoint: "bottom_right" 1286 0 basechar 0
AnchorPoint: "top_center" 678 1380 basechar 0
LayerCount: 4
Fore
SplineSet
304 603 m 1
 1030 603 l 1
 1030 436 l 1
 304 436 l 1
 304 603 l 1
678 1230 m 1
 266 0 l 1
 70 0 l 1
 580 1480 l 1
 776 1480 l 1
 1286 0 l 1
 1090 0 l 1
 678 1230 l 1
EndSplineSet
Colour: ffff
EndChar

StartChar: V
Encoding: 86 86 28
Width: 1354
VWidth: 997
Flags: HMW
AnchorPoint: "bottom_center" 678 0 basechar 0
AnchorPoint: "top_center" 678 1380 basechar 0
LayerCount: 4
Fore
SplineSet
678 250 m 1
 1090 1480 l 1
 1286 1480 l 1
 776 0 l 1
 580 0 l 1
 70 1480 l 1
 266 1480 l 1
 678 250 l 1
EndSplineSet
Layer: 2
SplineSet
590 0 m 5
 229 1040 l 5
 415 1040 l 5
 683 224 l 5
 951 1040 l 5
 1137 1040 l 5
 776 0 l 5
 590 0 l 5
EndSplineSet
Colour: ffff
EndChar

StartChar: H
Encoding: 72 72 29
Width: 1396
Flags: HMW
AnchorPoint: "bottom_ypogegrammeni" 699 -90 basechar 0
AnchorPoint: "bottom_cedilla" 234 -20 basechar 0
AnchorPoint: "top_left" 141 1480 basechar 0
AnchorPoint: "bottom_center" 699 0 basechar 0
AnchorPoint: "top_center" 699 1380 basechar 0
LayerCount: 4
Fore
SplineSet
141 1480 m 25
 330 1480 l 25
 330 823 l 25
 1068 823 l 25
 1068 1480 l 25
 1258 1480 l 25
 1258 0 l 25
 1068 0 l 25
 1068 656 l 25
 330 656 l 25
 330 0 l 25
 141 0 l 25
 141 1480 l 25
EndSplineSet
Colour: ffff
EndChar

StartChar: O
Encoding: 79 79 30
Width: 1600
Flags: HMW
AnchorPoint: "top_left_O2" 252 1225 basechar 0
AnchorPoint: "top_left_O1" 634 1480 basechar 0
AnchorPoint: "bottom_right" 968 0 basechar 0
AnchorPoint: "bottom_center" 801 0 basechar 0
AnchorPoint: "top_right" 1379 1480 basechar 0
AnchorPoint: "top_center" 801 1380 basechar 0
LayerCount: 4
Fore
SplineSet
290 740 m 0
 290 390 511 148 801 148 c 0
 1091 148 1312 390 1312 740 c 0
 1312 1090 1091 1332 801 1332 c 0
 511 1332 290 1090 290 740 c 0
100 740 m 0
 100 1179 406 1500 801 1500 c 0
 1196 1500 1502 1179 1502 740 c 0
 1502 301 1196 -20 801 -20 c 0
 406 -20 100 301 100 740 c 0
EndSplineSet
Colour: ffff
EndChar

StartChar: E
Encoding: 69 69 31
Width: 1205
Flags: HMW
AnchorPoint: "bottom_cedilla" 603 -20 basechar 0
AnchorPoint: "top_left" 141 1480 basechar 0
AnchorPoint: "bottom_right" 1068 0 basechar 0
AnchorPoint: "bottom_center" 603 0 basechar 0
AnchorPoint: "top_center" 603 1380 basechar 0
LayerCount: 4
Fore
SplineSet
974 823 m 17
 974 656 l 9
 330 656 l 17
 330 167 l 1
 1068 167 l 1
 1068 0 l 1
 141 0 l 25
 141 1480 l 1
 1068 1480 l 17
 1068 1312 l 1
 330 1312 l 1
 330 823 l 9
 974 823 l 17
EndSplineSet
Colour: ffff
EndChar

StartChar: F
Encoding: 70 70 32
Width: 1136
Flags: HMW
AnchorPoint: "bottom_center" 234 0 basechar 0
AnchorPoint: "top_center" 603 1380 basechar 0
LayerCount: 4
Fore
SplineSet
330 167 m 1
 330 0 l 1
 141 0 l 1
 141 1480 l 1
 1068 1480 l 17
 1068 1312 l 1
 330 1312 l 1
 330 823 l 9
 974 823 l 17
 974 656 l 9
 330 656 l 17
 330 167 l 1
EndSplineSet
Colour: ffff
EndChar

StartChar: P
Encoding: 80 80 33
Width: 1186
Flags: HMW
AnchorPoint: "top_left" 141 1480 basechar 0
AnchorPoint: "bottom_center" 234 0 basechar 0
AnchorPoint: "top_center" 598 1380 basechar 0
LayerCount: 4
Fore
SplineSet
330 1312 m 25
 330 740 l 25
 612 740 l 17
 778 740 898 860 898 1026 c 0
 898 1192 778 1312 612 1312 c 9
 330 1312 l 25
141 0 m 1
 141 1480 l 1
 612 1480 l 1
 866 1480 1088 1280 1088 1026 c 0
 1088 772 866 572 612 572 c 1
 330 572 l 1
 330 0 l 25
 141 0 l 1
EndSplineSet
Colour: ffff
EndChar

StartChar: N
Encoding: 78 78 34
Width: 1396
Flags: HMW
AnchorPoint: "bottom_center" 699 0 basechar 0
AnchorPoint: "bottom_right" 699 1380 basechar 0
LayerCount: 4
Fore
SplineSet
330 1480 m 1
 1068 320 l 25
 1068 1480 l 1
 1258 1480 l 25
 1258 0 l 25
 1068 0 l 1
 330 1160 l 1
 330 0 l 1
 141 0 l 25
 141 1480 l 1
 330 1480 l 1
EndSplineSet
Colour: ffff
EndChar

StartChar: L
Encoding: 76 76 35
Width: 1205
Flags: HMW
AnchorPoint: "bottom_center" 603 0 basechar 0
AnchorPoint: "top_center" 234 1380 basechar 0
LayerCount: 4
Fore
SplineSet
330 1480 m 17
 330 167 l 1
 1068 167 l 1
 1068 0 l 1
 141 0 l 25
 141 1480 l 1
 330 1480 l 17
EndSplineSet
Colour: ffff
EndChar

StartChar: I
Encoding: 73 73 36
Width: 804
Flags: HMW
AnchorPoint: "top_left" 141 1480 basechar 0
AnchorPoint: "bottom_right" 498 0 basechar 0
AnchorPoint: "bottom_center" 403 0 basechar 0
AnchorPoint: "top_center" 403 1380 basechar 0
LayerCount: 4
Fore
SplineSet
141 1480 m 25
 666 1480 l 25
 666 1312 l 25
 498 1312 l 25
 498 167 l 25
 666 167 l 25
 666 0 l 25
 141 0 l 25
 141 167 l 25
 308 167 l 25
 308 1312 l 25
 141 1312 l 25
 141 1480 l 25
EndSplineSet
Colour: ffff
EndChar

StartChar: D
Encoding: 68 68 37
Width: 1376
Flags: HMW
AnchorPoint: "bottom_cedilla" 567 -20 basechar 0
AnchorPoint: "bottom_center" 662 0 basechar 0
AnchorPoint: "top_center" 662 1380 basechar 0
LayerCount: 4
Fore
SplineSet
330 1312 m 25
 330 167 l 25
 612 167 l 17
 882 167 1088 407 1088 740 c 0
 1088 1073 882 1312 612 1312 c 9
 330 1312 l 25
612 0 m 1
 330 0 l 25
 141 0 l 1
 141 1480 l 1
 612 1480 l 1
 992 1480 1278 1190 1278 740 c 0
 1278 290 992 0 612 0 c 1
EndSplineSet
Colour: ffff
EndChar

StartChar: B
Encoding: 66 66 38
Width: 1321
Flags: HMW
AnchorPoint: "bottom_center" 600 0 basechar 0
AnchorPoint: "top_center" 600 1380 basechar 0
LayerCount: 4
Fore
SplineSet
707 740 m 1
 707 908 l 17
 832 908 929 987 929 1112 c 0
 929 1237 832 1312 707 1312 c 9
 330 1312 l 1
 330 1480 l 25
 707 1480 l 1
 927 1480 1119 1330 1119 1110 c 0
 1119 890 927 740 707 740 c 1
330 167 m 25
 707 167 l 17
 873 167 993 288 993 454 c 0
 993 620 873 740 707 740 c 9
 330 740 l 25
 330 167 l 25
141 1480 m 1
 330 1480 l 25
 330 908 l 1
 707 908 l 1
 961 908 1183 708 1183 454 c 0
 1183 200 961 0 707 0 c 1
 141 0 l 1
 141 1480 l 1
EndSplineSet
Layer: 2
SplineSet
612 740 m 5
 612 908 l 21
 737 908 834 987 834 1112 c 4
 834 1237 737 1312 612 1312 c 13
 330 1312 l 5
 330 1480 l 29
 612 1480 l 5
 832 1480 1024 1330 1024 1110 c 4
 1024 890 832 740 612 740 c 5
EndSplineSet
Colour: ffff
EndChar

StartChar: T
Encoding: 84 84 39
Width: 1396
Flags: HMW
AnchorPoint: "bottom_cedilla" 699 -20 basechar 0
AnchorPoint: "bottom_center" 699 0 basechar 0
AnchorPoint: "top_center" 699 1380 basechar 0
LayerCount: 4
Fore
SplineSet
794 0 m 25
 603 0 l 25
 603 1312 l 25
 141 1312 l 25
 141 1480 l 25
 1258 1480 l 25
 1258 1312 l 25
 794 1312 l 25
 794 0 l 25
EndSplineSet
Colour: ffff
EndChar

StartChar: R
Encoding: 82 82 40
Width: 1186
Flags: HMW
AnchorPoint: "bottom_center" 598 0 basechar 0
AnchorPoint: "top_center" 598 1380 basechar 0
LayerCount: 4
Fore
SplineSet
499 617 m 1
 914 0 l 1
 1128 0 l 1
 630 740 l 1
 499 617 l 1
330 1312 m 25
 612 1312 l 17
 778 1312 898 1192 898 1026 c 0
 898 860 778 740 612 740 c 9
 330 740 l 25
 330 1312 l 25
141 0 m 1
 330 0 l 25
 330 572 l 1
 612 572 l 1
 866 572 1088 772 1088 1026 c 0
 1088 1280 866 1480 612 1480 c 1
 141 1480 l 1
 141 0 l 1
EndSplineSet
Layer: 2
SplineSet
938 0 m 5
 1108 0 l 5
 769 634 l 29
 599 634 l 29
 938 0 l 5
EndSplineSet
Colour: ffff
EndChar

StartChar: C
Encoding: 67 67 41
Width: 1511
Flags: HMW
AnchorPoint: "bottom_cedilla" 801 -20 basechar 0
AnchorPoint: "bottom_center" 801 0 basechar 0
AnchorPoint: "top_center" 801 1380 basechar 0
LayerCount: 4
Fore
SplineSet
1253 1028 m 1
 1171 1215 1002 1332 801 1332 c 0
 511 1332 290 1090 290 740 c 0
 290 390 511 148 801 148 c 0
 1002 148 1171 265 1253 452 c 1
 1414 361 l 1
 1296 129 1069 -20 801 -20 c 0
 406 -20 100 301 100 740 c 0
 100 1179 406 1500 801 1500 c 0
 1069 1500 1296 1353 1414 1121 c 1
 1253 1028 l 1
EndSplineSet
Colour: ffff
EndChar

StartChar: G
Encoding: 71 71 42
Width: 1520
Flags: HMW
AnchorPoint: "bottom_center" 801 0 basechar 0
AnchorPoint: "top_center" 801 1380 basechar 0
LayerCount: 4
Fore
SplineSet
1253 1029 m 1
 1171 1216 1002 1332 801 1332 c 0
 511 1332 290 1090 290 740 c 0
 290 390 511 148 801 148 c 0
 1002 148 1171 264 1253 451 c 1
 1414 361 l 1
 1296 129 1069 -20 801 -20 c 0
 406 -20 100 301 100 740 c 0
 100 1179 406 1500 801 1500 c 0
 1069 1500 1296 1353 1414 1121 c 1
 1253 1029 l 1
801 740 m 25
 1422 740 l 25
 1422 0 l 25
 1241 0 l 17
 1241 226 l 1
 1232 253 l 1
 1232 572 l 9
 801 572 l 25
 801 740 l 25
EndSplineSet
Colour: ffff
EndChar

StartChar: Q
Encoding: 81 81 43
Width: 1600
Flags: HMW
AnchorPoint: "bottom_center" 801 0 basechar 0
AnchorPoint: "top_center" 801 1380 basechar 0
LayerCount: 4
Fore
SplineSet
290 740 m 0
 290 390 511 148 801 148 c 0
 1091 148 1312 390 1312 740 c 0
 1312 1090 1091 1332 801 1332 c 0
 511 1332 290 1090 290 740 c 0
100 740 m 0
 100 1179 406 1500 801 1500 c 0
 1196 1500 1502 1179 1502 740 c 0
 1502 301 1196 -20 801 -20 c 0
 406 -20 100 301 100 740 c 0
1502 64 m 1
 1374 -64 l 1
 858 452 l 1
 986 580 l 1
 1502 64 l 1
EndSplineSet
Layer: 2
SplineSet
1169.31445312 319.685546875 m 5
 972.69921875 516.30078125 l 5
 864.356445312 407.643554688 l 5
 1068 204 l 5
 1177.48144531 94.5185546875 l 5
 1381.125 -109.125 l 5
 1489.78222656 -0.7822265625 l 5
 1293.16601562 195.833984375 l 5
 1169.31445312 319.685546875 l 5
EndSplineSet
Colour: ffff
EndChar

StartChar: U
Encoding: 85 85 44
Width: 1396
Flags: HMW
AnchorPoint: "bottom_right" 863 0 basechar 0
AnchorPoint: "bottom_center" 699 0 basechar 0
AnchorPoint: "top_right" 1258 1480 basechar 0
AnchorPoint: "top_center" 699 1380 basechar 0
LayerCount: 4
Fore
SplineSet
330 1480 m 25
 330 600 l 17
 330 350 449 148 699 148 c 0
 949 148 1068 350 1068 600 c 9
 1068 1480 l 25
 1258 1480 l 25
 1258 600 l 17
 1258 239 1060 -20 699 -20 c 0
 338 -20 141 239 141 600 c 9
 141 1480 l 25
 330 1480 l 25
EndSplineSet
Colour: ffff
EndChar

StartChar: M
Encoding: 77 77 45
Width: 1586
VWidth: 997
Flags: HMW
AnchorPoint: "bottom_center" 794 0 basechar 0
AnchorPoint: "top_center" 794 1380 basechar 0
LayerCount: 4
Fore
SplineSet
790 410 m 1
 330 1480 l 1
 237 1248 l 1
 715 160 l 1
 863 160 l 1
 1344 1248 l 1
 1258 1480 l 1
 790 410 l 1
1448 1480 m 1
 1258 1480 l 1
 1258 0 l 1
 1448 0 l 1
 1448 1480 l 1
141 1480 m 1
 141 0 l 1
 330 0 l 1
 330 1480 l 1
 141 1480 l 1
EndSplineSet
Colour: ffff
EndChar

StartChar: Z
Encoding: 90 90 46
Width: 1305
VWidth: 997
Flags: HMW
AnchorPoint: "bottom_center" 696 0 basechar 0
AnchorPoint: "top_center" 699 1380 basechar 0
LayerCount: 4
Fore
SplineSet
242 0 m 1
 141 151 l 1
 1066 1480 l 1
 1168 1328 l 1
 242 0 l 1
325 167 m 1
 1160 167 l 1
 1160 0 l 1
 790 0 511 0 141 0 c 1
 141 151 l 1
 325 167 l 1
951 1312 m 1
 160 1312 l 1
 160 1480 l 1
 530 1480 798 1480 1168 1480 c 1
 1168 1328 l 1
 951 1312 l 1
EndSplineSet
Layer: 2
SplineSet
859 900 m 1
 313 140 l 1
 859 140 l 1
 859 0 l 1
 140 0 l 1
 140 140 l 1
 686 900 l 1
 140 900 l 1
 140 1040 l 1
 859 1040 l 1
 859 900 l 1
EndSplineSet
Colour: ffff
EndChar

StartChar: X
Encoding: 88 88 47
Width: 1389
VWidth: 997
Flags: HMW
AnchorPoint: "bottom_center" 696 0 basechar 0
AnchorPoint: "top_center" 696 1380 basechar 0
LayerCount: 4
Fore
SplineSet
694 617 m 1
 284 0 l 1
 70 0 l 1
 568 740 l 1
 70 1480 l 1
 284 1480 l 1
 696 858 l 1
 1108 1480 l 1
 1322 1480 l 1
 823 740 l 1
 1322 0 l 1
 1108 0 l 1
 694 617 l 1
EndSplineSet
Colour: ffff
EndChar

StartChar: Y
Encoding: 89 89 48
Width: 1389
VWidth: 997
Flags: HMW
AnchorPoint: "top_left" 100 1481 basechar 0
AnchorPoint: "bottom_center" 696 0 basechar 0
AnchorPoint: "top_center" 696 1380 basechar 0
LayerCount: 4
Back
SplineSet
694 617.358398438 m 1
 1104 0 l 1
 1320 0 l 1
 830 740 l 1
 1320 1480 l 1
 1104 1480 l 1
 696 858 l 1
 280 1480 l 1
 64 1480 l 1
 571 740 l 1
 63 0 l 1
 280 0 l 1
 694 617.358398438 l 1
EndSplineSet
Fore
SplineSet
601 0 m 1
 601 740 l 1
 791 740 l 1
 791 0 l 1
 601 0 l 1
755 628 m 1
 621 666 l 1
 70 1480 l 1
 284 1480 l 1
 696 858 l 1
 1108 1480 l 1
 1322 1480 l 1
 755 628 l 1
EndSplineSet
Colour: ffff
EndChar

StartChar: W
Encoding: 87 87 49
Width: 1981
VWidth: 997
Flags: HMW
AnchorPoint: "bottom_center" 992 0 basechar 0
AnchorPoint: "top_center" 992 1380 basechar 0
LayerCount: 4
Fore
SplineSet
1404 280 m 1
 1718 1480 l 1
 1914 1480 l 1
 1502 0 l 1
 1306 0 l 1
 992 1150 l 1
 678 0 l 1
 482 0 l 1
 70 1480 l 1
 266 1480 l 1
 580 280 l 1
 906 1480 l 1
 1078 1480 l 1
 1404 280 l 1
EndSplineSet
Colour: ffff
EndChar

StartChar: J
Encoding: 74 74 50
Width: 1166
Flags: HMW
AnchorPoint: "bottom_center" 565 0 basechar 0
AnchorPoint: "top_center" 934 1380 basechar 0
LayerCount: 4
Fore
SplineSet
290 492 m 1
 290 439 l 1
 290 259 385 148 565 148 c 0
 745 148 838 259 838 439 c 9
 838 1480 l 1
 1028 1480 l 1
 1028 439 l 17
 1028 169 835 -20 565 -20 c 0
 295 -20 100 169 100 439 c 9
 290 492 l 1
EndSplineSet
Colour: ffff
EndChar

StartChar: K
Encoding: 75 75 51
Width: 1354
Flags: HMW
AnchorPoint: "bottom_center" 699 0 basechar 0
AnchorPoint: "top_center" 699 1380 basechar 0
LayerCount: 4
Back
SplineSet
1239 0 m 1
 1047 0 l 1
 34 1480 l 1
 226 1480 l 1
 1239 0 l 1
EndSplineSet
Fore
SplineSet
550 794 m 1
 678 918 l 1
 1296 0 l 1
 1082 0 l 1
 550 794 l 1
330 490 m 1
 330 0 l 1
 141 0 l 1
 141 1480 l 1
 330 1480 l 1
 330 730 l 1
 1056 1480 l 1
 1116 1480 1236 1480 1296 1480 c 1
 330 490 l 1
EndSplineSet
Colour: ffff
EndChar

StartChar: S
Encoding: 83 83 52
Width: 1217
VWidth: 997
Flags: HMW
AnchorPoint: "bottom_center" 610 0 basechar 0
AnchorPoint: "top_center" 610 1380 basechar 0
LayerCount: 4
Fore
SplineSet
610 1332 m 0
 400 1332 314 1214 314 1086 c 0
 314 958 403 890 610 837 c 0
 903 763 1119 648 1119 394 c 0
 1119 140 916 -20 610 -20 c 0
 329 -20 127 158 100 396 c 1
 286 446 l 0
 286 289 409 148 610 148 c 0
 830 148 934 253 934 394 c 0
 934 535 818 599 610 653 c 0
 316 728 124 846 124 1086 c 0
 124 1326 319 1500 610 1500 c 0
 891 1500 1066 1322 1093 1084 c 1
 906 1034 l 0
 906 1191 811 1332 610 1332 c 0
EndSplineSet
Colour: ffff
EndChar

StartChar: eight
Encoding: 56 56 53
Width: 1230
VWidth: 997
Flags: HMW
LayerCount: 4
Back
SplineSet
338 1094 m 0
 338 1231 440 1332 615 1332 c 0
 790 1332 892 1231 892 1094 c 0
 892 957 790 856 615 856 c 4
 440 856 338 957 338 1094 c 0
148 1098 m 0
 148 875 340 696 615 696 c 4
 890 696 1082 875 1082 1098 c 0
 1082 1321 890 1500 615 1500 c 0
 340 1500 148 1321 148 1098 c 0
295 422 m 4
 295 578 415 696 615 696 c 4
 815 696 937 578 937 422 c 4
 937 266 815 148 615 148 c 4
 415 148 295 266 295 422 c 4
105 418 m 4
 105 175 315 -20 615 -20 c 4
 915 -20 1127 175 1127 418 c 4
 1127 661 915 856 615 856 c 4
 315 856 105 661 105 418 c 4
EndSplineSet
Fore
SplineSet
105 418 m 4
 105 568 186 702 320 781 c 1
 213 854 148 969 148 1098 c 0
 148 1321 340 1500 615 1500 c 0
 890 1500 1082 1321 1082 1098 c 0
 1082 969 1017 854 910 781 c 1
 1045 702 1127 569 1127 418 c 0
 1127 175 916 -20 615 -20 c 4
 314 -20 105 175 105 418 c 4
338 1094 m 0
 338 956 440 857 615 857 c 0
 790 857 892 956 892 1094 c 0
 892 1232 790 1332 615 1332 c 0
 440 1332 338 1232 338 1094 c 0
615 696 m 0
 414 696 294 579 294 422 c 4
 294 265 414 148 615 148 c 4
 816 148 937 265 937 422 c 0
 937 579 816 696 615 696 c 0
EndSplineSet
Substitution2: "'dnom' D+AOkA-nominateurs lookups0-1" eight.dnom
Substitution2: "sous-table 'subs' Indice lookups0" eight.subscript
Substitution2: "'numr' Numerators lookups0-1" eight.numr
Substitution2: "'tnum' Tabular Numbers lookups0-1" eight.tnum
Substitution2: "'onum' Oldstyle Figures lookups0-1" eight.onum
Substitution2: "'pnum' Proportional Numbers lookups0-1" eight.pnum
Substitution2: "sous-table 'sups' Exposant lookups0" eight.superior
Colour: ffff
EndChar

StartChar: six
Encoding: 54 54 54
Width: 1230
VWidth: 997
Flags: HMW
LayerCount: 4
Fore
SplineSet
228 201 m 1
 228 201 105 366 105 696 c 0
 105 1216 395 1500 756 1500 c 0
 966 1500 1087 1379 1087 1379 c 1
 1000 1227 l 1
 1000 1227 912 1332 717 1332 c 0
 493 1332 286 1096 286 696 c 0
 286 335 374 282 374 282 c 1
 228 201 l 1
321 486 m 0
 321 282 451 148 629 148 c 0
 807 148 937 282 937 486 c 0
 937 690 807 823 629 823 c 0
 451 823 321 690 321 486 c 0
153 486 m 1
 226 486 l 1
 226 769 338 992 629 992 c 0
 920 992 1127 777 1127 486 c 0
 1127 195 920 -20 629 -20 c 0
 338 -20 153 195 153 486 c 1
EndSplineSet
Substitution2: "'dnom' D+AOkA-nominateurs lookups0-1" six.dnom
Substitution2: "sous-table 'subs' Indice lookups0" six.subscript
Substitution2: "'numr' Numerators lookups0-1" six.numr
Substitution2: "'tnum' Tabular Numbers lookups0-1" six.tnum
Substitution2: "'onum' Oldstyle Figures lookups0-1" six.onum
Substitution2: "'pnum' Proportional Numbers lookups0-1" six.pnum
Substitution2: "sous-table 'sups' Exposant lookups0" six.superior
Substitution2: "'ss02' Alternative digits 6 and 9 lookups0-1" six.ss02
Colour: ffff
EndChar

StartChar: nine
Encoding: 57 57 55
Width: 1230
VWidth: 997
Flags: HMW
LayerCount: 4
Fore
SplineSet
1004 1281 m 1
 1004 1281 1127 1114 1127 784 c 0
 1127 264 837 -20 476 -20 c 0
 266 -20 145 100 145 100 c 1
 232 253 l 1
 232 253 320 148 515 148 c 0
 739 148 945 384 945 784 c 0
 945 1145 858 1198 858 1198 c 1
 1004 1281 l 1
910 994 m 0
 910 1198 780 1332 602 1332 c 0
 424 1332 294 1198 294 994 c 0
 294 790 424 656 602 656 c 0
 780 656 910 790 910 994 c 0
1079 994 m 1
 1007 994 l 1
 1007 711 893 488 602 488 c 0
 311 488 105 703 105 994 c 0
 105 1285 311 1500 602 1500 c 0
 893 1500 1079 1285 1079 994 c 1
EndSplineSet
Substitution2: "'dnom' D+AOkA-nominateurs lookups0-1" nine.dnom
Substitution2: "sous-table 'subs' Indice lookups0" nine.subscript
Substitution2: "'numr' Numerators lookups0-1" nine.numr
Substitution2: "'tnum' Tabular Numbers lookups0-1" nine.tnum
Substitution2: "'onum' Oldstyle Figures lookups0-1" nine.onum
Substitution2: "'pnum' Proportional Numbers lookups0-1" nine.pnum
Substitution2: "sous-table 'sups' Exposant lookups0" nine.superior
Substitution2: "'ss02' Alternative digits 6 and 9 lookups0-1" nine.ss02
Colour: ffff
EndChar

StartChar: three
Encoding: 51 51 56
Width: 1230
VWidth: 997
Flags: HMW
LayerCount: 4
Fore
SplineSet
615 857 m 1
 790 857 892 956 892 1094 c 0
 892 1232 790 1332 615 1332 c 0
 440 1332 336 1208 336 1070 c 0
 149 1121 l 1
 175 1322 340 1500 615 1500 c 0
 890 1500 1082 1320 1082 1098 c 0
 1082 969 1017 854 910 781 c 1
 1045 702 1127 569 1127 418 c 0
 1127 175 916 -20 615 -20 c 0
 334 -20 132 158 105 396 c 1
 292 446 l 0
 292 289 414 148 615 148 c 0
 816 148 937 265 937 422 c 0
 937 579 816 696 615 696 c 1
 544 696 520 696 520 696 c 25
 520 857 l 25
 520 857 545 857 615 857 c 1
EndSplineSet
Substitution2: "sous-table 'sups' Exposant lookups0" three.superior
Substitution2: "'pnum' Proportional Numbers lookups0-1" three.pnum
Substitution2: "'onum' Oldstyle Figures lookups0-1" three.onum
Substitution2: "'tnum' Tabular Numbers lookups0-1" three.tnum
Substitution2: "'numr' Numerators lookups0-1" three.numr
Substitution2: "sous-table 'subs' Indice lookups0" three.subscript
Substitution2: "'dnom' D+AOkA-nominateurs lookups0-1" three.dnom
Colour: ffff
EndChar

StartChar: zero
Encoding: 48 48 57
Width: 1230
Flags: HMW
LayerCount: 4
Fore
SplineSet
294 740 m 0
 294 340 425 148 616 148 c 0
 807 148 937 340 937 740 c 0
 937 1140 807 1332 616 1332 c 0
 425 1332 294 1140 294 740 c 0
105 740 m 0
 105 1239 315 1500 616 1500 c 0
 917 1500 1127 1239 1127 740 c 0
 1127 241 917 -20 616 -20 c 0
 315 -20 105 241 105 740 c 0
EndSplineSet
Substitution2: "sous-table 'sups' Exposant lookups0" zero.superior
Substitution2: "sous-table 'subs' Indice lookups0" zero.subscript
Substitution2: "'zero' Slashed Zero lookups0-1" zero.zero
Substitution2: "'pnum' Proportional Numbers lookups0-1" zero.pnum
Substitution2: "'onum' Oldstyle Figures lookups0-1" zero.onum
Substitution2: "'tnum' Tabular Numbers lookups0-1" zero.tnum
Substitution2: "'numr' Numerators lookups0-1" zero.numr
Substitution2: "'dnom' D+AOkA-nominateurs lookups0-1" zero.dnom
Colour: ffff
EndChar

StartChar: two
Encoding: 50 50 58
Width: 1230
VWidth: 997
Flags: HMW
LayerCount: 4
Fore
SplineSet
321 949 m 5
 128 1000 l 4
 128 1301 336 1500 616 1500 c 4
 896 1500 1104 1320 1104 1040 c 0
 914 1040 l 0
 914 1220 796 1332 616 1332 c 4
 436 1332 318 1180 318 1000 c 4
 318 982 319 966 321 949 c 5
120 0 m 1
 120 160 131 389 616 669 c 0
 773 759 914 860 914 1040 c 1
 1104 1040 l 1
 1104 749 858 609 616 468 c 0
 313 293 310 90 310 0 c 1
 254 0 176 0 120 0 c 1
211 167 m 1
 1112 167 l 1
 1112 0 l 1
 210 0 l 1
 211 167 l 1
EndSplineSet
Substitution2: "'dnom' D+AOkA-nominateurs lookups0-1" two.dnom
Substitution2: "sous-table 'subs' Indice lookups0" two.subscript
Substitution2: "'pnum' Proportional Numbers lookups0-1" two.pnum
Substitution2: "'onum' Oldstyle Figures lookups0-1" two.onum
Substitution2: "'tnum' Tabular Numbers lookups0-1" two.tnum
Substitution2: "'numr' Numerators lookups0-1" two.numr
Substitution2: "sous-table 'sups' Exposant lookups0" two.superior
Colour: ffff
EndChar

StartChar: seven
Encoding: 55 55 59
Width: 1230
Flags: HMW
LayerCount: 4
Fore
SplineSet
889 1312 m 1
 1106 1328 l 1
 1106 1328 612 837 539 0 c 1
 480 0 405 0 346 0 c 1
 416 840 889 1312 889 1312 c 1
125 1312 m 1
 125 1480 l 1
 1106 1480 l 1
 1106 1328 l 1
 889 1312 l 1
 125 1312 l 1
EndSplineSet
Substitution2: "'dnom' D+AOkA-nominateurs lookups0-1" seven.dnom
Substitution2: "sous-table 'subs' Indice lookups0" seven.subscript
Substitution2: "'numr' Numerators lookups0-1" seven.numr
Substitution2: "'tnum' Tabular Numbers lookups0-1" seven.tnum
Substitution2: "'onum' Oldstyle Figures lookups0-1" seven.onum
Substitution2: "'pnum' Proportional Numbers lookups0-1" seven.pnum
Substitution2: "sous-table 'sups' Exposant lookups0" seven.superior
Colour: ffff
EndChar

StartChar: four
Encoding: 52 52 60
Width: 1230
Flags: HMW
LayerCount: 4
Fore
SplineSet
713 807 m 1
 713 488 l 1
 898 488 l 1
 898 807 l 1
 713 807 l 1
707 320 m 1
 707 0 l 1
 898 0 l 1
 898 320 l 1
 707 320 l 1
810 1480 m 1
 610 1480 l 1
 125 488 l 1
 321 488 l 1
 810 1480 l 1
125 320 m 1
 1106 320 l 1
 1106 488 l 1
 125 488 l 1
 125 320 l 1
EndSplineSet
Substitution2: "'dnom' D+AOkA-nominateurs lookups0-1" four.dnom
Substitution2: "sous-table 'subs' Indice lookups0" four.subscript
Substitution2: "'numr' Numerators lookups0-1" four.numr
Substitution2: "'tnum' Tabular Numbers lookups0-1" four.tnum
Substitution2: "'onum' Oldstyle Figures lookups0-1" four.onum
Substitution2: "'pnum' Proportional Numbers lookups0-1" four.pnum
Substitution2: "sous-table 'sups' Exposant lookups0" four.superior
Substitution2: "'ss01' Alternative digits 1 and 4 lookups0-1" four.ss01
Colour: ffff
EndChar

StartChar: five
Encoding: 53 53 61
Width: 1230
VWidth: 997
Flags: HMW
LayerCount: 4
Fore
SplineSet
318 669 m 5
 267 793 l 5
 341 899 435 986 615 986 c 4
 896 986 1127 774 1127 483 c 4
 1127 192 895 -20 614 -20 c 4
 333 -20 131 158 104 396 c 5
 291 446 l 4
 291 289 413 148 614 148 c 4
 793 148 937 279 937 483 c 4
 937 687 793 818 615 818 c 4
 458 818 374 764 318 669 c 5
139 720 m 5
 244 1480 l 5
 301 1480 367 1480 424 1480 c 5
 318 669 l 5
 139 720 l 5
311 1312 m 1
 311 1480 l 1
 1055 1480 l 1
 1055 1312 l 1
 311 1312 l 1
EndSplineSet
Substitution2: "'dnom' D+AOkA-nominateurs lookups0-1" five.dnom
Substitution2: "sous-table 'subs' Indice lookups0" five.subscript
Substitution2: "'numr' Numerators lookups0-1" five.numr
Substitution2: "'tnum' Tabular Numbers lookups0-1" five.tnum
Substitution2: "'onum' Oldstyle Figures lookups0-1" five.onum
Substitution2: "'pnum' Proportional Numbers lookups0-1" five.pnum
Substitution2: "sous-table 'sups' Exposant lookups0" five.superior
Colour: ffff
EndChar

StartChar: one
Encoding: 49 49 62
Width: 1230
Flags: HMW
LayerCount: 4
Fore
SplineSet
581 1026 m 1
 265 1026 l 1
 265 1184 l 1
 346 1184 l 2
 474 1184 593 1280 593 1408 c 2
 593 1480 l 1
 771 1480 l 1
 771 1040 l 1
 771 0 l 1
 581 0 l 5
 581 1026 l 1
EndSplineSet
Substitution2: "'dnom' D+AOkA-nominateurs lookups0-1" one.dnom
Substitution2: "'pnum' Proportional Numbers lookups0-1" one.pnum
Substitution2: "'onum' Oldstyle Figures lookups0-1" one.onum
Substitution2: "'tnum' Tabular Numbers lookups0-1" one.tnum
Substitution2: "'numr' Numerators lookups0-1" one.numr
Substitution2: "sous-table 'subs' Indice lookups0" one.subscript
Substitution2: "sous-table 'sups' Exposant lookups0" one.superior
Substitution2: "'ss01' Alternative digits 1 and 4 lookups0-1" one.ss01
Colour: ffff
EndChar

StartChar: period
Encoding: 46 46 63
Width: 529
Flags: HMW
LayerCount: 4
Fore
SplineSet
141 106 m 0
 141 179 192 236 265 236 c 0
 338 236 392 179 392 106 c 0
 392 33 338 -20 265 -20 c 0
 192 -20 141 33 141 106 c 0
EndSplineSet
Colour: ff00
EndChar

StartChar: comma
Encoding: 44 44 64
Width: 529
Flags: HMW
LayerCount: 4
Back
SplineSet
139 -150 m 4xf0
 139 -80 195 -20 265 -20 c 4
 335 -20 393 -80 393 -150 c 4
 393 -220 335 -278 265 -278 c 4
 195 -278 139 -220 139 -150 c 4xf0
EndSplineSet
Fore
SplineSet
141 106 m 0
 141 179 192 236 265 236 c 0
 338 236 392 179 392 106 c 0
 392 33 338 -20 265 -20 c 0
 192 -20 141 33 141 106 c 0
155 -161 m 1
 212 -148 302 -100 302 20 c 0
 302 48 266 107 266 107 c 1
 265 236 l 1
 335 236 428 190 428 20 c 0
 428 -160 263 -256 185 -276 c 1
 155 -161 l 1
EndSplineSet
Colour: ff00
EndChar

StartChar: colon
Encoding: 58 58 65
Width: 529
Flags: HMW
LayerCount: 4
Fore
SplineSet
141 930 m 0
 141 1003 192 1060 265 1060 c 0
 338 1060 392 1003 392 930 c 0
 392 857 338 804 265 804 c 0
 192 804 141 857 141 930 c 0
141 106 m 0
 141 179 192 236 265 236 c 0
 338 236 392 179 392 106 c 0
 392 33 338 -20 265 -20 c 0
 192 -20 141 33 141 106 c 0
EndSplineSet
Substitution2: "'cv02' Centered colon lookup0-1" colon.centered
Colour: ff00
EndChar

StartChar: semicolon
Encoding: 59 59 66
Width: 565
Flags: HMW
LayerCount: 4
Fore
SplineSet
141 106 m 0
 141 179 192 236 265 236 c 0
 338 236 392 179 392 106 c 0
 392 33 338 -20 265 -20 c 0
 192 -20 141 33 141 106 c 0
155 -161 m 1
 212 -148 302 -100 302 20 c 0
 302 48 266 107 266 107 c 1
 265 236 l 1
 335 236 428 190 428 20 c 0
 428 -160 263 -256 185 -276 c 1
 155 -161 l 1
141 930 m 0
 141 1003 192 1060 265 1060 c 4
 338 1060 392 1003 392 930 c 0
 392 857 338 804 265 804 c 0
 192 804 141 857 141 930 c 0
EndSplineSet
Colour: ff00
EndChar

StartChar: slash
Encoding: 47 47 67
Width: 962
VWidth: 997
Flags: HMW
LayerCount: 4
Fore
SplineSet
894 1640 m 1
 260 -201 l 1
 70 -201 l 1
 704 1640 l 1
 894 1640 l 1
EndSplineSet
Colour: ff00
EndChar

StartChar: parenleft
Encoding: 40 40 68
Width: 816
Flags: HMW
LayerCount: 4
Fore
SplineSet
100 660 m 0
 100 1260 534 1605 684 1660 c 1
 767 1514 l 17
 653 1473 280 1200 280 660 c 0
 280 120 653 -154 767 -195 c 1
 684 -340 l 1
 534 -285 100 60 100 660 c 0
EndSplineSet
Colour: ff00
EndChar

StartChar: exclam
Encoding: 33 33 69
Width: 529
Flags: HMW
LayerCount: 4
Fore
SplineSet
141 106 m 0
 141 179 192 236 265 236 c 0
 338 236 392 179 392 106 c 0
 392 33 338 -20 265 -20 c 0
 192 -20 141 33 141 106 c 0
159 1480 m 1
 371 1480 l 1
 354 452 l 1
 175 452 l 1
 159 1480 l 1
EndSplineSet
Colour: ff00
EndChar

StartChar: question
Encoding: 63 63 70
Width: 1142
VWidth: 997
Flags: HMW
LayerCount: 4
Fore
SplineSet
572 1340 m 0
 761 1340 864 1212 864 1054 c 0
 864 896 762 776 572 776 c 0
 572 609 l 0
 826 609 1044 784 1044 1054 c 0
 1044 1324 842 1500 572 1500 c 0
 302 1500 100 1302 100 1032 c 0
 286 978 l 1
 283 995 280 1013 280 1032 c 0
 280 1190 382 1340 572 1340 c 0
442 106 m 0
 442 179 494 236 567 236 c 0
 640 236 694 179 694 106 c 0
 694 33 640 -20 567 -20 c 0
 494 -20 442 33 442 106 c 0
482 452 m 1
 662 452 l 1
 662 776 l 1
 482 776 l 1
 482 452 l 1
EndSplineSet
Colour: ff00
EndChar

StartChar: quotesingle
Encoding: 39 39 71
Width: 461
Flags: HMW
LayerCount: 4
Fore
SplineSet
151 968 m 25
 141 1480 l 25
 324 1480 l 25
 311 968 l 25
 151 968 l 25
EndSplineSet
Colour: ff00
EndChar

StartChar: quotedbl
Encoding: 34 34 72
Width: 806
Flags: HMW
LayerCount: 4
Fore
SplineSet
496 968 m 25
 484 1480 l 25
 669 1480 l 25
 656 968 l 25
 496 968 l 25
151 968 m 25
 141 1480 l 25
 324 1480 l 25
 311 968 l 25
 151 968 l 25
EndSplineSet
Colour: ff00
EndChar

StartChar: bracketleft
Encoding: 91 91 73
Width: 856
Flags: HMW
LayerCount: 4
Fore
SplineSet
788 1480 m 25
 320 1480 l 25
 320 -160 l 25
 788 -160 l 25
 788 -320 l 25
 141 -320 l 25
 141 1640 l 25
 788 1640 l 25
 788 1480 l 25
EndSplineSet
Colour: ff00
EndChar

StartChar: bracketright
Encoding: 93 93 74
Width: 856
Flags: HMW
LayerCount: 4
Fore
SplineSet
70 1480 m 25
 70 1640 l 25
 718 1640 l 25
 718 -320 l 25
 70 -320 l 25
 70 -160 l 25
 538 -160 l 25
 538 1480 l 25
 70 1480 l 25
EndSplineSet
Colour: ff00
EndChar

StartChar: parenright
Encoding: 41 41 75
Width: 816
Flags: HMW
LayerCount: 4
Fore
SplineSet
718 660 m 0
 718 60 284 -285 134 -340 c 1
 50 -195 l 1
 164 -154 538 120 538 660 c 0
 538 1200 164 1473 50 1514 c 9
 134 1660 l 1
 284 1605 718 1260 718 660 c 0
EndSplineSet
Colour: ff00
EndChar

StartChar: braceleft
Encoding: 123 123 76
Width: 768
VWidth: 997
Flags: HMW
LayerCount: 4
Fore
SplineSet
480 60 m 0
 480 410 l 1
 480 630 320 740 100 740 c 1
 100 580 l 1
 210 580 301 520 301 410 c 1
 301 249 301 226 301 60 c 16
 301 -194 446 -320 700 -320 c 0
 700 -160 l 0
 542 -160 480 -98 480 60 c 0
480 1260 m 0
 480 1418 542 1480 700 1480 c 0
 700 1640 l 0
 446 1640 301 1514 301 1260 c 8
 301 1094 301 1071 301 910 c 1
 301 800 210 740 100 740 c 1
 100 580 l 1
 320 580 480 690 480 910 c 1
 480 1260 l 0
EndSplineSet
Colour: ff00
EndChar

StartChar: braceright
Encoding: 125 125 77
Width: 769
VWidth: 997
Flags: HMW
LayerCount: 4
Fore
SplineSet
290 60 m 0
 290 410 l 1
 290 630 450 740 670 740 c 1
 670 580 l 1
 560 580 470 520 470 410 c 1
 470 249 470 226 470 60 c 16
 470 -194 324 -320 70 -320 c 0
 70 -160 l 0
 228 -160 290 -98 290 60 c 0
290 1260 m 0
 290 1418 228 1480 70 1480 c 0
 70 1640 l 0
 324 1640 470 1514 470 1260 c 8
 470 1094 470 1071 470 910 c 1
 470 800 560 740 670 740 c 1
 670 580 l 1
 450 580 290 690 290 910 c 1
 290 1260 l 0
EndSplineSet
Colour: ff00
EndChar

StartChar: backslash
Encoding: 92 92 78
Width: 962
VWidth: 997
Flags: HMW
LayerCount: 4
Fore
SplineSet
70 1640 m 1
 260 1640 l 1
 894 -201 l 1
 704 -201 l 1
 70 1640 l 1
EndSplineSet
Colour: ff00
EndChar

StartChar: bar
Encoding: 124 124 79
Width: 458
Flags: HMW
LayerCount: 4
Fore
SplineSet
320 1640 m 25
 320 -439 l 25
 141 -439 l 1
 141 1640 l 1
 320 1640 l 25
EndSplineSet
Colour: ff00
EndChar

StartChar: numbersign
Encoding: 35 35 80
Width: 1496
VWidth: 997
Flags: HMW
LayerCount: 4
Fore
SplineSet
141 439 m 1
 1319 439 l 1
 1319 600 l 1
 141 600 l 1
 141 439 l 1
178 880 m 1
 1358 880 l 1
 1358 1040 l 1
 178 1040 l 1
 178 880 l 1
986 1480 m 1
 792 0 l 1
 849 0 920 0 977 0 c 1
 1170 1480 l 1
 986 1480 l 1
522 1480 m 1
 328 0 l 1
 385 0 455 0 512 0 c 1
 706 1480 l 1
 522 1480 l 1
EndSplineSet
Colour: ff00
EndChar

StartChar: gravecomb
Encoding: 768 768 83
Width: 0
VWidth: 997
Flags: HMW
AnchorPoint: "circumflex_left" 697 1092 mark 0
AnchorPoint: "top_center" 642 1040 mark 0
LayerCount: 4
Fore
SplineSet
562 1225 m 1
 337 1480 l 1
 562 1480 l 1
 741 1225 l 1
 562 1225 l 1
EndSplineSet
Colour: ffff00
EndChar

StartChar: acutecomb
Encoding: 769 769 84
Width: 0
VWidth: 997
Flags: HMW
AnchorPoint: "circumflex_right" 587 1092 mark 0
AnchorPoint: "top_center" 642 1040 mark 0
LayerCount: 4
Fore
SplineSet
722 1225 m 1
 543 1225 l 1
 722 1480 l 1
 946 1480 l 1
 722 1225 l 1
EndSplineSet
Colour: ffff00
EndChar

StartChar: uni0302
Encoding: 770 770 85
Width: 0
VWidth: 997
Flags: HMW
AnchorPoint: "top_center" 642 1040 mark 0
LayerCount: 4
Fore
SplineSet
755 1225 m 5
 547 1480 l 5
 738 1480 l 5
 933 1225 l 5
 755 1225 l 5
529 1225 m 5
 351 1225 l 5
 547 1480 l 5
 738 1480 l 5
 529 1225 l 5
EndSplineSet
Colour: ffff00
EndChar

StartChar: tildecomb
Encoding: 771 771 86
Width: 0
VWidth: 997
Flags: HMW
AnchorPoint: "top_center" 642 1040 mark 0
LayerCount: 4
Fore
SplineSet
440 1227 m 1
 302 1264 l 1
 318 1400 408 1490 515 1490 c 0
 647 1490 681 1354 761 1354 c 0
 808 1354 831 1417 836 1477 c 1
 974 1439 l 1
 958 1303 868 1214 761 1214 c 0
 629 1214 595 1350 515 1350 c 0
 468 1350 445 1287 440 1227 c 1
EndSplineSet
Colour: ffff00
EndChar

StartChar: uni0308
Encoding: 776 776 87
Width: 0
VWidth: 997
Flags: HMW
AnchorPoint: "top_center" 643 1040 mark 0
AnchorPoint: "dieresis_center" 642 1350 basechar 0
LayerCount: 4
Fore
SplineSet
738 1352 m 0
 738 1425 793 1480 866 1480 c 0
 939 1480 994 1425 994 1352 c 0
 994 1279 939 1225 866 1225 c 0
 793 1225 738 1279 738 1352 c 0
290 1352 m 0
 290 1425 345 1480 418 1480 c 4
 491 1480 546 1425 546 1352 c 0
 546 1279 491 1225 418 1225 c 0
 345 1225 290 1279 290 1352 c 0
EndSplineSet
Colour: ff00
EndChar

StartChar: uni030A
Encoding: 778 778 88
Width: 0
VWidth: 997
Flags: HMW
AnchorPoint: "top_center" 642 1040 mark 0
LayerCount: 4
Fore
SplineSet
434 1347 m 4
 434 1457 532 1544 642 1544 c 4
 752 1544 850 1457 850 1347 c 4
 850 1237 752 1150 642 1150 c 4
 532 1150 434 1237 434 1347 c 4
562 1347 m 4
 562 1301 596 1267 642 1267 c 4
 688 1267 722 1301 722 1347 c 4
 722 1393 688 1427 642 1427 c 4
 596 1427 562 1393 562 1347 c 4
EndSplineSet
Colour: ffc71c
EndChar

StartChar: ccedilla
Encoding: 231 231 89
Width: 1140
Flags: HMW
LayerCount: 4
Back
SplineSet
483 -220 m 4
 483 -244 504 -263 536 -263 c 4
 568 -263 589 -244 589 -220 c 4
 589 -196 568 -177 536 -177 c 4
 504 -177 483 -196 483 -220 c 4
356 -220 m 4
 356 -130 436 -60 536 -60 c 4
 636 -60 716 -130 716 -220 c 4
 716 -310 636 -380 536 -380 c 4
 436 -380 356 -310 356 -220 c 4
EndSplineSet
Fore
Refer: 90 807 N 1 0 0 1 -44 0 2
Refer: 10 99 N 1 0 0 1 0 0 3
Substitution2: "'smcp' Bas-de-casse vers petites capitales lookups0-1" ccedilla.sc
Colour: ff
EndChar

StartChar: uni0327
Encoding: 807 807 90
Width: 0
VWidth: 997
Flags: HMW
AnchorPoint: "bottom_cedilla" 642 -20 mark 0
LayerCount: 4
Fore
SplineSet
492 -291 m 1
 599 -229 l 1
 617 -258 641 -263 663 -263 c 0
 695 -263 716 -241 716 -217 c 0
 716 -193 695 -169 663 -169 c 0
 641 -169 623 -178 615 -192 c 1
 507 -130 l 1
 539 -84 598 -53 663 -53 c 0
 763 -53 844 -127 844 -217 c 0
 844 -307 763 -380 663 -380 c 0
 597 -380 530 -352 492 -291 c 1
584 0 m 1
 712 0 l 1
 616 -166 l 1
 615 -192 l 1
 508 -131 l 1
 584 0 l 1
EndSplineSet
Colour: ffc71c
EndChar

StartChar: dotlessi
Encoding: 305 305 141
Width: 458
Flags: HMW
LayerCount: 4
Fore
SplineSet
141 0 m 1
 141 1040 l 1
 320 1040 l 1
 320 0 l 1
 141 0 l 1
EndSplineSet
Substitution2: "'smcp' Bas-de-casse vers petites capitales lookups0-1" dotlessi.sc
Colour: ff00
EndChar

StartChar: dollar
Encoding: 36 36 142
Width: 1217
VWidth: 997
Flags: HMW
LayerCount: 4
Fore
SplineSet
610 1332 m 0
 400 1332 314 1214 314 1086 c 0
 314 958 403 890 610 837 c 0
 903 763 1119 648 1119 394 c 0
 1119 140 916 -20 610 -20 c 0
 329 -20 127 158 100 396 c 1
 286 446 l 0
 286 289 409 148 610 148 c 0
 830 148 934 253 934 394 c 0
 934 535 818 599 610 653 c 0
 316 728 124 846 124 1086 c 0
 124 1326 319 1500 610 1500 c 0
 891 1500 1066 1322 1093 1084 c 1
 906 1034 l 0
 906 1191 811 1332 610 1332 c 0
686 1660 m 25
 686 -180 l 25
 534 -180 l 1
 534 1660 l 1
 686 1660 l 25
EndSplineSet
Colour: ffff
EndChar

StartChar: plus
Encoding: 43 43 143
Width: 1205
Flags: HMW
LayerCount: 4
Fore
SplineSet
514 1124 m 1
 514 196 l 1
 694 196 l 9
 694 1124 l 1
 514 1124 l 1
141 580 m 1
 1068 580 l 1
 1068 740 l 9
 141 740 l 1
 141 580 l 1
EndSplineSet
Substitution2: "'ss06' Bigger operators lookups0-1" plus.ss06
Colour: ff00
EndChar

StartChar: hyphen
Encoding: 45 45 144
Width: 1026
Flags: HMW
LayerCount: 4
Fore
SplineSet
141 580 m 1
 141 740 l 1
 888 740 l 17
 888 580 l 1
 141 580 l 1
EndSplineSet
Substitution2: "'ss06' Bigger operators lookups0-1" hyphen.ss06
Colour: ff00
EndChar

StartChar: equal
Encoding: 61 61 145
Width: 1396
Flags: HMW
LayerCount: 4
Fore
SplineSet
1258 920 m 1
 1258 760 l 1
 141 760 l 17
 141 920 l 1
 1258 920 l 1
141 400 m 1
 141 559 l 1
 1258 559 l 17
 1258 400 l 1
 141 400 l 1
EndSplineSet
Colour: ff00
EndChar

StartChar: percent
Encoding: 37 37 146
Width: 1632
VWidth: 997
Flags: HMW
LayerCount: 4
Fore
SplineSet
280 1181 m 0
 280 1091 331 1020 421 1020 c 0
 511 1020 559 1091 559 1181 c 0
 559 1271 511 1340 421 1340 c 0
 331 1340 280 1271 280 1181 c 0
100 1181 m 0
 100 1359 243 1500 421 1500 c 0
 599 1500 740 1359 740 1181 c 0
 740 1003 599 860 421 860 c 0
 243 860 100 1003 100 1181 c 0
1074 301 m 0
 1074 211 1124 141 1214 141 c 0
 1304 141 1354 211 1354 301 c 0
 1354 391 1304 459 1214 459 c 0
 1124 459 1074 391 1074 301 c 0
894 301 m 0
 894 479 1036 619 1214 619 c 0
 1392 619 1534 479 1534 301 c 0
 1534 123 1392 -20 1214 -20 c 0
 1036 -20 894 123 894 301 c 0
1335 1395 m 5
 438 0 l 5
 291 85 l 5
 1188 1480 l 5
 1335 1395 l 5
EndSplineSet
Colour: ff00
EndChar

StartChar: degree
Encoding: 176 176 147
Width: 838
VWidth: 997
Flags: HMW
LayerCount: 4
Fore
SplineSet
280 1181 m 0
 280 1091 331 1020 421 1020 c 0
 511 1020 559 1091 559 1181 c 0
 559 1271 511 1340 421 1340 c 0
 331 1340 280 1271 280 1181 c 0
100 1181 m 0
 100 1359 243 1500 421 1500 c 0
 599 1500 740 1359 740 1181 c 0
 740 1003 599 860 421 860 c 0
 243 860 100 1003 100 1181 c 0
EndSplineSet
Colour: ff00
EndChar

StartChar: ampersand
Encoding: 38 38 148
Width: 1353
VWidth: 997
Flags: HMW
LayerCount: 4
Back
SplineSet
1020 600 m 4
 1020 360 880 140 600 140 c 4
 400 140 280 262 280 418 c 4
 100 418 l 4
 100 175 300 -20 600 -20 c 4
 1020 -20 1183 265 1203 550 c 5
 1020 600 l 4
EndSplineSet
Fore
SplineSet
316 885 m 1
 458 977 l 1
 420 1024 408 1068 408 1128 c 0
 408 1269 493 1340 600 1340 c 0
 720 1340 792 1252 792 1152 c 0
 971 1172 l 0
 971 1373 801 1500 600 1500 c 0
 399 1500 228 1347 228 1128 c 0
 228 1026 260 960 316 885 c 1
458 977 m 1
 316 885 l 1
 1041 0 l 1
 1112 0 1184 0 1255 0 c 1
 458 977 l 1
100 418 m 1
 280 418 l 1
 280 561 427 640 600 740 c 0
 799 855 971 971 971 1172 c 1
 792 1152 l 1
 792 1052 730 1001 600 926 c 0
 340 776 100 661 100 418 c 1
1020 619 m 0
 1020 418 901 141 600 141 c 0
 399 141 280 261 280 418 c 0
 100 418 l 0
 100 175 299 -20 600 -20 c 0
 1021 -20 1170 287 1190 573 c 1
 1020 619 l 0
EndSplineSet
Layer: 2
SplineSet
315.788085938 895.231445312 m 5
 260.015625 970.026367188 228 1045.74902344 228 1148 c 0
 228 1367 400 1500 600 1500 c 0
 800 1500 972 1367 972 1148 c 0
 792 1148 l 0
 792 1268 708 1340 600 1340 c 0
 492 1340 408 1288 408 1148 c 0
 408 1068 423.116210938 1031.30664062 460.055664062 984.02734375 c 5
 315.788085938 895.231445312 l 5
792 1148 m 1
 972 1148 l 1025
EndSplineSet
Layer: 3
SplineSet
459 986 m 1
 316 895 l 1
 1041 0 l 5
 1112.33398438 0 1183.66601562 0 1255 0 c 5
 459 986 l 1
100 418 m 1
 100 661 340.193359375 776 600 926 c 0
 729.904296875 1001 792 1028 792 1148 c 1
 972 1148 l 1
 972 948 799.185546875 855 600 740 c 0
 426.794921875 640 280 561 280 418 c 1
 100 418 l 1
EndSplineSet
Substitution2: "'ss03' Alternative ampersand lookups0-1" ampersand.ss03
Colour: ff00
EndChar

StartChar: asterisk
Encoding: 42 42 149
Width: 1033
Flags: HMW
LayerCount: 4
Back
SplineSet
438 1070 m 21
 518 1070 l 5
 598 1070 l 13
 610 1480 l 29
 426 1480 l 29
 438 1070 l 21
EndSplineSet
Fore
SplineSet
493 1030 m 17
 518 1106 l 1
 543 1182 l 9
 157 1319 l 25
 100 1146 l 25
 493 1030 l 17
583 1059 m 17
 518 1106 l 1
 453 1153 l 9
 203 828 l 25
 351 720 l 25
 583 1059 l 17
583 1153 m 17
 518 1106 l 1
 453 1059 l 9
 685 720 l 25
 833 828 l 25
 583 1153 l 17
493 1182 m 17
 518 1106 l 1
 543 1030 l 9
 936 1146 l 25
 880 1319 l 25
 493 1182 l 17
438 1106 m 17
 518 1106 l 1
 598 1106 l 9
 610 1516 l 25
 426 1516 l 25
 438 1106 l 17
EndSplineSet
Substitution2: "'cv03' Centered asterisk lookup0-1" asterisk.centered
Colour: ff00
EndChar

StartChar: less
Encoding: 60 60 150
Width: 1205
Flags: HMW
LayerCount: 4
Fore
SplineSet
141 576 m 1
 141 576 l 1
 141 576 l 1
 141 744 l 1
 141 744 l 1
 141 744 l 1
 1068 1112 l 1
 1068 940 l 1
 350 660 l 1
 1068 380 l 1
 1068 208 l 1
 141 576 l 1
EndSplineSet
Colour: ff00
EndChar

StartChar: greater
Encoding: 62 62 151
Width: 1205
Flags: HMW
LayerCount: 4
Fore
SplineSet
1068 576 m 1
 141 208 l 1
 141 380 l 1
 858 660 l 1
 141 940 l 1
 141 1112 l 1
 1068 744 l 1
 1068 744 l 1
 1068 744 l 1
 1068 576 l 1
 1068 576 l 1
 1068 576 l 1
EndSplineSet
Colour: ff00
EndChar

StartChar: at
Encoding: 64 64 152
Width: 1997
VWidth: 997
Flags: HMW
LayerCount: 4
Back
SplineSet
1237.51367188 580 m 4
 1212.63769531 403 1110.14648438 307 960.146484375 307 c 4
 810.146484375 307 734.637695312 403 759.513671875 580 c 4
 784.388671875 757 886.741210938 852 1036.74121094 852 c 4
 1186.74121094 852 1262.38867188 757 1237.51367188 580 c 4
1399.51367188 580 m 4
 1364.37890625 330 1187.79980469 148 937.799804688 148 c 4
 687.799804688 148 544.37890625 330 579.513671875 580 c 4
 614.647460938 830 809.227539062 1012 1059.22753906 1012 c 4
 1159.22753906 1012 1229.86816406 956.568359375 1278.48632812 900 c 5
 1285.23242188 948 1291.97851562 996 1291.97851562 996 c 5
 1457.97851562 996 l 5
 1457.97851562 996 1450.67089844 944 1439.14648438 862 c 5
 1399.51367188 580 l 4
EndSplineSet
Fore
SplineSet
1635 -149 m 1
 1485 -268 1218 -340 1000 -340 c 0
 480 -340 100 60 100 580 c 0
 100 1100 480 1500 1000 1500 c 0
 1520 1500 1900 1180 1900 660 c 0
 1720 660 l 0
 1720 1081 1421 1340 1000 1340 c 0
 579 1340 280 1001 280 580 c 0
 280 159 579 -180 1000 -180 c 0
 1187 -180 1424 -112 1548 0 c 1
 1635 -149 l 1
1225 580 m 0
 1250 757 1173 852 1023 852 c 0
 873 852 771 757 746 580 c 0
 721 403 796 307 946 307 c 0
 1096 307 1200 403 1225 580 c 0
1386 580 m 0
 1344 282 1174 148 924 148 c 0
 674 148 531 346 566 596 c 0
 601 846 796 1011 1046 1011 c 0
 1146 1011 1215 957 1264 900 c 1
 1270 947 1278 996 1278 996 c 1
 1445 996 l 1
 1445 996 1439 944 1426 862 c 1
 1386 580 l 0
1900 660 m 1
 1900 359 1714 148 1474 148 c 0
 1264 148 1183 282 1225 580 c 1
 1386 580 l 1
 1361 402 1357 307 1498 307 c 0
 1639 307 1720 441 1720 660 c 1
 1900 660 l 1
EndSplineSet
Colour: ff00
EndChar

StartChar: asciicircum
Encoding: 94 94 153
Width: 1093
VWidth: 997
Flags: HMW
LayerCount: 4
Fore
SplineSet
810 656 m 1
 550 1270 l 1
 286 656 l 1
 100 656 l 1
 459 1480 l 1
 636 1480 l 1
 996 656 l 1
 810 656 l 1
EndSplineSet
Colour: ff00
EndChar

StartChar: underscore
Encoding: 95 95 154
Width: 1116
Flags: HMW
LayerCount: 4
Fore
SplineSet
0 0 m 1
 1118 0 l 1
 1118 -160 l 1
 0 -160 l 1
 0 0 l 1
EndSplineSet
Colour: ff00
EndChar

StartChar: grave
Encoding: 96 96 155
Width: 542
VWidth: 997
Flags: HMW
AnchorPoint: "top_center" 374 1040 mark 0
AnchorPoint: "top_left_O2" 565 1225 mark 0
AnchorPoint: "top_left" 577 1480 mark 0
AnchorPoint: "dieresis_center" 374 1140 mark 0
LayerCount: 4
Fore
SplineSet
295 1225 m 1
 70 1480 l 1
 295 1480 l 1
 474 1225 l 1
 295 1225 l 1
EndSplineSet
Colour: ffff00
EndChar

StartChar: asciitilde
Encoding: 126 126 156
Width: 1166
VWidth: 997
Flags: HMW
LayerCount: 4
Fore
SplineSet
278 472 m 1
 100 520 l 1
 122 715 251 840 406 840 c 0
 607 840 647 653 762 653 c 0
 831 653 882 740 890 840 c 1
 1068 792 l 1
 1046 597 917 472 762 472 c 0
 561 472 521 660 406 660 c 0
 337 660 286 572 278 472 c 1
EndSplineSet
Substitution2: "'ss06' Bigger operators lookups0-1" f.ss05
Colour: ff00
EndChar

StartChar: exclamdown
Encoding: 161 161 157
Width: 529
Flags: HMW
LayerCount: 4
Fore
SplineSet
392 934 m 0
 392 861 340 804 267 804 c 0
 194 804 141 861 141 934 c 0
 141 1007 194 1060 267 1060 c 0
 340 1060 392 1007 392 934 c 0
373 -439 m 1
 161 -439 l 1
 177 588 l 1
 357 588 l 1
 373 -439 l 1
EndSplineSet
Colour: ff00
EndChar

StartChar: cent
Encoding: 162 162 158
Width: 1140
VWidth: 997
Flags: HMW
LayerCount: 4
Fore
SplineSet
862 1220 m 25
 482 -180 l 25
 334 -180 l 1
 714 1220 l 1
 862 1220 l 25
280 520 m 0
 280 300 407 141 598 141 c 0
 739 141 840 208 889 340 c 1
 1042 252 l 1
 960 74 797 -20 598 -20 c 0
 317 -20 100 209 100 520 c 0
 100 831 317 1060 598 1060 c 0
 797 1060 960 966 1042 788 c 1
 889 700 l 1
 840 832 739 900 598 900 c 0
 407 900 280 740 280 520 c 0
EndSplineSet
Colour: ff00
EndChar

StartChar: sterling
Encoding: 163 163 159
Width: 1297
VWidth: 997
Flags: HMW
LayerCount: 4
Fore
SplineSet
320 660 m 1
 738 660 l 1
 738 820 l 1
 320 820 l 1
 68 820 l 1
 68 774 68 706 68 660 c 1
 320 660 l 1
172 1040 m 0
 172 768 301 654 301 474 c 0
 301 354 194 216 100 141 c 1
 278 81 l 1
 321 141 480 289 480 490 c 0
 480 691 352 800 352 1040 c 0
 172 1040 l 0
100 141 m 1
 139 -20 l 1
 249 34 380 88 498 88 c 0
 655 88 733 -20 934 -20 c 0
 1054 -20 1154 23 1200 50 c 1
 1160 210 l 1
 1130 190 1014 141 934 141 c 0
 777 141 699 248 498 248 c 0
 357 248 190 176 100 141 c 1
974 949 m 1
 1148 1000 l 0
 1148 1301 940 1500 660 1500 c 0
 380 1500 172 1320 172 1040 c 0
 352 1040 l 0
 352 1220 480 1340 660 1340 c 0
 840 1340 977 1201 977 1000 c 0
 977 982 976 966 974 949 c 1
EndSplineSet
Layer: 2
SplineSet
172 1040 m 4
 172 768 280 700 280 520 c 4
 280 400 226 215 172 104 c 5
 353 65 l 5
 388 155 460 340 460 540 c 4
 460 740 352 800 352 1040 c 4
 172 1040 l 4
EndSplineSet
Colour: ff00
EndChar

StartChar: currency
Encoding: 164 164 160
Width: 2048
Flags: HMW
LayerCount: 4
Fore
SplineSet
1270 798 m 17
 1142 926 l 9
 1432 1216 l 25
 1560 1088 l 25
 1270 798 l 17
730 514 m 17
 858 386 l 9
 568 97 l 25
 439 224 l 25
 730 514 l 17
1142 386 m 17
 1270 514 l 9
 1560 224 l 25
 1432 97 l 25
 1142 386 l 17
858 926 m 17
 730 798 l 9
 439 1088 l 25
 568 1216 l 25
 858 926 l 17
559 656 m 0
 559 907 737 1097 1000 1097 c 0
 1263 1097 1439 907 1439 656 c 0
 1439 405 1263 217 1000 217 c 0
 737 217 559 405 559 656 c 0
740 656 m 0
 740 496 840 376 1000 376 c 0
 1160 376 1260 496 1260 656 c 0
 1260 816 1160 936 1000 936 c 0
 840 936 740 816 740 656 c 0
EndSplineSet
Colour: ff00
EndChar

StartChar: yen
Encoding: 165 165 161
Width: 1389
VWidth: 997
Flags: HMW
LayerCount: 4
Fore
SplineSet
232 609 m 1
 232 760 l 1
 1160 760 l 17
 1160 609 l 1
 232 609 l 1
232 320 m 1
 232 472 l 1
 1160 472 l 17
 1160 320 l 1
 232 320 l 1
601 0 m 1
 601 740 l 1
 791 740 l 1
 791 0 l 1
 601 0 l 1
755 628 m 1
 621 666 l 1
 70 1480 l 1
 284 1480 l 1
 696 858 l 1
 1108 1480 l 1
 1322 1480 l 1
 755 628 l 1
EndSplineSet
Colour: ffff
EndChar

StartChar: brokenbar
Encoding: 166 166 162
Width: 458
Flags: HMW
LayerCount: 4
Fore
SplineSet
141 570 m 1
 320 570 l 1
 320 -320 l 9
 141 -320 l 1
 141 570 l 1
320 750 m 1
 141 750 l 1
 141 1640 l 1
 320 1640 l 17
 320 750 l 1
EndSplineSet
Colour: ff00
EndChar

StartChar: section
Encoding: 167 167 163
Width: 1142
VWidth: 997
Flags: HMW
LayerCount: 4
Fore
SplineSet
572 755 m 0
 381 755 286 651 286 531 c 0
 286 411 364 355 572 301 c 0
 866 226 1018 139 1018 -81 c 0
 1018 -301 826 -455 572 -455 c 0
 318 -455 178 -318 116 -128 c 1
 278 -36 l 1
 316 -150 381 -286 572 -286 c 0
 763 -286 828 -201 828 -81 c 0
 828 39 779 88 572 141 c 0
 279 215 100 311 100 531 c 0
 100 751 318 905 572 905 c 0
 572 755 l 0
572 290 m 0
 763 290 858 394 858 514 c 0
 858 634 780 681 572 735 c 0
 278 810 142 906 142 1126 c 0
 142 1346 318 1500 572 1500 c 0
 826 1500 949 1363 1011 1173 c 1
 851 1081 l 1
 813 1195 763 1330 572 1330 c 0
 381 1330 332 1246 332 1126 c 0
 332 1006 365 958 572 905 c 0
 865 831 1044 734 1044 514 c 0
 1044 294 826 141 572 141 c 0
 572 290 l 0
EndSplineSet
Colour: ff00
EndChar

StartChar: dieresis
Encoding: 168 168 164
Width: 982
VWidth: 997
Flags: HMW
LayerCount: 4
Fore
SplineSet
588 1318 m 0
 588 1391 643 1446 716 1446 c 0
 789 1446 844 1391 844 1318 c 0
 844 1245 789 1190 716 1190 c 0
 643 1190 588 1245 588 1318 c 0
141 1318 m 0
 141 1391 195 1446 268 1446 c 0
 341 1446 396 1391 396 1318 c 0
 396 1245 341 1190 268 1190 c 0
 195 1190 141 1245 141 1318 c 0
EndSplineSet
Colour: ff00
EndChar

StartChar: copyright
Encoding: 169 169 165
Width: 1717
Flags: HMW
LayerCount: 4
Fore
SplineSet
1134 905 m 1
 1081 1019 999 1099 873 1099 c 0
 691 1099 553 951 553 740 c 0
 553 529 691 381 873 381 c 0
 999 381 1081 461 1134 575 c 1
 1266 510 l 1
 1190 353 1034 254 861 254 c 0
 607 254 409 459 409 740 c 0
 409 1021 607 1226 861 1226 c 0
 1034 1226 1190 1127 1266 970 c 1
 1134 905 l 1
243 740 m 0
 243 400 520 123 860 123 c 0
 1200 123 1477 400 1477 740 c 0
 1477 1080 1200 1357 860 1357 c 0
 520 1357 243 1080 243 740 c 0
100 740 m 0
 100 1161 439 1500 860 1500 c 0
 1281 1500 1620 1161 1620 740 c 0
 1620 319 1281 -20 860 -20 c 0
 439 -20 100 319 100 740 c 0
EndSplineSet
Colour: ff8000
EndChar

StartChar: registered
Encoding: 174 174 166
Width: 1717
Flags: HMW
LayerCount: 4
Fore
SplineSet
781 665 m 1
 1052 273 l 1
 1208 273 l 1
 873 733 l 1
 781 665 l 1
684 1082 m 25
 861 1082 l 17
 964 1082 1040 1013 1040 919 c 0
 1040 825 964 757 861 757 c 9
 684 757 l 25
 684 1082 l 25
541 273 m 1
 684 273 l 25
 684 631 l 1
 861 631 l 1
 1033 631 1182 757 1182 919 c 0
 1182 1081 1033 1208 861 1208 c 1
 541 1208 l 1
 541 273 l 1
243 740 m 0
 243 400 520 123 860 123 c 0
 1200 123 1477 400 1477 740 c 0
 1477 1080 1200 1357 860 1357 c 0
 520 1357 243 1080 243 740 c 0
100 740 m 0
 100 1161 439 1500 860 1500 c 0
 1281 1500 1620 1161 1620 740 c 0
 1620 319 1281 -20 860 -20 c 0
 439 -20 100 319 100 740 c 0
EndSplineSet
Colour: ff8000
EndChar

StartChar: questiondown
Encoding: 191 191 167
Width: 1142
VWidth: 997
Flags: HMW
LayerCount: 4
Fore
SplineSet
572 -301 m 0
 383 -301 280 -172 280 -14 c 0
 280 144 382 264 572 264 c 0
 572 432 l 0
 318 432 100 256 100 -14 c 0
 100 -284 302 -459 572 -459 c 0
 842 -459 1044 -262 1044 8 c 0
 858 62 l 1
 861 45 864 27 864 8 c 0
 864 -150 762 -301 572 -301 c 0
702 934 m 0
 702 861 650 804 577 804 c 0
 504 804 450 861 450 934 c 0
 450 1007 504 1060 577 1060 c 0
 650 1060 702 1007 702 934 c 0
662 588 m 1
 482 588 l 1
 482 264 l 1
 662 264 l 1
 662 588 l 1
EndSplineSet
Colour: ff00
EndChar

StartChar: mu
Encoding: 181 181 168
Width: 1174
VWidth: 997
Flags: HMW
LayerCount: 4
Fore
SplineSet
1064 -20 m 1
 1106 138 l 0
 1046 138 1016 166 1016 226 c 2
 1016 507 l 1
 836 507 l 1
 836 226 l 2
 836 71 920 -7 1064 -20 c 1
836 1040 m 1
 836 468 l 2
 836 249 758 141 578 141 c 0
 398 141 320 249 320 468 c 2
 320 1040 l 1
 141 1040 l 1
 141 -439 l 1
 320 -439 l 1
 320 107 l 1
 405 22 493 -20 618 -20 c 0
 888 -20 1016 148 1016 468 c 1
 1016 1040 l 1
 836 1040 l 1
EndSplineSet
Colour: ff00
EndChar

StartChar: two.superior
Encoding: 178 178 170
Width: 798
Flags: HMW
LayerCount: 4
Fore
SplineSet
65 740 m 1
 65 838 76 1007 394 1177 c 0
 469 1217 586 1275 586 1385 c 0
 586 1495 514 1552 400 1552 c 0
 286 1552 213 1462 213 1356 c 0
 213 1344 213 1336 214 1326 c 1
 70 1356 l 1
 70 1548 211 1678 400 1678 c 0
 589 1678 730 1568 730 1398 c 0
 730 1208 561 1124 402 1039 c 0
 288 978 246 922 224 866 c 1
 735 866 l 1
 735 740 l 1
 65 740 l 1
EndSplineSet
Colour: ff8000
EndChar

StartChar: three.superior
Encoding: 179 179 171
Width: 798
Flags: HMW
LayerCount: 4
Fore
SplineSet
398 1285 m 2
 512 1285 578 1343 578 1422 c 0
 578 1501 512 1561 398 1561 c 0
 284 1561 218 1489 218 1410 c 1
 78 1438 l 1
 96 1570 208 1687 398 1687 c 0
 588 1687 722 1574 722 1431 c 0
 722 1349 673 1275 592 1228 c 1
 694 1178 756 1094 756 996 c 0
 756 841 607 716 398 716 c 0
 203 716 63 831 44 988 c 1
 184 1018 l 1
 184 928 266 842 398 842 c 0
 530 842 612 914 612 1004 c 0
 612 1094 532 1165 400 1165 c 2
 336 1165 l 1
 336 1285 l 1
 398 1285 l 2
EndSplineSet
Colour: ff8000
EndChar

StartChar: one.superior
Encoding: 185 185 172
Width: 798
VWidth: 2285
Flags: HMW
LayerCount: 4
Fore
SplineSet
377 1367 m 1
 179 1367 l 1
 179 1486 l 1
 229 1486 l 2
 310 1486 386 1543 386 1621 c 2
 386 1665 l 1
 520 1665 l 1
 520 1357 520 1048 520 740 c 1
 377 740 l 1
 377 1367 l 1
EndSplineSet
Colour: ff8000
EndChar

StartChar: zero.superior
Encoding: 8304 8304 173
Width: 798
VWidth: 2285
Flags: HMW
LayerCount: 4
Fore
SplineSet
57 1202 m 0
 57 1522 198 1687 400 1687 c 0
 602 1687 744 1522 744 1202 c 0
 744 882 602 716 400 716 c 0
 198 716 57 882 57 1202 c 0
201 1202 m 0
 201 959 281 842 400 842 c 0
 519 842 601 959 601 1202 c 0
 601 1445 519 1561 400 1561 c 0
 281 1561 201 1445 201 1202 c 0
EndSplineSet
Substitution2: "'zero' Slashed Zero lookups0-1" zero.superior.zero
Colour: ff8000
EndChar

StartChar: four.superior
Encoding: 8308 8308 174
Width: 798
VWidth: 2285
Flags: HMW
LayerCount: 4
Fore
SplineSet
542 1665 m 1
 390 1665 l 1
 60 1060 l 1
 60 934 l 1
 468 934 l 1
 468 740 l 1
 611 740 l 1
 611 934 l 1
 740 934 l 1
 740 1060 l 1
 611 1060 l 1
 611 1253 l 1
 472 1253 l 1
 472 1060 l 1
 209 1060 l 1
 542 1665 l 1
EndSplineSet
Substitution2: "'ss01' Alternative digits 1 and 4 lookups0-1" four.ss01.superior
Colour: ff8000
EndChar

StartChar: five.superior
Encoding: 8309 8309 175
Width: 798
VWidth: 2285
Flags: HMW
LayerCount: 4
Fore
SplineSet
86 1194 m 1
 155 1665 l 1
 675 1665 l 1
 675 1539 l 1
 272 1539 l 1
 226 1290 l 1
 271 1336 334 1364 412 1364 c 0
 590 1364 740 1230 740 1046 c 0
 740 862 588 729 405 729 c 0
 210 729 79 843 60 996 c 1
 201 1025 l 1
 201 936 271 854 403 854 c 0
 521 854 597 929 597 1046 c 0
 597 1163 523 1238 405 1238 c 0
 307 1238 270 1225 224 1156 c 1
 86 1194 l 1
EndSplineSet
Colour: ff8000
EndChar

StartChar: six.superior
Encoding: 8310 8310 176
Width: 798
VWidth: 2285
Flags: HMW
LayerCount: 4
Fore
SplineSet
218 1044 m 0
 218 922 299 842 409 842 c 0
 519 842 602 922 602 1044 c 0
 602 1166 519 1244 409 1244 c 0
 299 1244 218 1166 218 1044 c 0
194 1242 m 1
 235 1322 313 1370 417 1370 c 0
 608 1370 745 1232 745 1044 c 0
 745 856 604 716 408 716 c 0
 276 716 176 777 126 875 c 0
 104 913 55 1013 55 1174 c 0
 55 1507 250 1687 492 1687 c 0
 633 1687 715 1597 715 1597 c 1
 650 1502 l 1
 650 1502 593 1561 468 1561 c 0
 340 1561 218 1444 194 1242 c 1
EndSplineSet
Substitution2: "'ss02' Alternative digits 6 and 9 lookups0-1" six.ss02.superior
Colour: ff8000
EndChar

StartChar: seven.superior
Encoding: 8311 8311 177
Width: 798
VWidth: 2285
Flags: HMW
LayerCount: 4
Fore
SplineSet
78 1539 m 1
 78 1665 l 1
 722 1665 l 1
 722 1561 l 1
 722 1561 407 1265 361 740 c 1
 217 740 l 1
 264 1252 562 1539 562 1539 c 1
 78 1539 l 1
EndSplineSet
Colour: ff8000
EndChar

StartChar: eight.superior
Encoding: 8312 8312 178
Width: 798
VWidth: 2285
Flags: HMW
LayerCount: 4
Fore
SplineSet
398 1165 m 0
 266 1165 187 1094 187 1004 c 0
 187 914 266 842 398 842 c 0
 530 842 613 914 613 1004 c 0
 613 1094 530 1165 398 1165 c 0
219 1422 m 0
 219 1343 284 1285 398 1285 c 0
 512 1285 578 1343 578 1422 c 0
 578 1501 512 1561 398 1561 c 0
 284 1561 219 1501 219 1422 c 0
44 996 m 0
 44 1094 104 1178 205 1228 c 1
 124 1275 76 1349 76 1431 c 0
 76 1574 208 1687 398 1687 c 0
 588 1687 722 1574 722 1431 c 0
 722 1349 673 1275 592 1228 c 1
 694 1178 756 1094 756 996 c 0
 756 841 607 716 398 716 c 0
 189 716 44 841 44 996 c 0
EndSplineSet
Colour: ff8000
EndChar

StartChar: nine.superior
Encoding: 8313 8313 179
Width: 798
VWidth: 2285
Flags: HMW
LayerCount: 4
Fore
SplineSet
583 1361 m 0
 583 1483 500 1561 390 1561 c 0
 280 1561 198 1483 198 1361 c 0
 198 1239 280 1162 390 1162 c 0
 500 1162 583 1239 583 1361 c 0
606 1163 m 1
 565 1083 486 1034 382 1034 c 0
 191 1034 55 1173 55 1361 c 0
 55 1549 194 1687 390 1687 c 0
 522 1687 624 1628 674 1530 c 0
 696 1492 745 1391 745 1230 c 0
 745 897 549 716 307 716 c 0
 166 716 85 806 85 806 c 1
 150 902 l 1
 150 902 205 842 330 842 c 0
 458 842 582 960 606 1163 c 1
EndSplineSet
Substitution2: "'ss02' Alternative digits 6 and 9 lookups0-1" nine.ss02.superior
Colour: ff8000
EndChar

StartChar: ordfeminine
Encoding: 170 170 180
Width: 850
Flags: HMW
LayerCount: 4
Fore
SplineSet
630 1216 m 0
 562 1216 l 0
 562 1285 512 1332 400 1332 c 0
 288 1332 238 1285 238 1216 c 0
 238 1147 288 1103 400 1103 c 0
 494 1103 562 1149 562 1222 c 2
 562 1401 l 2
 562 1507 502 1558 396 1558 c 0
 271 1558 194 1492 194 1492 c 1
 132 1593 l 1
 132 1593 220 1677 402 1677 c 0
 568 1677 698 1609 698 1383 c 1
 698 1293 l 1
 698 1293 698 1187 698 1119 c 9
 588 1084 l 1
 531 1022 458 982 373 982 c 0
 201 982 102 1085 102 1216 c 0
 102 1347 227 1454 397 1454 c 0
 547 1454 630 1347 630 1216 c 0
726 982 m 1
 622 990 562 1040 562 1138 c 2
 562 1313 l 1
 698 1313 l 1
 698 1153 l 2
 698 1119 716 1102 754 1102 c 0
 726 982 l 1
100 740 m 1
 100 861 l 1
 752 861 l 1
 752 740 l 1
 100 740 l 1
EndSplineSet
Substitution2: "'ss04' Simplified a and g lookups0-1" ordfeminine.ss04
Colour: ff8000
EndChar

StartChar: ordmasculine
Encoding: 186 186 181
Width: 866
Flags: HMW
LayerCount: 4
Fore
SplineSet
107 740 m 1
 107 861 l 1
 760 861 l 1
 760 740 l 1
 107 740 l 1
100 1330 m 0
 100 1531 246 1678 434 1678 c 0
 622 1678 767 1531 767 1330 c 0
 767 1129 622 982 434 982 c 0
 246 982 100 1129 100 1330 c 0
236 1330 m 0
 236 1199 314 1103 434 1103 c 0
 554 1103 634 1199 634 1330 c 0
 634 1461 554 1558 434 1558 c 0
 314 1558 236 1461 236 1330 c 0
EndSplineSet
Colour: ff8000
EndChar

StartChar: guillemotleft
Encoding: 171 171 182
Width: 1180
VWidth: 997
Flags: HMW
LayerCount: 4
Fore
SplineSet
878 196 m 1
 528 660 l 1
 878 1126 l 1
 1082 1126 l 1
 729 660 l 1
 1082 196 l 1
 878 196 l 1
450 196 m 1
 100 660 l 1
 450 1126 l 1
 654 1126 l 1
 301 660 l 1
 654 196 l 1
 450 196 l 1
EndSplineSet
Colour: ff00
EndChar

StartChar: logicalnot
Encoding: 172 172 183
Width: 1205
Flags: HMW
LayerCount: 4
Fore
SplineSet
888 717 m 1
 888 340 l 1
 1068 340 l 1
 1068 717 l 1
 888 717 l 1
141 580 m 1
 1068 580 l 1
 1068 740 l 9
 141 740 l 1
 141 580 l 1
EndSplineSet
Colour: ff00
EndChar

StartChar: guillemotright
Encoding: 187 187 185
Width: 1180
VWidth: 997
Flags: HMW
LayerCount: 4
Fore
SplineSet
304 196 m 1
 654 660 l 1
 304 1126 l 1
 100 1126 l 1
 454 660 l 1
 100 196 l 1
 304 196 l 1
732 196 m 1
 1082 660 l 1
 732 1126 l 1
 528 1126 l 1
 882 660 l 1
 528 196 l 1
 732 196 l 1
EndSplineSet
Colour: ff00
EndChar

StartChar: plusminus
Encoding: 177 177 186
Width: 1205
Flags: HMW
LayerCount: 4
Fore
SplineSet
514 1204 m 1
 514 276 l 1
 694 276 l 9
 694 1204 l 1
 514 1204 l 1
141 660 m 1
 1068 660 l 1
 1068 820 l 9
 141 820 l 1
 141 660 l 1
141 0 m 1
 1068 0 l 1
 1068 160 l 9
 141 160 l 1
 141 0 l 1
EndSplineSet
Colour: ff00
EndChar

StartChar: paragraph
Encoding: 182 182 187
Width: 1315
VWidth: 997
Flags: HMW
LayerCount: 4
Fore
SplineSet
567 1500 m 1
 567 1340 l 1
 1177 1340 l 1
 1177 1500 l 1
 567 1500 l 1
837 1500 m 1
 837 -439 l 1
 1018 -439 l 1
 1018 1500 l 1
 837 1500 l 1
477 1439 m 1
 477 -439 l 1
 657 -439 l 1
 657 1500 l 1
 567 1500 l 1
 477 1439 l 1
567 1500 m 0
 297 1500 100 1328 100 1058 c 0
 100 788 297 616 567 616 c 0
 567 1500 l 0
EndSplineSet
Colour: ff00
EndChar

StartChar: periodcentered
Encoding: 183 183 188
Width: 529
Flags: HMW
LayerCount: 4
Fore
SplineSet
141 660 m 0
 141 733 192 790 265 790 c 4
 338 790 392 733 392 660 c 0
 392 587 338 534 265 534 c 0
 192 534 141 587 141 660 c 0
EndSplineSet
Colour: ff00
EndChar

StartChar: cedilla
Encoding: 184 184 189
Width: 549
VWidth: 997
Flags: HMW
LayerCount: 4
Fore
SplineSet
100 -291 m 1
 208 -229 l 1
 226 -258 250 -263 272 -263 c 0
 304 -263 325 -241 325 -217 c 0
 325 -193 304 -169 272 -169 c 0
 250 -169 232 -178 224 -192 c 1
 116 -130 l 1
 148 -84 207 -53 272 -53 c 0
 372 -53 452 -127 452 -217 c 0
 452 -307 372 -380 272 -380 c 0
 206 -380 138 -352 100 -291 c 1
192 0 m 1
 321 0 l 1
 226 -166 l 1
 224 -192 l 1
 117 -131 l 1
 192 0 l 1
EndSplineSet
Colour: ffc71c
EndChar

StartChar: threequarters
Encoding: 190 190 190
Width: 1995
VWidth: 1545
Flags: HMW
LayerCount: 4
Fore
SplineSet
1648 925 m 1
 1498 925 l 1
 1166 320 l 1
 1166 192 l 1
 1574 192 l 1
 1574 0 l 1
 1718 0 l 1
 1718 192 l 1
 1846 192 l 1
 1846 320 l 1
 1718 320 l 1
 1718 513 l 1
 1578 513 l 1
 1578 320 l 1
 1315 320 l 1
 1648 925 l 1
450 1100 m 2
 564 1100 630 1159 630 1238 c 0
 630 1317 564 1376 450 1376 c 0
 336 1376 270 1304 270 1225 c 1
 130 1253 l 1
 148 1385 260 1502 450 1502 c 0
 640 1502 774 1389 774 1246 c 0
 774 1164 725 1090 644 1043 c 1
 746 993 807 909 807 811 c 0
 807 656 659 531 450 531 c 0
 255 531 116 646 97 803 c 1
 236 833 l 1
 236 743 318 658 450 658 c 0
 582 658 663 729 663 819 c 0
 663 909 584 979 452 979 c 2
 388 979 l 1
 388 1100 l 1
 450 1100 l 2
700 98 m 1
 592 160 l 1
 1297 1382 l 1
 1405 1319 l 1
 700 98 l 1
EndSplineSet
Colour: ff8000
EndChar

StartChar: onequarter
Encoding: 188 188 191
Width: 1995
VWidth: 1545
Flags: HMW
LayerCount: 4
Fore
SplineSet
1648 925 m 1
 1498 925 l 1
 1166 320 l 1
 1166 192 l 1
 1574 192 l 1
 1574 0 l 1
 1718 0 l 1
 1718 192 l 1
 1846 192 l 1
 1846 320 l 1
 1718 320 l 1
 1718 513 l 1
 1578 513 l 1
 1578 320 l 1
 1315 320 l 1
 1648 925 l 1
430 1182 m 1
 231 1182 l 1
 231 1302 l 1
 281 1302 l 2
 362 1302 438 1358 438 1436 c 2
 438 1480 l 1
 572 1480 l 1
 572 1172 572 863 572 555 c 1
 430 555 l 1
 430 1182 l 1
700 98 m 1
 592 160 l 1
 1297 1382 l 1
 1405 1319 l 1
 700 98 l 1
EndSplineSet
Colour: ff8000
EndChar

StartChar: onehalf
Encoding: 189 189 192
Width: 1995
VWidth: 1545
Flags: HMW
LayerCount: 4
Fore
SplineSet
1210 0 m 1
 1210 98 1221 267 1539 437 c 0
 1614 477 1731 534 1731 644 c 0
 1731 754 1659 813 1545 813 c 0
 1431 813 1358 722 1358 616 c 0
 1358 604 1359 596 1360 586 c 1
 1215 616 l 1
 1215 808 1356 938 1545 938 c 0
 1734 938 1874 828 1874 658 c 0
 1874 468 1707 384 1548 299 c 0
 1434 238 1392 182 1370 126 c 1
 1881 126 l 1
 1881 0 l 1
 1210 0 l 1
430 1182 m 1
 231 1182 l 1
 231 1302 l 1
 281 1302 l 2
 362 1302 438 1358 438 1436 c 2
 438 1480 l 1
 572 1480 l 1
 572 1172 572 863 572 555 c 1
 430 555 l 1
 430 1182 l 1
700 98 m 1
 592 160 l 1
 1297 1382 l 1
 1405 1319 l 1
 700 98 l 1
EndSplineSet
Colour: ff8000
EndChar

StartChar: uni2156
Encoding: 8534 8534 193
Width: 1995
VWidth: 1545
Flags: HMW
LayerCount: 4
Fore
SplineSet
1227 454 m 1
 1296 925 l 1
 1816 925 l 1
 1816 798 l 1
 1413 798 l 1
 1369 550 l 1
 1414 596 1475 624 1553 624 c 0
 1731 624 1882 490 1882 306 c 0
 1882 122 1728 -13 1545 -13 c 0
 1350 -13 1220 104 1201 257 c 1
 1341 286 l 1
 1341 197 1412 114 1544 114 c 0
 1662 114 1738 189 1738 306 c 0
 1738 423 1663 498 1545 498 c 0
 1447 498 1412 486 1366 417 c 1
 1227 454 l 1
117 555 m 1
 117 653 128 822 446 992 c 0
 521 1032 638 1080 638 1190 c 0
 638 1300 566 1367 452 1367 c 0
 338 1367 265 1277 265 1171 c 0
 265 1159 266 1151 267 1141 c 1
 122 1171 l 1
 122 1363 263 1493 452 1493 c 0
 641 1493 781 1383 781 1213 c 0
 781 1023 613 939 454 854 c 0
 340 793 298 737 276 681 c 1
 787 681 l 1
 787 555 l 1
 117 555 l 1
700 98 m 1
 592 160 l 1
 1297 1382 l 1
 1405 1319 l 1
 700 98 l 1
EndSplineSet
Colour: ff8000
EndChar

StartChar: twothirds
Encoding: 8532 8532 194
Width: 1995
VWidth: 1545
Flags: HMW
LayerCount: 4
Fore
SplineSet
1545 546 m 2
 1659 546 1725 603 1725 682 c 0
 1725 761 1659 821 1545 821 c 0
 1431 821 1366 749 1366 670 c 1
 1225 698 l 1
 1243 830 1355 948 1545 948 c 0
 1735 948 1869 834 1869 691 c 0
 1869 609 1820 535 1739 488 c 1
 1841 438 1903 355 1903 257 c 0
 1903 102 1754 -24 1545 -24 c 0
 1350 -24 1209 91 1190 248 c 1
 1331 278 l 1
 1331 188 1413 103 1545 103 c 0
 1677 103 1759 174 1759 264 c 0
 1759 354 1680 424 1548 424 c 2
 1482 424 l 1
 1482 546 l 1
 1545 546 l 2
117 555 m 1
 117 653 128 822 446 992 c 0
 521 1032 638 1089 638 1199 c 0
 638 1309 566 1367 452 1367 c 0
 338 1367 265 1277 265 1171 c 0
 265 1159 266 1151 267 1141 c 1
 122 1171 l 1
 122 1363 263 1493 452 1493 c 0
 641 1493 781 1383 781 1213 c 0
 781 1023 613 939 454 854 c 0
 340 793 298 737 276 681 c 1
 787 681 l 1
 787 555 l 1
 117 555 l 1
700 98 m 1
 592 160 l 1
 1297 1382 l 1
 1405 1319 l 1
 700 98 l 1
EndSplineSet
Colour: ff8000
EndChar

StartChar: uni215F
Encoding: 8543 8543 195
Width: 1995
VWidth: 1545
Flags: HMW
LayerCount: 4
Fore
SplineSet
430 1182 m 1
 231 1182 l 1
 231 1302 l 1
 281 1302 l 2
 362 1302 438 1358 438 1436 c 2
 438 1480 l 1
 572 1480 l 1
 572 1172 572 863 572 555 c 1
 430 555 l 1
 430 1182 l 1
700 98 m 1
 592 160 l 1
 1297 1382 l 1
 1405 1319 l 1
 700 98 l 1
EndSplineSet
Colour: ff8000
EndChar

StartChar: uni2150
Encoding: 8528 8528 196
Width: 1995
VWidth: 1545
Flags: HMW
LayerCount: 4
Fore
SplineSet
1225 798 m 1
 1225 925 l 1
 1870 925 l 1
 1870 821 l 1
 1870 821 1553 525 1507 0 c 1
 1363 0 l 1
 1410 512 1710 798 1710 798 c 1
 1225 798 l 1
430 1182 m 1
 231 1182 l 1
 231 1302 l 1
 281 1302 l 2
 362 1302 438 1358 438 1436 c 2
 438 1480 l 1
 572 1480 l 1
 572 1172 572 863 572 555 c 1
 430 555 l 1
 430 1182 l 1
700 98 m 1
 592 160 l 1
 1297 1382 l 1
 1405 1319 l 1
 700 98 l 1
EndSplineSet
Colour: ff8000
EndChar

StartChar: uni2151
Encoding: 8529 8529 197
Width: 1995
VWidth: 1545
Flags: HMW
LayerCount: 4
Fore
SplineSet
1738 621 m 0
 1738 743 1655 821 1545 821 c 0
 1435 821 1353 743 1353 621 c 0
 1353 499 1435 422 1545 422 c 0
 1655 422 1738 499 1738 621 c 0
1760 423 m 1
 1719 343 1641 294 1537 294 c 0
 1346 294 1210 433 1210 621 c 0
 1210 809 1350 948 1546 948 c 0
 1678 948 1779 888 1829 790 c 0
 1851 752 1900 651 1900 490 c 0
 1900 157 1704 -24 1462 -24 c 0
 1321 -24 1241 66 1241 66 c 1
 1305 162 l 1
 1305 162 1361 103 1486 103 c 0
 1614 103 1736 220 1760 423 c 1
430 1182 m 1
 231 1182 l 1
 231 1302 l 1
 281 1302 l 2
 362 1302 438 1358 438 1436 c 2
 438 1480 l 1
 572 1480 l 1
 572 1172 572 863 572 555 c 1
 430 555 l 1
 430 1182 l 1
700 98 m 1
 592 160 l 1
 1297 1382 l 1
 1405 1319 l 1
 700 98 l 1
EndSplineSet
Colour: ff8000
EndChar

StartChar: uni2152
Encoding: 8530 8530 198
Width: 2469
VWidth: 1545
Flags: HMW
LayerCount: 4
Fore
SplineSet
1685 462 m 0
 1685 782 1826 948 2028 948 c 0
 2230 948 2372 782 2372 462 c 0
 2372 142 2230 -24 2028 -24 c 0
 1826 -24 1685 142 1685 462 c 0
1828 462 m 0
 1828 219 1909 103 2028 103 c 0
 2147 103 2230 219 2230 462 c 0
 2230 705 2147 821 2028 821 c 0
 1909 821 1828 705 1828 462 c 0
1402 627 m 1
 1204 627 l 1
 1204 746 l 1
 1254 746 l 2
 1335 746 1411 803 1411 881 c 2
 1411 925 l 1
 1545 925 l 1
 1545 617 1545 308 1545 0 c 1
 1402 0 l 1
 1402 627 l 1
430 1182 m 1
 231 1182 l 1
 231 1302 l 1
 281 1302 l 2
 362 1302 438 1358 438 1436 c 2
 438 1480 l 1
 572 1480 l 1
 572 1172 572 863 572 555 c 1
 430 555 l 1
 430 1182 l 1
700 98 m 1
 592 160 l 1
 1297 1382 l 1
 1405 1319 l 1
 700 98 l 1
EndSplineSet
Substitution2: "'zero' Slashed Zero lookups0-1" uni2152.zero
Colour: ff8000
EndChar

StartChar: onethird
Encoding: 8531 8531 199
Width: 1995
VWidth: 1545
Flags: HMW
LayerCount: 4
Fore
SplineSet
1545 546 m 2
 1659 546 1725 603 1725 682 c 0
 1725 761 1659 821 1545 821 c 0
 1431 821 1366 749 1366 670 c 1
 1225 698 l 1
 1243 830 1355 948 1545 948 c 0
 1735 948 1869 834 1869 691 c 0
 1869 609 1820 535 1739 488 c 1
 1841 438 1903 355 1903 257 c 0
 1903 102 1754 -24 1545 -24 c 0
 1350 -24 1209 91 1190 248 c 1
 1331 278 l 1
 1331 188 1413 103 1545 103 c 0
 1677 103 1759 174 1759 264 c 0
 1759 354 1680 424 1548 424 c 2
 1482 424 l 1
 1482 546 l 1
 1545 546 l 2
430 1182 m 1
 231 1182 l 1
 231 1302 l 1
 281 1302 l 2
 362 1302 438 1358 438 1436 c 2
 438 1480 l 1
 572 1480 l 1
 572 1172 572 863 572 555 c 1
 430 555 l 1
 430 1182 l 1
700 98 m 1
 592 160 l 1
 1297 1382 l 1
 1405 1319 l 1
 700 98 l 1
EndSplineSet
Colour: ff8000
EndChar

StartChar: uni2159
Encoding: 8537 8537 200
Width: 1995
VWidth: 1545
Flags: HMW
LayerCount: 4
Fore
SplineSet
1354 304 m 0
 1354 182 1436 103 1546 103 c 0
 1656 103 1739 182 1739 304 c 0
 1739 426 1656 504 1546 504 c 0
 1436 504 1354 426 1354 304 c 0
1331 502 m 1
 1372 582 1450 631 1554 631 c 0
 1745 631 1882 492 1882 304 c 0
 1882 116 1741 -24 1545 -24 c 0
 1413 -24 1313 37 1263 135 c 0
 1241 173 1191 273 1191 434 c 0
 1191 767 1388 948 1630 948 c 0
 1771 948 1852 858 1852 858 c 1
 1786 762 l 1
 1786 762 1730 821 1605 821 c 0
 1477 821 1355 704 1331 502 c 1
430 1182 m 1
 231 1182 l 1
 231 1302 l 1
 281 1302 l 2
 362 1302 438 1358 438 1436 c 2
 438 1480 l 1
 572 1480 l 1
 572 1172 572 863 572 555 c 1
 430 555 l 1
 430 1182 l 1
700 98 m 1
 592 160 l 1
 1297 1382 l 1
 1405 1319 l 1
 700 98 l 1
EndSplineSet
Colour: ff8000
EndChar

StartChar: oneeighth
Encoding: 8539 8539 201
Width: 1995
VWidth: 1545
Flags: HMW
LayerCount: 4
Fore
SplineSet
1545 424 m 0
 1413 424 1333 354 1333 264 c 0
 1333 174 1413 103 1545 103 c 0
 1677 103 1759 174 1759 264 c 0
 1759 354 1677 424 1545 424 c 0
1366 682 m 0
 1366 603 1431 546 1545 546 c 0
 1659 546 1725 603 1725 682 c 0
 1725 761 1659 821 1545 821 c 0
 1431 821 1366 761 1366 682 c 0
1190 257 m 0
 1190 355 1250 438 1351 488 c 1
 1270 535 1222 609 1222 691 c 0
 1222 834 1355 948 1545 948 c 0
 1735 948 1868 834 1868 691 c 0
 1868 609 1819 535 1738 488 c 1
 1840 438 1902 355 1902 257 c 0
 1902 102 1754 -24 1545 -24 c 0
 1336 -24 1190 102 1190 257 c 0
430 1182 m 1
 231 1182 l 1
 231 1302 l 1
 281 1302 l 2
 362 1302 438 1358 438 1436 c 2
 438 1480 l 1
 572 1480 l 1
 572 1172 572 863 572 555 c 1
 430 555 l 1
 430 1182 l 1
700 98 m 1
 592 160 l 1
 1297 1382 l 1
 1405 1319 l 1
 700 98 l 1
EndSplineSet
Colour: ff8000
EndChar

StartChar: uni2155
Encoding: 8533 8533 202
Width: 1995
VWidth: 1545
Flags: HMW
LayerCount: 4
Fore
SplineSet
1227 454 m 1
 1296 925 l 1
 1816 925 l 1
 1816 798 l 1
 1413 798 l 1
 1369 550 l 1
 1414 596 1475 624 1553 624 c 0
 1731 624 1882 490 1882 306 c 0
 1882 122 1728 -13 1545 -13 c 0
 1350 -13 1220 104 1201 257 c 1
 1341 286 l 1
 1341 197 1412 114 1544 114 c 0
 1662 114 1738 189 1738 306 c 0
 1738 423 1663 498 1545 498 c 0
 1447 498 1412 486 1366 417 c 1
 1227 454 l 1
430 1182 m 1
 231 1182 l 1
 231 1302 l 1
 281 1302 l 2
 362 1302 438 1358 438 1436 c 2
 438 1480 l 1
 572 1480 l 1
 572 1172 572 863 572 555 c 1
 430 555 l 1
 430 1182 l 1
700 98 m 1
 592 160 l 1
 1297 1382 l 1
 1405 1319 l 1
 700 98 l 1
EndSplineSet
Colour: ff8000
EndChar

StartChar: uni2157
Encoding: 8535 8535 203
Width: 1995
VWidth: 1545
Flags: HMW
LayerCount: 4
Fore
SplineSet
1227 454 m 1
 1296 925 l 1
 1816 925 l 1
 1816 798 l 1
 1413 798 l 1
 1369 550 l 1
 1414 596 1475 624 1553 624 c 0
 1731 624 1882 490 1882 306 c 0
 1882 122 1728 -13 1545 -13 c 0
 1350 -13 1220 104 1201 257 c 1
 1341 286 l 1
 1341 197 1412 114 1544 114 c 0
 1662 114 1738 189 1738 306 c 0
 1738 423 1663 498 1545 498 c 0
 1447 498 1412 486 1366 417 c 1
 1227 454 l 1
450 1100 m 2
 564 1100 630 1159 630 1238 c 0
 630 1317 564 1376 450 1376 c 0
 336 1376 270 1304 270 1225 c 1
 130 1253 l 1
 148 1385 260 1502 450 1502 c 0
 640 1502 774 1389 774 1246 c 0
 774 1164 725 1090 644 1043 c 1
 746 993 807 909 807 811 c 0
 807 656 659 531 450 531 c 0
 255 531 116 646 97 803 c 1
 236 833 l 1
 236 743 318 658 450 658 c 0
 582 658 663 729 663 819 c 0
 663 909 584 979 452 979 c 2
 388 979 l 1
 388 1100 l 1
 450 1100 l 2
700 98 m 1
 592 160 l 1
 1297 1382 l 1
 1405 1319 l 1
 700 98 l 1
EndSplineSet
Colour: ff8000
EndChar

StartChar: uni2158
Encoding: 8536 8536 204
Width: 1995
VWidth: 1545
Flags: HMW
LayerCount: 4
Fore
SplineSet
1227 454 m 1
 1296 925 l 1
 1816 925 l 1
 1816 798 l 1
 1413 798 l 1
 1369 550 l 1
 1414 596 1475 624 1553 624 c 0
 1731 624 1882 490 1882 306 c 0
 1882 122 1728 -13 1545 -13 c 0
 1350 -13 1220 104 1201 257 c 1
 1341 286 l 1
 1341 197 1412 114 1544 114 c 0
 1662 114 1738 189 1738 306 c 0
 1738 423 1663 498 1545 498 c 0
 1447 498 1412 486 1366 417 c 1
 1227 454 l 1
615 1480 m 1
 465 1480 l 1
 132 875 l 1
 132 748 l 1
 541 748 l 1
 541 555 l 1
 684 555 l 1
 684 748 l 1
 814 748 l 1
 814 875 l 1
 684 875 l 1
 684 1068 l 1
 546 1068 l 1
 546 875 l 1
 282 875 l 1
 615 1480 l 1
700 98 m 1
 592 160 l 1
 1297 1382 l 1
 1405 1319 l 1
 700 98 l 1
EndSplineSet
Colour: ff8000
EndChar

StartChar: uni215A
Encoding: 8538 8538 205
Width: 1995
VWidth: 1545
Flags: HMW
LayerCount: 4
Fore
SplineSet
134 1029 m 1
 203 1500 l 1
 722 1500 l 1
 722 1374 l 1
 320 1374 l 1
 275 1125 l 1
 320 1171 381 1199 459 1199 c 0
 637 1199 788 1065 788 881 c 0
 788 697 635 562 452 562 c 0
 257 562 126 679 107 832 c 1
 248 860 l 1
 248 771 319 689 451 689 c 0
 569 689 644 764 644 881 c 0
 644 998 570 1073 452 1073 c 0
 354 1073 318 1061 272 992 c 1
 134 1029 l 1
1354 304 m 0
 1354 182 1438 103 1548 103 c 0
 1658 103 1740 182 1740 304 c 0
 1740 426 1658 504 1548 504 c 0
 1438 504 1354 426 1354 304 c 0
1332 502 m 1
 1373 582 1451 631 1555 631 c 0
 1746 631 1882 492 1882 304 c 0
 1882 116 1742 -24 1546 -24 c 0
 1414 -24 1314 37 1264 135 c 0
 1242 173 1193 273 1193 434 c 0
 1193 767 1388 948 1630 948 c 0
 1771 948 1853 858 1853 858 c 1
 1787 762 l 1
 1787 762 1731 821 1606 821 c 0
 1478 821 1356 704 1332 502 c 1
701 98 m 1
 593 160 l 1
 1298 1382 l 1
 1406 1319 l 1
 701 98 l 1
EndSplineSet
Colour: ff8000
EndChar

StartChar: threeeighths
Encoding: 8540 8540 206
Width: 1995
VWidth: 1545
Flags: HMW
LayerCount: 4
Fore
SplineSet
450 1100 m 2
 564 1100 630 1159 630 1238 c 0
 630 1317 564 1376 450 1376 c 0
 336 1376 270 1304 270 1225 c 1
 130 1253 l 1
 148 1385 260 1502 450 1502 c 0
 640 1502 774 1389 774 1246 c 0
 774 1164 725 1090 644 1043 c 1
 746 993 807 909 807 811 c 0
 807 656 659 531 450 531 c 0
 255 531 116 646 97 803 c 1
 236 833 l 1
 236 743 318 658 450 658 c 0
 582 658 663 729 663 819 c 0
 663 909 584 979 452 979 c 2
 388 979 l 1
 388 1100 l 1
 450 1100 l 2
1545 424 m 0
 1413 424 1333 354 1333 264 c 0
 1333 174 1413 103 1545 103 c 0
 1677 103 1759 174 1759 264 c 0
 1759 354 1677 424 1545 424 c 0
1366 682 m 0
 1366 603 1431 546 1545 546 c 0
 1659 546 1725 603 1725 682 c 0
 1725 761 1659 821 1545 821 c 0
 1431 821 1366 761 1366 682 c 0
1190 257 m 0
 1190 355 1250 438 1351 488 c 1
 1270 535 1222 609 1222 691 c 0
 1222 834 1355 948 1545 948 c 0
 1735 948 1868 834 1868 691 c 0
 1868 609 1819 535 1738 488 c 1
 1840 438 1902 355 1902 257 c 0
 1902 102 1754 -24 1545 -24 c 0
 1336 -24 1190 102 1190 257 c 0
700 98 m 1
 592 160 l 1
 1297 1382 l 1
 1405 1319 l 1
 700 98 l 1
EndSplineSet
Colour: ff8000
EndChar

StartChar: fiveeighths
Encoding: 8541 8541 207
Width: 1995
VWidth: 1545
Flags: HMW
LayerCount: 4
Fore
SplineSet
134 1029 m 1
 203 1500 l 1
 722 1500 l 1
 722 1374 l 1
 320 1374 l 1
 275 1125 l 1
 320 1171 381 1199 459 1199 c 0
 637 1199 788 1065 788 881 c 0
 788 697 635 562 452 562 c 0
 257 562 126 679 107 832 c 1
 248 860 l 1
 248 771 319 689 451 689 c 0
 569 689 644 764 644 881 c 0
 644 998 570 1073 452 1073 c 0
 354 1073 318 1061 272 992 c 1
 134 1029 l 1
1545 424 m 0
 1413 424 1333 354 1333 264 c 0
 1333 174 1413 103 1545 103 c 0
 1677 103 1759 174 1759 264 c 0
 1759 354 1677 424 1545 424 c 0
1366 682 m 0
 1366 603 1431 546 1545 546 c 0
 1659 546 1725 603 1725 682 c 0
 1725 761 1659 821 1545 821 c 0
 1431 821 1366 761 1366 682 c 0
1190 257 m 0
 1190 355 1250 438 1351 488 c 1
 1270 535 1222 609 1222 691 c 0
 1222 834 1355 948 1545 948 c 0
 1735 948 1868 834 1868 691 c 0
 1868 609 1819 535 1738 488 c 1
 1840 438 1902 355 1902 257 c 0
 1902 102 1754 -24 1545 -24 c 0
 1336 -24 1190 102 1190 257 c 0
700 98 m 1
 592 160 l 1
 1297 1382 l 1
 1405 1319 l 1
 700 98 l 1
EndSplineSet
Colour: ff8000
EndChar

StartChar: seveneighths
Encoding: 8542 8542 208
Width: 1995
VWidth: 1545
Flags: HMW
LayerCount: 4
Fore
SplineSet
129 1354 m 1
 129 1480 l 1
 775 1480 l 1
 775 1376 l 1
 775 1376 458 1080 412 555 c 1
 268 555 l 1
 315 1067 615 1354 615 1354 c 1
 129 1354 l 1
1545 424 m 0
 1413 424 1333 354 1333 264 c 0
 1333 174 1413 103 1545 103 c 0
 1677 103 1759 174 1759 264 c 0
 1759 354 1677 424 1545 424 c 0
1366 682 m 0
 1366 603 1431 546 1545 546 c 0
 1659 546 1725 603 1725 682 c 0
 1725 761 1659 821 1545 821 c 0
 1431 821 1366 761 1366 682 c 0
1190 257 m 0
 1190 355 1250 438 1351 488 c 1
 1270 535 1222 609 1222 691 c 0
 1222 834 1355 948 1545 948 c 0
 1735 948 1868 834 1868 691 c 0
 1868 609 1819 535 1738 488 c 1
 1840 438 1902 355 1902 257 c 0
 1902 102 1754 -24 1545 -24 c 0
 1336 -24 1190 102 1190 257 c 0
700 98 m 1
 592 160 l 1
 1297 1382 l 1
 1405 1319 l 1
 700 98 l 1
EndSplineSet
Colour: ff8000
EndChar

StartChar: uni2189
Encoding: 8585 8585 209
Width: 1995
VWidth: 1545
Flags: HMW
LayerCount: 4
Fore
SplineSet
109 1018 m 0
 109 1338 250 1502 452 1502 c 0
 654 1502 796 1338 796 1018 c 0
 796 698 654 531 452 531 c 0
 250 531 109 698 109 1018 c 0
252 1018 m 0
 252 775 333 658 452 658 c 0
 571 658 653 775 653 1018 c 0
 653 1261 571 1376 452 1376 c 0
 333 1376 252 1261 252 1018 c 0
1545 546 m 2
 1659 546 1725 603 1725 682 c 0
 1725 761 1659 821 1545 821 c 0
 1431 821 1366 749 1366 670 c 1
 1225 698 l 1
 1243 830 1355 948 1545 948 c 0
 1735 948 1869 834 1869 691 c 0
 1869 609 1820 535 1739 488 c 1
 1841 438 1903 355 1903 257 c 0
 1903 102 1754 -24 1545 -24 c 0
 1350 -24 1209 91 1190 248 c 1
 1331 278 l 1
 1331 188 1413 103 1545 103 c 0
 1677 103 1759 174 1759 264 c 0
 1759 354 1680 424 1548 424 c 2
 1482 424 l 1
 1482 546 l 1
 1545 546 l 2
700 98 m 1
 592 160 l 1
 1297 1382 l 1
 1405 1319 l 1
 700 98 l 1
EndSplineSet
Substitution2: "'zero' Slashed Zero lookups0-1" uni2189.zero
Colour: ff8000
EndChar

StartChar: AE
Encoding: 198 198 210
Width: 2182
Flags: HMW
AnchorPoint: "bottom_center" 1118 0 basechar 0
AnchorPoint: "top_center" 1477 1400 basechar 0
LayerCount: 4
Fore
SplineSet
910 1480 m 1
 1115 1480 l 1
 1115 1312 l 1
 910 1312 l 1
 910 1480 l 1
474 603 m 1
 1115 603 l 1
 1115 436 l 1
 474 436 l 1
 474 603 l 1
1115 1480 m 1
 290 0 l 1
 70 0 l 1
 910 1480 l 1
 1115 1480 l 1
1949 823 m 17
 1949 656 l 9
 1306 656 l 17
 1306 167 l 1
 2044 167 l 1
 2044 0 l 1
 1115 0 l 25
 1115 1480 l 1
 2044 1480 l 17
 2044 1312 l 1
 1306 1312 l 1
 1306 823 l 9
 1949 823 l 17
EndSplineSet
Colour: ffff
EndChar

StartChar: multiply
Encoding: 215 215 211
Width: 1093
Flags: HMW
LayerCount: 4
Fore
SplineSet
100 988 m 1
 876 211 l 1
 996 332 l 9
 220 1108 l 1
 100 988 l 1
220 211 m 1
 996 988 l 1
 876 1108 l 9
 100 332 l 1
 220 211 l 1
EndSplineSet
Substitution2: "'ss06' Bigger operators lookups0-1" multiply.ss06
Colour: ff00
EndChar

StartChar: Eth
Encoding: 208 208 212
Width: 1445
Flags: HMW
LayerCount: 4
Fore
SplineSet
670 656 m 1
 670 823 l 1
 0 823 l 1
 0 777 0 702 0 656 c 1
 670 656 l 1
400 1312 m 25
 682 1312 l 17
 952 1312 1158 1073 1158 740 c 0
 1158 407 952 167 682 167 c 9
 400 167 l 25
 400 1312 l 25
682 0 m 1
 1062 0 1348 290 1348 740 c 0
 1348 1190 1062 1480 682 1480 c 1
 210 1480 l 1
 210 0 l 1
 400 0 l 25
 682 0 l 1
EndSplineSet
Colour: ffff
EndChar

StartChar: Oslash
Encoding: 216 216 213
Width: 1600
Flags: HMW
AnchorPoint: "top_center" 801 1400 basechar 0
AnchorPoint: "bottom_center" 801 0 basechar 0
LayerCount: 4
Fore
SplineSet
1366 1596 m 1
 1493 1500 l 1
 236 -116 l 1
 107 -20 l 1
 1366 1596 l 1
290 740 m 0
 290 390 511 148 801 148 c 0
 1091 148 1312 390 1312 740 c 0
 1312 1090 1091 1332 801 1332 c 0
 511 1332 290 1090 290 740 c 0
100 740 m 0
 100 1179 406 1500 801 1500 c 0
 1196 1500 1502 1179 1502 740 c 0
 1502 301 1196 -20 801 -20 c 0
 406 -20 100 301 100 740 c 0
EndSplineSet
Colour: ffff
EndChar

StartChar: Thorn
Encoding: 222 222 214
Width: 1186
Flags: HMW
LayerCount: 4
Fore
SplineSet
330 1025 m 25
 330 453 l 25
 612 453 l 17
 778 453 898 572 898 738 c 0
 898 904 778 1025 612 1025 c 9
 330 1025 l 25
141 0 m 1
 141 1193 l 1
 141 1480 l 1
 330 1480 l 1
 330 1193 l 1
 612 1193 l 1
 866 1193 1088 992 1088 738 c 0
 1088 484 866 286 612 286 c 1
 330 286 l 1
 330 0 l 25
 141 0 l 1
EndSplineSet
Colour: ffff
EndChar

StartChar: thorn
Encoding: 254 254 215
Width: 1181
VWidth: 997
Flags: HMW
LayerCount: 4
Fore
SplineSet
308 520 m 0
 308 290 426 141 606 141 c 0
 786 141 904 290 904 520 c 0
 904 750 786 900 606 900 c 0
 426 900 308 750 308 520 c 0
141 873 m 1
 141 975 141 1480 141 1480 c 1
 320 1480 l 1
 320 1480 320 980 320 920 c 1
 405 1005 481 1060 606 1060 c 0
 887 1060 1084 831 1084 520 c 0
 1084 209 887 -20 606 -20 c 0
 481 -20 405 35 320 120 c 1
 320 -439 l 1
 141 -439 l 1
 141 873 l 1
EndSplineSet
Substitution2: "'smcp' Bas-de-casse vers petites capitales lookups0-1" thorn.sc
Colour: ff00
EndChar

StartChar: ae
Encoding: 230 230 216
Width: 1893
VWidth: 997
Flags: HMW
AnchorPoint: "bottom_center" 890 0 basechar 0
AnchorPoint: "top_center" 890 1040 basechar 0
LayerCount: 4
Fore
SplineSet
980 340 m 21
 980 139 813 -20 499 -20 c 4
 245 -20 100 139 100 340 c 4
 100 541 286 700 540 700 c 4
 766 700 890 541 890 340 c 4
 800 340 l 4
 800 460 720 540 540 540 c 4
 360 540 280 460 280 340 c 4
 280 220 360 141 540 141 c 4
 690 141 800 220 800 340 c 5
 980 340 l 21
800 640 m 6
 800 820 706 901 539 901 c 4
 359 901 222 795 222 795 c 5
 141 936 l 5
 141 936 286 1060 540 1060 c 4
 786 1060 980 959 980 609 c 5
 980 458 l 5
 800 554 l 29
 800 640 l 6
874 600 m 5
 1680 600 l 5
 1680 439 l 5
 874 439 l 5
 874 600 l 5
1610 340 m 5
 1762 252 l 5
 1680 74 1497 -20 1298 -20 c 4
 1017 -20 800 209 800 520 c 4
 800 831 1017 1060 1298 1060 c 4
 1579 1060 1796 831 1796 520 c 4
 1796 493 1793 465 1790 439 c 5
 1610 439 l 5
 1614 465 1616 492 1616 520 c 4
 1616 740 1489 900 1298 900 c 4
 1107 900 980 740 980 520 c 4
 980 300 1107 141 1298 141 c 4
 1439 141 1561 208 1610 340 c 5
EndSplineSet
Substitution2: "'smcp' Bas-de-casse vers petites capitales lookups0-1" ae.sc
Substitution2: "'ss04' Simplified a and g lookups0-1" ae.ss04
Colour: ff00
EndChar

StartChar: oslash
Encoding: 248 248 217
Width: 1193
VWidth: 997
Flags: HMW
AnchorPoint: "top_center" 598 1040 basechar 0
AnchorPoint: "bottom_center" 598 0 basechar 0
LayerCount: 4
Fore
SplineSet
992 1156 m 1
 1121 1060 l 1
 204 -116 l 1
 76 -20 l 1
 992 1156 l 1
280 520 m 0
 280 300 407 141 598 141 c 0
 789 141 917 300 917 520 c 0
 917 740 789 900 598 900 c 0
 407 900 280 740 280 520 c 0
100 520 m 0
 100 831 317 1060 598 1060 c 0
 879 1060 1097 831 1097 520 c 0
 1097 209 879 -20 598 -20 c 0
 317 -20 100 209 100 520 c 0
EndSplineSet
Colour: ff00
EndChar

StartChar: divide
Encoding: 247 247 218
Width: 1205
Flags: HMW
LayerCount: 4
Fore
SplineSet
478 303 m 0
 478 376 530 432 603 432 c 0
 676 432 731 376 731 303 c 0
 731 230 676 176 603 176 c 0
 530 176 478 230 478 303 c 0
478 1002 m 0
 478 1075 530 1131 603 1131 c 0
 676 1131 731 1075 731 1002 c 0
 731 929 676 876 603 876 c 0
 530 876 478 929 478 1002 c 0
141 580 m 1
 141 740 l 1
 1068 740 l 17
 1068 580 l 1
 141 580 l 1
EndSplineSet
Substitution2: "'ss06' Bigger operators lookups0-1" divide.ss06
Colour: ff00
EndChar

StartChar: germandbls
Encoding: 223 223 219
Width: 1221
VWidth: 997
Flags: HMW
LayerCount: 4
Back
SplineSet
607 856 m 0
 907 856 1144 661 1144 418 c 0
 1144 175 907 -20 607 -20 c 4
 525 -20 449 -6 383 20 c 5
 429 187 l 5
 478 161 537 148 607 148 c 4
 807 148 954 262 954 418 c 0
 954 574 807 688 607 688 c 0
 607 856 l 0
EndSplineSet
Fore
SplineSet
650 141 m 0
 580 141 491 153 442 179 c 1
 396 20 l 1
 462 -6 568 -20 650 -20 c 0
 949 -20 1124 161 1124 415 c 0
 1124 669 898 852 597 852 c 0
 597 692 l 0
 798 692 944 572 944 415 c 0
 944 258 851 141 650 141 c 0
320 1082 m 4
 320 1242 437 1340 587 1340 c 0
 737 1340 854 1252 854 1082 c 4
 854 932 747 852 597 852 c 0
 597 730 l 0
 851 730 1034 828 1034 1082 c 0
 1034 1336 841 1500 587 1500 c 0
 333 1500 141 1336 141 1082 c 0
 141 828 141 0 141 0 c 9
 320 0 l 17
 320 0 320 924 320 1082 c 4
EndSplineSet
Substitution2: "'smcp' Bas-de-casse vers petites capitales lookups0-1" germandbls.sc
Colour: ff00
EndChar

StartChar: eth
Encoding: 240 240 220
Width: 1193
VWidth: 997
Flags: HMW
LayerCount: 4
Fore
SplineSet
787 1278 m 1
 914 1352 l 1
 839 1480 l 1
 713 1407 l 1
 374 1212 l 1
 396 1172 427 1124 449 1084 c 1
 787 1278 l 1
374 1354 m 1
 595 1226 917 1079 917 520 c 0
 1097 520 l 0
 1097 1000 814 1309 468 1510 c 1
 374 1354 l 1
280 520 m 0
 280 740 407 900 598 900 c 0
 789 900 917 740 917 520 c 0
 917 300 789 141 598 141 c 0
 407 141 280 300 280 520 c 0
100 520 m 0
 100 209 317 -20 598 -20 c 0
 879 -20 1097 209 1097 520 c 0
 1097 520 1031 520 1012 520 c 1
 1012 831 848 1060 598 1060 c 0
 317 1060 100 831 100 520 c 0
EndSplineSet
Substitution2: "'smcp' Bas-de-casse vers petites capitales lookups0-1" eth.sc
Colour: ff00
EndChar

StartChar: macron
Encoding: 175 175 221
Width: 788
VWidth: 997
Flags: HMW
LayerCount: 4
Fore
SplineSet
90 1242 m 1
 90 1382 l 1
 700 1382 l 1
 700 1242 l 1
 90 1242 l 1
EndSplineSet
Colour: ff00
EndChar

StartChar: uni0304
Encoding: 772 772 222
Width: 0
VWidth: 997
Flags: HMW
AnchorPoint: "stack_u0303" 642 1144 mark 0
AnchorPoint: "top_center" 642 1040 mark 0
LayerCount: 4
Fore
SplineSet
337 1225 m 1
 337 1364 l 1
 946 1364 l 1
 946 1225 l 1
 337 1225 l 1
EndSplineSet
Colour: ffff00
EndChar

StartChar: uni0306
Encoding: 774 774 225
Width: 0
VWidth: 997
Flags: HMW
AnchorPoint: "top_center" 642 1040 mark 0
LayerCount: 4
Fore
SplineSet
642 1214 m 0
 492 1214 362 1339 362 1480 c 1
 522 1480 l 1
 522 1414 576 1354 642 1354 c 0
 708 1354 762 1414 762 1480 c 1
 922 1480 l 1
 922 1339 792 1214 642 1214 c 0
EndSplineSet
Colour: ffff00
EndChar

StartChar: uni0328
Encoding: 808 808 227
Width: 0
VWidth: 997
Flags: HMW
AnchorPoint: "bottom_right" 788 0 mark 0
LayerCount: 4
Fore
SplineSet
757 -226 m 1
 816 -326 l 1
 761 -364 717 -380 653 -380 c 0
 553 -380 464 -324 464 -204 c 0
 464 -84 654 44 709 80 c 0
 788 0 l 4
 681 -78 590 -138 590 -204 c 0
 590 -240 617 -263 653 -263 c 0
 689 -263 723 -251 757 -226 c 1
EndSplineSet
Layer: 2
SplineSet
654 -225 m 1
 712 -326 l 1
 657 -364 614 -380 550 -380 c 0
 450 -380 360 -310 360 -220 c 0
 360 -130 411 -62 519 0 c 0
 687 0 l 0
 579 -78 487 -137 487 -204 c 0
 487 -240 514 -263 550 -263 c 0
 586 -263 620 -250 654 -225 c 1
EndSplineSet
Colour: ffc71c
EndChar

StartChar: uni0307
Encoding: 775 775 230
Width: 0
VWidth: 997
Flags: HMW
AnchorPoint: "top_center" 642 1040 mark 0
LayerCount: 4
Fore
SplineSet
514 1352 m 4
 514 1425 569 1480 642 1480 c 4
 715 1480 770 1425 770 1352 c 4
 770 1279 715 1225 642 1225 c 4
 569 1225 514 1279 514 1352 c 4
EndSplineSet
Colour: ff00
EndChar

StartChar: uni030C
Encoding: 780 780 231
Width: 0
VWidth: 997
Flags: HMW
AnchorPoint: "top_center" 642 1040 mark 0
LayerCount: 4
Fore
SplineSet
529 1480 m 1
 738 1225 l 1
 547 1225 l 1
 351 1480 l 1
 529 1480 l 1
755 1480 m 1
 933 1480 l 1
 738 1225 l 1
 547 1225 l 1
 755 1480 l 1
EndSplineSet
Colour: ffff00
EndChar

StartChar: uni0237
Encoding: 567 567 318
Width: 507
Flags: HMW
LayerCount: 4
Fore
SplineSet
47 -284 m 1
 60 -290 83 -301 99 -301 c 0
 159 -301 189 -270 189 -210 c 2
 189 0 l 1
 189 138 l 1
 189 1040 l 1
 369 1040 l 1
 369 138 l 1
 369 0 l 1
 369 -210 l 2
 369 -380 269 -459 99 -459 c 0
 67 -459 27 -449 5 -436 c 1
 47 -284 l 1
EndSplineSet
Substitution2: "'smcp' Bas-de-casse vers petites capitales lookups0-1" uni0237.sc
Colour: ff00
EndChar

StartChar: Dcroat
Encoding: 272 272 319
Width: 1445
Flags: HMW
LayerCount: 4
Fore
SplineSet
670 656 m 1
 670 823 l 1
 0 823 l 1
 0 777 0 702 0 656 c 1
 670 656 l 1
400 1312 m 25
 682 1312 l 17
 952 1312 1158 1073 1158 740 c 0
 1158 407 952 167 682 167 c 9
 400 167 l 25
 400 1312 l 25
682 0 m 1
 1062 0 1348 290 1348 740 c 0
 1348 1190 1062 1480 682 1480 c 1
 210 1480 l 1
 210 0 l 1
 400 0 l 25
 682 0 l 1
EndSplineSet
Colour: ffff
EndChar

StartChar: oe
Encoding: 339 339 320
Width: 2010
VWidth: 997
Flags: HMW
LayerCount: 4
Fore
SplineSet
990 600 m 1
 1796 600 l 1
 1796 439 l 1
 990 439 l 1
 990 600 l 1
1726 340 m 1
 1879 252 l 1
 1797 74 1613 -20 1414 -20 c 0
 1133 -20 917 209 917 520 c 0
 917 831 1133 1060 1414 1060 c 0
 1695 1060 1912 831 1912 520 c 0
 1912 493 1910 465 1907 439 c 1
 1726 439 l 1
 1730 465 1732 492 1732 520 c 0
 1732 740 1605 900 1414 900 c 0
 1223 900 1097 740 1097 520 c 0
 1097 300 1223 141 1414 141 c 0
 1555 141 1677 208 1726 340 c 1
280 520 m 0
 280 300 407 141 598 141 c 0
 789 141 917 300 917 520 c 0
 917 740 789 900 598 900 c 0
 407 900 280 740 280 520 c 0
100 520 m 0
 100 831 317 1060 598 1060 c 0
 879 1060 1097 831 1097 520 c 0
 1097 209 879 -20 598 -20 c 0
 317 -20 100 209 100 520 c 0
EndSplineSet
Substitution2: "'smcp' Bas-de-casse vers petites capitales lookups0-1" oe.sc
Colour: ff00
EndChar

StartChar: OE
Encoding: 338 338 321
Width: 2378
Flags: HMW
LayerCount: 4
Fore
SplineSet
290 740 m 0
 290 390 511 148 801 148 c 0
 1091 148 1312 390 1312 740 c 0
 1312 1090 1091 1332 801 1332 c 0
 511 1332 290 1090 290 740 c 0
100 740 m 0
 100 1179 406 1500 801 1500 c 0
 1196 1500 1502 1179 1502 740 c 0
 1502 301 1196 -20 801 -20 c 0
 406 -20 100 301 100 740 c 0
2146 823 m 17
 2146 656 l 9
 1502 656 l 17
 1502 167 l 1
 2240 167 l 1
 2240 0 l 1
 1312 0 l 25
 1312 1480 l 1
 2240 1480 l 17
 2240 1312 l 1
 1502 1312 l 1
 1502 823 l 9
 2146 823 l 17
EndSplineSet
Colour: ffff
EndChar

StartChar: dcaron
Encoding: 271 271 323
Width: 1469
VWidth: 997
Flags: HMW
LayerCount: 4
Fore
SplineSet
1184 1370 m 4
 1184 1443 1237 1500 1310 1500 c 4
 1383 1500 1436 1443 1436 1370 c 4
 1436 1297 1383 1244 1310 1244 c 4
 1237 1244 1184 1297 1184 1370 c 4
1199 1103 m 5
 1256 1116 1345 1164 1345 1284 c 4
 1345 1312 1310 1372 1310 1372 c 5
 1310 1500 l 5
 1380 1500 1472 1454 1472 1284 c 4
 1472 1104 1307 1008 1229 988 c 5
 1199 1103 l 5
876 520 m 0
 876 750 758 900 578 900 c 0
 398 900 280 750 280 520 c 0
 280 290 398 141 578 141 c 0
 758 141 876 290 876 520 c 0
1044 167 m 1
 1044 65 1064 0 1064 0 c 1
 892 0 l 1
 892 0 876 60 876 120 c 1
 791 35 703 -20 578 -20 c 0
 297 -20 100 209 100 520 c 0
 100 831 297 1060 578 1060 c 0
 703 1060 779 1005 864 920 c 1
 864 1480 l 1
 1044 1480 l 1
 1044 167 l 1
EndSplineSet
Substitution2: "'smcp' Bas-de-casse vers petites capitales lookups0-1" dcaron.sc
Colour: ff00
EndChar

StartChar: dcroat
Encoding: 273 273 324
Width: 1252
VWidth: 997
Flags: HMW
LayerCount: 4
Fore
SplineSet
1254 1160 m 1
 585 1160 l 1
 585 1206 585 1273 585 1319 c 1
 1254 1319 l 1
 1254 1160 l 1
876 520 m 0
 876 750 758 900 578 900 c 0
 398 900 280 750 280 520 c 0
 280 290 398 141 578 141 c 0
 758 141 876 290 876 520 c 0
1044 167 m 1
 1044 65 1064 0 1064 0 c 1
 892 0 l 1
 892 0 876 60 876 120 c 1
 791 35 703 -20 578 -20 c 0
 297 -20 100 209 100 520 c 0
 100 831 297 1060 578 1060 c 0
 703 1060 779 1005 864 920 c 1
 864 1480 l 1
 1044 1480 l 1
 1044 167 l 1
EndSplineSet
Substitution2: "'smcp' Bas-de-casse vers petites capitales lookups0-1" dcroat.sc
Colour: ff00
EndChar

StartChar: Hbar
Encoding: 294 294 325
Width: 1396
Flags: HMW
LayerCount: 4
Fore
SplineSet
1398 1004 m 1
 0 1004 l 1
 0 1050 0 1110 0 1156 c 1
 1398 1156 l 1
 1398 1004 l 1
141 1480 m 25
 330 1480 l 25
 330 823 l 25
 1068 823 l 25
 1068 1480 l 25
 1258 1480 l 25
 1258 0 l 25
 1068 0 l 25
 1068 656 l 25
 330 656 l 25
 330 0 l 25
 141 0 l 25
 141 1480 l 25
EndSplineSet
Colour: ffff
EndChar

StartChar: hbar
Encoding: 295 295 326
Width: 1274
VWidth: 997
Flags: HMW
LayerCount: 4
Fore
SplineSet
720 1160 m 1
 50 1160 l 1
 50 1206 50 1273 50 1319 c 1
 720 1319 l 1
 720 1160 l 1
956 0 m 1
 956 572 l 2
 956 791 878 900 698 900 c 0
 518 900 439 791 439 572 c 2
 439 0 l 1
 260 0 l 1
 260 1480 l 1
 432 1480 l 1
 432 920 l 1
 517 1005 613 1060 738 1060 c 0
 1008 1060 1136 892 1136 572 c 1
 1136 0 l 1
 956 0 l 1
EndSplineSet
Substitution2: "'smcp' Bas-de-casse vers petites capitales lookups0-1" hbar.sc
Colour: ff00
EndChar

StartChar: Lcaron
Encoding: 317 317 333
Width: 1205
Flags: HMW
LayerCount: 4
Fore
SplineSet
470 1370 m 0
 470 1443 521 1500 594 1500 c 0
 667 1500 722 1443 722 1370 c 0
 722 1297 667 1244 594 1244 c 0
 521 1244 470 1297 470 1370 c 0
485 1103 m 1
 542 1116 631 1164 631 1284 c 0
 631 1312 596 1372 596 1372 c 1
 594 1500 l 1
 664 1500 758 1454 758 1284 c 0
 758 1104 593 1008 515 988 c 1
 485 1103 l 1
330 1480 m 17
 330 167 l 1
 1068 167 l 1
 1068 0 l 1
 141 0 l 25
 141 1480 l 1
 330 1480 l 17
EndSplineSet
Colour: ffff
EndChar

StartChar: lcaron
Encoding: 318 318 334
Width: 746
Flags: HMW
LayerCount: 4
Fore
SplineSet
459 1370 m 0
 459 1443 512 1500 585 1500 c 0
 658 1500 713 1443 713 1370 c 0
 713 1297 658 1244 585 1244 c 0
 512 1244 459 1297 459 1370 c 0
474 1103 m 1
 531 1116 621 1164 621 1284 c 0
 621 1312 586 1372 586 1372 c 1
 585 1500 l 1
 655 1500 748 1454 748 1284 c 0
 748 1104 584 1008 506 988 c 1
 474 1103 l 1
462 157 m 1
 504 4 l 1
 482 -9 442 -20 410 -20 c 0
 240 -20 141 60 141 230 c 2
 141 439 l 1
 141 578 l 1
 141 1480 l 1
 320 1480 l 1
 320 578 l 1
 320 439 l 1
 320 230 l 2
 320 170 350 141 410 141 c 0
 426 141 449 151 462 157 c 1
EndSplineSet
Substitution2: "'smcp' Bas-de-casse vers petites capitales lookups0-1" lcaron.sc
Colour: ff00
EndChar

StartChar: Lslash
Encoding: 321 321 335
Width: 1205
Flags: HMW
LayerCount: 4
Fore
SplineSet
600 1100 m 1
 600 907 l 1
 -70 520 l 1
 -70 713 l 1
 600 1100 l 1
330 1480 m 17
 330 167 l 1
 1068 167 l 1
 1068 0 l 1
 141 0 l 25
 141 1480 l 1
 330 1480 l 17
EndSplineSet
Colour: ffff
EndChar

StartChar: lslash
Encoding: 322 322 336
Width: 507
Flags: HMW
LayerCount: 4
Fore
SplineSet
530 1060 m 1
 530 866 l 1
 -70 520 l 1
 -70 713 l 1
 530 1060 l 1
462 157 m 1
 504 4 l 1
 482 -9 442 -20 410 -20 c 0
 240 -20 141 60 141 230 c 2
 141 439 l 1
 141 578 l 1
 141 1480 l 1
 320 1480 l 1
 320 578 l 1
 320 439 l 1
 320 230 l 2
 320 170 350 141 410 141 c 0
 426 141 449 151 462 157 c 1
EndSplineSet
Substitution2: "'smcp' Bas-de-casse vers petites capitales lookups0-1" lslash.sc
Colour: ff00
EndChar

StartChar: Eng
Encoding: 330 330 340
Width: 1396
Flags: HMW
LayerCount: 4
Fore
SplineSet
1258 0 m 1
 1258 -202 l 2
 1258 -372 1148 -459 978 -459 c 0
 946 -459 896 -449 874 -436 c 1
 917 -284 l 1
 930 -290 962 -292 978 -292 c 0
 1038 -292 1068 -262 1068 -202 c 2
 1068 0 l 1
 1258 0 l 1
330 1480 m 1
 1068 320 l 25
 1068 1480 l 1
 1258 1480 l 25
 1258 0 l 25
 1068 0 l 1
 330 1160 l 1
 330 0 l 1
 141 0 l 25
 141 1480 l 1
 330 1480 l 1
EndSplineSet
Colour: ffff
EndChar

StartChar: eng
Encoding: 331 331 341
Width: 1154
VWidth: 997
Flags: HMW
LayerCount: 4
Fore
SplineSet
1016 0 m 1
 1016 -210 l 2
 1016 -380 916 -459 746 -459 c 0
 714 -459 675 -449 653 -436 c 1
 694 -284 l 1
 707 -290 730 -301 746 -301 c 0
 806 -301 836 -270 836 -210 c 2
 836 0 l 1
 1016 0 l 1
836 0 m 1
 836 572 l 2
 836 791 758 900 578 900 c 0
 398 900 320 791 320 572 c 2
 320 0 l 1
 141 0 l 1
 141 1040 l 1
 308 1040 l 1
 308 920 l 1
 393 1005 493 1060 618 1060 c 0
 888 1060 1016 892 1016 572 c 1
 1016 0 l 1
 836 0 l 1
EndSplineSet
Substitution2: "'smcp' Bas-de-casse vers petites capitales lookups0-1" eng.sc
Colour: ff00
EndChar

StartChar: afii57929
Encoding: 700 700 342
Width: 425
VWidth: 997
Flags: HMW
LayerCount: 4
Fore
SplineSet
70 1370 m 0
 70 1443 122 1500 195 1500 c 0
 268 1500 322 1443 322 1370 c 0
 322 1297 268 1244 195 1244 c 0
 122 1244 70 1297 70 1370 c 0
85 1103 m 1
 142 1116 231 1164 231 1284 c 0
 231 1312 196 1372 196 1372 c 1
 195 1500 l 1
 265 1500 358 1454 358 1284 c 0
 358 1104 193 1008 115 988 c 1
 85 1103 l 1
EndSplineSet
Colour: ff00
EndChar

StartChar: uni030B
Encoding: 779 779 343
Width: 0
VWidth: 997
Flags: HMW
AnchorPoint: "top_center" 642 1040 mark 0
LayerCount: 4
Fore
SplineSet
883 1225 m 5
 705 1225 l 5
 883 1480 l 5
 1109 1480 l 5
 883 1225 l 5
478 1225 m 5
 302 1225 l 5
 478 1480 l 5
 705 1480 l 5
 478 1225 l 5
EndSplineSet
Colour: ffff00
EndChar

StartChar: tcaron
Encoding: 357 357 350
Width: 1146
VWidth: 997
Flags: HMW
LayerCount: 4
Fore
SplineSet
860 1370 m 0
 860 1443 913 1500 986 1500 c 0
 1059 1500 1112 1443 1112 1370 c 0
 1112 1297 1059 1244 986 1244 c 0
 913 1244 860 1297 860 1370 c 0
875 1103 m 1
 932 1116 1021 1164 1021 1284 c 0
 1021 1312 986 1372 986 1372 c 1
 986 1500 l 1
 1056 1500 1148 1454 1148 1284 c 0
 1148 1104 983 1008 905 988 c 1
 875 1103 l 1
122 1028 m 17
 212 1028 272 1092 272 1182 c 9
 272 1319 l 1
 439 1319 l 1
 439 1040 l 1
 720 1040 l 1
 720 880 l 1
 439 880 l 1
 439 301 l 2
 439 199 498 141 600 141 c 0
 643 141 694 156 720 175 c 1
 765 13 l 1
 720 -5 656 -20 600 -20 c 0
 399 -20 260 102 260 301 c 2
 260 880 l 1
 50 880 l 1
 50 926 50 982 50 1028 c 1
 122 1028 l 17
EndSplineSet
Substitution2: "'smcp' Bas-de-casse vers petites capitales lookups0-1" tcaron.sc
Colour: ff00
EndChar

StartChar: tbar
Encoding: 359 359 351
Width: 768
VWidth: 997
Flags: HMW
LayerCount: 4
Fore
SplineSet
50 439 m 1
 50 485 50 554 50 600 c 1
 720 600 l 1
 720 439 l 1
 50 439 l 1
122 1028 m 17
 212 1028 272 1092 272 1182 c 9
 272 1319 l 1
 439 1319 l 1
 439 1040 l 1
 720 1040 l 1
 720 880 l 1
 439 880 l 1
 439 301 l 2
 439 199 498 141 600 141 c 0
 643 141 694 156 720 175 c 1
 765 13 l 1
 720 -5 656 -20 600 -20 c 0
 399 -20 260 102 260 301 c 2
 260 880 l 1
 50 880 l 1
 50 926 50 982 50 1028 c 1
 122 1028 l 17
EndSplineSet
Substitution2: "'smcp' Bas-de-casse vers petites capitales lookups0-1" tbar.sc
Colour: ff00
EndChar

StartChar: Tbar
Encoding: 358 358 352
Width: 1396
Flags: HMW
LayerCount: 4
Fore
SplineSet
1034 656 m 1
 364 656 l 1
 364 702 364 777 364 823 c 1
 1034 823 l 1
 1034 656 l 1
794 0 m 25
 603 0 l 25
 603 1312 l 25
 141 1312 l 25
 141 1480 l 25
 1258 1480 l 25
 1258 1312 l 25
 794 1312 l 25
 794 0 l 25
EndSplineSet
Colour: ffff
EndChar

StartChar: kgreenlandic
Encoding: 312 312 353
Width: 1092
Flags: HMW
LayerCount: 4
Fore
SplineSet
417 562 m 1
 526 702 l 1
 1024 0 l 1
 816 0 l 1
 417 562 l 1
320 340 m 1
 320 0 l 1
 141 0 l 1
 141 1040 l 1
 320 1040 l 1
 320 572 l 1
 788 1040 l 1
 848 1040 960 1040 1020 1040 c 1
 320 340 l 1
EndSplineSet
Substitution2: "'smcp' Bas-de-casse vers petites capitales lookups0-1" kgreenlandic.sc
Colour: ff00
EndChar

StartChar: zero.subscript
Encoding: 8320 8320 354
Width: 798
VWidth: 1360
Flags: HMW
LayerCount: 4
Fore
SplineSet
57 278 m 0
 57 598 198 763 400 763 c 0
 602 763 744 598 744 278 c 0
 744 -42 602 -209 400 -209 c 0
 198 -209 57 -42 57 278 c 0
201 278 m 0
 201 35 281 -82 400 -82 c 0
 519 -82 601 35 601 278 c 0
 601 521 519 636 400 636 c 0
 281 636 201 521 201 278 c 0
EndSplineSet
Substitution2: "'zero' Slashed Zero lookups0-1" zero.subscript.zero
Colour: ff8000
EndChar

StartChar: four.subscript
Encoding: 8324 8324 355
Width: 798
VWidth: 2285
Flags: HMW
LayerCount: 4
Fore
SplineSet
542 740 m 1
 390 740 l 1
 60 135 l 1
 60 8 l 1
 468 8 l 1
 468 -185 l 1
 611 -185 l 1
 611 8 l 1
 740 8 l 1
 740 135 l 1
 611 135 l 1
 611 328 l 1
 472 328 l 1
 472 135 l 1
 209 135 l 1
 542 740 l 1
EndSplineSet
Substitution2: "'ss01' Alternative digits 1 and 4 lookups0-1" four.ss01.subscript
Colour: ff8000
EndChar

StartChar: five.subscript
Encoding: 8325 8325 356
Width: 798
VWidth: 2285
Flags: HMW
LayerCount: 4
Fore
SplineSet
86 269 m 1
 155 740 l 1
 675 740 l 1
 675 614 l 1
 272 614 l 1
 226 365 l 1
 271 411 334 439 412 439 c 0
 590 439 740 306 740 122 c 0
 740 -62 588 -198 405 -198 c 0
 210 -198 79 -82 60 71 c 1
 201 100 l 1
 201 11 271 -71 403 -71 c 0
 521 -71 597 5 597 122 c 0
 597 239 523 313 405 313 c 0
 307 313 270 301 224 232 c 1
 86 269 l 1
EndSplineSet
Colour: ff8000
EndChar

StartChar: six.subscript
Encoding: 8326 8326 357
Width: 798
VWidth: 1360
Flags: HMW
LayerCount: 4
Fore
SplineSet
218 119 m 0
 218 -3 299 -82 409 -82 c 0
 519 -82 602 -3 602 119 c 0
 602 241 519 320 409 320 c 0
 299 320 218 241 218 119 c 0
194 317 m 1
 235 397 313 446 417 446 c 0
 608 446 745 307 745 119 c 0
 745 -69 604 -209 408 -209 c 0
 276 -209 176 -148 126 -50 c 0
 104 -12 55 88 55 249 c 0
 55 582 250 763 492 763 c 0
 633 763 715 672 715 672 c 1
 650 577 l 1
 650 577 593 636 468 636 c 0
 340 636 218 519 194 317 c 1
EndSplineSet
Substitution2: "'ss02' Alternative digits 6 and 9 lookups0-1" six.ss02.subscript
Colour: ff8000
EndChar

StartChar: seven.subscript
Encoding: 8327 8327 358
Width: 798
VWidth: 1360
Flags: HMW
LayerCount: 4
Fore
SplineSet
78 614 m 1
 78 740 l 1
 722 740 l 1
 722 636 l 1
 722 636 407 340 361 -185 c 1
 217 -185 l 1
 264 327 562 614 562 614 c 1
 78 614 l 1
EndSplineSet
Colour: ff8000
EndChar

StartChar: eight.subscript
Encoding: 8328 8328 359
Width: 798
VWidth: 1360
Flags: HMW
LayerCount: 4
Fore
SplineSet
398 239 m 0
 266 239 187 169 187 79 c 0
 187 -11 266 -82 398 -82 c 0
 530 -82 613 -11 613 79 c 0
 613 169 530 239 398 239 c 0
219 498 m 0
 219 419 284 361 398 361 c 0
 512 361 578 419 578 498 c 0
 578 577 512 636 398 636 c 0
 284 636 219 577 219 498 c 0
44 71 m 0
 44 169 104 253 205 303 c 1
 124 350 76 424 76 506 c 0
 76 649 208 763 398 763 c 0
 588 763 722 649 722 506 c 0
 722 424 673 350 592 303 c 1
 694 253 756 169 756 71 c 0
 756 -84 607 -209 398 -209 c 0
 189 -209 44 -84 44 71 c 0
EndSplineSet
Colour: ff8000
EndChar

StartChar: nine.subscript
Encoding: 8329 8329 360
Width: 798
VWidth: 1360
Flags: HMW
LayerCount: 4
Fore
SplineSet
583 436 m 0
 583 558 500 636 390 636 c 0
 280 636 198 558 198 436 c 0
 198 314 280 236 390 236 c 0
 500 236 583 314 583 436 c 0
606 238 m 1
 565 158 486 109 382 109 c 0
 191 109 55 248 55 436 c 0
 55 624 194 763 390 763 c 0
 522 763 624 701 674 603 c 0
 696 565 745 466 745 305 c 0
 745 -28 549 -209 307 -209 c 0
 166 -209 85 -118 85 -118 c 1
 150 -22 l 1
 150 -22 205 -82 330 -82 c 0
 458 -82 582 35 606 238 c 1
EndSplineSet
Substitution2: "'ss02' Alternative digits 6 and 9 lookups0-1" nine.ss02.subscript
Colour: ff8000
EndChar

StartChar: two.subscript
Encoding: 8322 8322 361
Width: 798
VWidth: 1120
Flags: HMW
LayerCount: 4
Fore
SplineSet
65 -185 m 1
 65 -87 76 82 394 252 c 0
 469 292 586 348 586 458 c 0
 586 568 514 627 400 627 c 0
 286 627 213 537 213 431 c 0
 213 419 213 412 214 402 c 1
 70 431 l 1
 70 623 211 754 400 754 c 0
 589 754 730 644 730 474 c 0
 730 284 561 199 402 114 c 0
 288 53 246 -3 224 -59 c 1
 735 -59 l 1
 735 -185 l 1
 65 -185 l 1
EndSplineSet
Colour: ff8000
EndChar

StartChar: three.subscript
Encoding: 8323 8323 362
Width: 798
VWidth: 1120
Flags: HMW
LayerCount: 4
Fore
SplineSet
398 361 m 2
 512 361 578 419 578 498 c 0
 578 577 512 636 398 636 c 0
 284 636 218 563 218 484 c 1
 78 513 l 1
 96 645 208 763 398 763 c 0
 588 763 722 649 722 506 c 0
 722 424 673 350 592 303 c 1
 694 253 756 169 756 71 c 0
 756 -84 607 -209 398 -209 c 0
 203 -209 63 -94 44 63 c 1
 184 94 l 1
 184 4 266 -82 398 -82 c 0
 530 -82 612 -11 612 79 c 0
 612 169 532 239 400 239 c 2
 336 239 l 1
 336 361 l 1
 398 361 l 2
EndSplineSet
Colour: ff8000
EndChar

StartChar: one.subscript
Encoding: 8321 8321 363
Width: 798
VWidth: 1360
Flags: HMW
LayerCount: 4
Fore
SplineSet
377 442 m 1
 179 442 l 1
 179 561 l 1
 229 561 l 2
 310 561 386 618 386 696 c 2
 386 740 l 1
 520 740 l 1
 520 432 520 123 520 -185 c 1
 377 -185 l 1
 377 442 l 1
EndSplineSet
Substitution2: "'ss01' Alternative digits 1 and 4 lookups0-1" one.ss01.subscript
Colour: ff8000
EndChar

StartChar: longs
Encoding: 383 383 364
Width: 692
VWidth: 997
Flags: HMW
AnchorPoint: "top_center" 390 1400 basechar 0
AnchorPoint: "bottom_center" 230 0 basechar 0
LayerCount: 4
Fore
SplineSet
320 1040 m 1
 320 1181 l 2
 320 1283 378 1340 480 1340 c 0
 523 1340 574 1324 600 1305 c 1
 644 1468 l 1
 599 1486 536 1500 480 1500 c 0
 279 1500 141 1382 141 1181 c 2
 141 1040 l 1
 141 0 l 1
 320 0 l 1
 320 1040 l 1
EndSplineSet
Colour: ff00
EndChar

StartChar: uni0180
Encoding: 384 384 365
Width: 1252
VWidth: 997
Flags: HMW
LayerCount: 4
Fore
SplineSet
670 1160 m 1
 0 1160 l 1
 0 1206 0 1273 0 1319 c 1
 670 1319 l 1
 670 1160 l 1
378 520 m 0
 378 290 496 141 676 141 c 0
 856 141 974 290 974 520 c 0
 974 750 856 900 676 900 c 0
 496 900 378 750 378 520 c 0
210 167 m 1
 210 1480 l 1
 390 1480 l 1
 390 920 l 1
 475 1005 551 1060 676 1060 c 0
 957 1060 1154 831 1154 520 c 0
 1154 209 957 -20 676 -20 c 0
 551 -20 467 35 382 120 c 1
 382 60 382 0 382 0 c 1
 210 0 l 1
 210 0 210 65 210 167 c 1
EndSplineSet
Substitution2: "'smcp' Bas-de-casse vers petites capitales lookups0-1" uni0180.sc
Colour: ff00
EndChar

StartChar: uni0181
Encoding: 385 385 366
Width: 1470
Flags: HMW
LayerCount: 4
Fore
SplineSet
196 1110 m 1
 4 1110 l 1
 1 1126 0 1143 0 1160 c 0
 0 1338 152 1480 330 1480 c 0
 345 1480 360 1479 374 1477 c 1
 374 1306 l 1
 361 1310 346 1312 330 1312 c 0
 240 1312 190 1250 190 1160 c 0
 190 1142 191 1125 196 1110 c 1
898 740 m 1
 898 908 l 17
 1023 908 1119 987 1119 1112 c 0
 1119 1237 1023 1312 898 1312 c 9
 520 1312 l 1
 520 1480 l 25
 898 1480 l 1
 1118 1480 1310 1330 1310 1110 c 0
 1310 890 1118 740 898 740 c 1
520 167 m 25
 898 167 l 17
 1064 167 1183 288 1183 454 c 0
 1183 620 1064 740 898 740 c 9
 520 740 l 25
 520 167 l 25
330 1480 m 1
 520 1480 l 25
 520 908 l 1
 898 908 l 1
 1152 908 1373 708 1373 454 c 0
 1373 200 1152 0 898 0 c 1
 330 0 l 1
 330 1480 l 1
EndSplineSet
Colour: ffff
EndChar

StartChar: uni0182
Encoding: 386 386 367
Width: 1280
Flags: HMW
LayerCount: 4
Fore
SplineSet
1068 1312 m 9
 330 1312 l 1
 330 1480 l 25
 1068 1480 l 1
 1068 1312 l 9
330 167 m 25
 707 167 l 17
 873 167 993 288 993 454 c 0
 993 620 873 740 707 740 c 9
 330 740 l 25
 330 167 l 25
141 1480 m 1
 330 1480 l 25
 330 908 l 1
 707 908 l 1
 961 908 1183 708 1183 454 c 0
 1183 200 961 0 707 0 c 1
 141 0 l 1
 141 1480 l 1
EndSplineSet
Colour: ffff
EndChar

StartChar: uni0183
Encoding: 387 387 368
Width: 1181
VWidth: 997
Flags: HMW
LayerCount: 4
Fore
SplineSet
979 1319 m 9
 320 1319 l 1
 320 1480 l 25
 979 1480 l 1
 979 1319 l 9
308 520 m 0
 308 290 426 141 606 141 c 0
 786 141 904 290 904 520 c 0
 904 750 786 900 606 900 c 0
 426 900 308 750 308 520 c 0
141 167 m 1
 141 1480 l 1
 320 1480 l 1
 320 920 l 1
 405 1005 481 1060 606 1060 c 0
 887 1060 1084 831 1084 520 c 0
 1084 209 887 -20 606 -20 c 0
 481 -20 396 35 311 120 c 1
 311 60 311 0 311 0 c 1
 141 0 l 1
 141 0 141 65 141 167 c 1
EndSplineSet
Substitution2: "'smcp' Bas-de-casse vers petites capitales lookups0-1" uni0183.sc
Colour: ff00
EndChar

StartChar: uni0184
Encoding: 388 388 369
Width: 1280
Flags: HMW
LayerCount: 4
Fore
SplineSet
330 167 m 25
 707 167 l 17
 873 167 993 288 993 454 c 0
 993 620 873 740 707 740 c 9
 330 740 l 25
 330 167 l 25
223 1480 m 1
 330 1480 l 25
 330 908 l 1
 707 908 l 1
 961 908 1183 708 1183 454 c 0
 1183 200 961 0 707 0 c 1
 141 0 l 1
 141 1160 l 1
 -50 1270 l 1
 223 1480 l 1
EndSplineSet
Colour: ffff
EndChar

StartChar: uni0185
Encoding: 389 389 370
Width: 1181
VWidth: 997
Flags: HMW
LayerCount: 4
Fore
SplineSet
308 520 m 0
 308 290 426 141 606 141 c 0
 786 141 904 290 904 520 c 0
 904 750 786 900 606 900 c 0
 426 900 308 750 308 520 c 0
320 1480 m 17
 320 920 l 1
 405 1005 481 1060 606 1060 c 0
 887 1060 1084 831 1084 520 c 0
 1084 209 887 -20 606 -20 c 0
 481 -20 396 35 311 120 c 1
 311 60 311 0 311 0 c 1
 141 0 l 1
 141 0 141 65 141 167 c 1
 141 1160 l 1
 -50 1270 l 1
 223 1480 l 1
 320 1480 l 17
EndSplineSet
Substitution2: "'smcp' Bas-de-casse vers petites capitales lookups0-1" uni0185.sc
Colour: ff00
EndChar

StartChar: uni0186
Encoding: 390 390 371
Width: 1511
Flags: HMW
LayerCount: 4
Fore
SplineSet
261 1028 m 1
 343 1215 512 1332 713 1332 c 0
 1003 1332 1225 1090 1225 740 c 0
 1225 390 1003 148 713 148 c 0
 512 148 343 265 261 452 c 1
 100 361 l 1
 218 129 445 -20 713 -20 c 0
 1108 -20 1414 301 1414 740 c 0
 1414 1179 1108 1500 713 1500 c 0
 445 1500 218 1353 100 1121 c 1
 261 1028 l 1
EndSplineSet
Colour: ffff
EndChar

StartChar: uni0187
Encoding: 391 391 372
Width: 1584
Flags: HMW
LayerCount: 4
Fore
SplineSet
1408 1130 m 1
 1216 1130 l 1
 1213 1146 1212 1164 1212 1181 c 0
 1212 1359 1364 1500 1542 1500 c 0
 1557 1500 1572 1500 1586 1498 c 1
 1586 1326 l 1
 1573 1330 1558 1332 1542 1332 c 0
 1452 1332 1402 1271 1402 1181 c 0
 1402 1163 1403 1145 1408 1130 c 1
1253 1028 m 1
 1171 1215 1002 1332 801 1332 c 0
 511 1332 290 1090 290 740 c 0
 290 390 511 148 801 148 c 0
 1002 148 1171 265 1253 452 c 1
 1414 361 l 1
 1296 129 1069 -20 801 -20 c 0
 406 -20 100 301 100 740 c 0
 100 1179 406 1500 801 1500 c 0
 1069 1500 1296 1353 1414 1121 c 1
 1253 1028 l 1
EndSplineSet
Colour: ffff
EndChar

StartChar: uni0188
Encoding: 392 392 373
Width: 1140
VWidth: 997
Flags: HMW
LayerCount: 4
Fore
SplineSet
1040 790 m 1
 858 790 l 1
 855 806 854 823 854 840 c 0
 854 1018 1006 1160 1184 1160 c 0
 1199 1160 1214 1158 1228 1156 c 1
 1228 994 l 1
 1215 998 1200 1000 1184 1000 c 0
 1094 1000 1034 930 1034 840 c 0
 1034 822 1035 805 1040 790 c 1
280 520 m 0
 280 300 407 141 598 141 c 0
 739 141 840 208 889 340 c 1
 1042 252 l 1
 960 74 797 -20 598 -20 c 0
 317 -20 100 209 100 520 c 0
 100 831 317 1060 598 1060 c 0
 797 1060 960 966 1042 788 c 1
 889 700 l 1
 840 832 739 900 598 900 c 0
 407 900 280 740 280 520 c 0
EndSplineSet
Substitution2: "'smcp' Bas-de-casse vers petites capitales lookups0-1" uni0188.sc
Colour: ff00
EndChar

StartChar: uni018A
Encoding: 394 394 375
Width: 1566
Flags: HMW
LayerCount: 4
Fore
SplineSet
196 1110 m 1
 4 1110 l 1
 1 1126 0 1143 0 1160 c 0
 0 1338 152 1480 330 1480 c 0
 345 1480 360 1479 374 1477 c 1
 374 1306 l 1
 361 1310 346 1312 330 1312 c 0
 240 1312 190 1250 190 1160 c 0
 190 1142 191 1125 196 1110 c 1
520 1312 m 25
 520 167 l 25
 802 167 l 17
 1072 167 1278 407 1278 740 c 0
 1278 1073 1072 1312 802 1312 c 9
 520 1312 l 25
802 0 m 1
 520 0 l 25
 330 0 l 1
 330 1480 l 1
 802 1480 l 1
 1182 1480 1468 1190 1468 740 c 0
 1468 290 1182 0 802 0 c 1
EndSplineSet
Colour: ffff
EndChar

StartChar: uni018B
Encoding: 395 395 376
Width: 1280
Flags: HMW
LayerCount: 4
Fore
SplineSet
214 1312 m 9
 953 1312 l 1
 953 1480 l 25
 214 1480 l 1
 214 1312 l 9
953 167 m 25
 576 167 l 17
 410 167 290 288 290 454 c 0
 290 620 410 740 576 740 c 9
 953 740 l 25
 953 167 l 25
1143 1480 m 1
 953 1480 l 25
 953 908 l 1
 576 908 l 1
 322 908 100 708 100 454 c 0
 100 200 322 0 576 0 c 1
 1143 0 l 1
 1143 1480 l 1
EndSplineSet
Colour: ffff
EndChar

StartChar: uni018C
Encoding: 396 396 377
Width: 1181
VWidth: 997
Flags: HMW
LayerCount: 4
Fore
SplineSet
205 1319 m 13
 864 1319 l 1
 864 1480 l 25
 205 1480 l 1
 205 1319 l 13
876 520 m 0
 876 290 758 141 578 141 c 0
 398 141 280 290 280 520 c 0
 280 750 398 900 578 900 c 0
 758 900 876 750 876 520 c 0
1044 167 m 1
 1044 1480 l 1
 864 1480 l 1
 864 920 l 1
 779 1005 703 1060 578 1060 c 0
 297 1060 100 831 100 520 c 0
 100 209 297 -20 578 -20 c 0
 703 -20 788 35 873 120 c 1
 873 60 888 0 888 0 c 1
 1064 0 l 1
 1064 0 1044 65 1044 167 c 1
EndSplineSet
Substitution2: "'smcp' Bas-de-casse vers petites capitales lookups0-1" uni018C.sc
Colour: ff00
EndChar

StartChar: uni018D
Encoding: 397 397 378
Width: 1193
VWidth: 997
Flags: HMW
LayerCount: 4
Fore
SplineSet
598 -20 m 0
 598 141 l 0
 899 141 1028 0 1028 -160 c 0
 1028 -320 899 -459 598 -459 c 0
 378 -459 276 -433 167 -383 c 1
 209 -229 l 1
 323 -284 438 -301 598 -301 c 0
 818 -301 848 -210 848 -160 c 0
 848 -110 818 -20 598 -20 c 0
280 520 m 0
 280 300 407 141 598 141 c 0
 789 141 917 300 917 520 c 0
 917 740 789 900 598 900 c 0
 407 900 280 740 280 520 c 0
100 520 m 0
 100 831 317 1060 598 1060 c 0
 879 1060 1097 831 1097 520 c 0
 1097 209 879 -20 598 -20 c 0
 317 -20 100 209 100 520 c 0
EndSplineSet
Colour: ff00
EndChar

StartChar: uni018E
Encoding: 398 398 379
Width: 1205
Flags: HMW
LayerCount: 4
Fore
SplineSet
234 656 m 17
 234 823 l 9
 878 823 l 17
 878 1312 l 1
 141 1312 l 1
 141 1480 l 1
 1068 1480 l 25
 1068 0 l 1
 141 0 l 17
 141 167 l 1
 878 167 l 1
 878 656 l 9
 234 656 l 17
EndSplineSet
Colour: ffff
EndChar

StartChar: uni018F
Encoding: 399 399 380
Width: 1600
Flags: HMW
LayerCount: 4
Fore
SplineSet
104 823 m 1
 102 796 100 769 100 740 c 0
 100 301 406 -20 801 -20 c 0
 1196 -20 1502 291 1502 730 c 0
 1502 1169 1196 1500 801 1500 c 0
 533 1500 282 1351 164 1119 c 1
 325 1027 l 1
 407 1214 600 1332 801 1332 c 0
 1091 1332 1312 1090 1312 740 c 0
 1312 390 1091 148 801 148 c 0
 511 148 290 390 290 740 c 0
 290 769 291 796 294 823 c 1
 104 823 l 1
1406 656 m 25
 1406 823 l 25
 198 823 l 25
 198 656 l 25
 1406 656 l 25
EndSplineSet
Colour: ffff
EndChar

StartChar: uni0190
Encoding: 400 400 381
Width: 1220
VWidth: 997
Flags: HMW
LayerCount: 4
Fore
SplineSet
612 857 m 1
 437 857 335 956 335 1094 c 0
 335 1232 437 1332 612 1332 c 0
 787 1332 892 1208 892 1070 c 0
 1078 1121 l 1
 1052 1322 887 1500 612 1500 c 0
 337 1500 145 1321 145 1098 c 0
 145 969 210 854 317 781 c 1
 182 702 100 569 100 418 c 0
 100 175 311 -20 612 -20 c 0
 893 -20 1095 158 1122 396 c 1
 935 446 l 0
 935 289 813 148 612 148 c 0
 411 148 290 265 290 422 c 0
 290 579 411 696 612 696 c 1
 683 696 707 696 707 696 c 25
 707 857 l 25
 707 857 682 857 612 857 c 1
EndSplineSet
Colour: ffff
EndChar

StartChar: uni0191
Encoding: 401 401 382
Width: 1205
Flags: HMW
LayerCount: 4
Fore
SplineSet
330 0 m 0
 330 -178 178 -320 0 -320 c 0
 -15 -320 -30 -319 -44 -317 c 1
 -44 -146 l 1
 -31 -150 -16 -151 0 -151 c 0
 90 -151 141 -90 141 0 c 0
 330 0 l 0
330 167 m 1
 330 0 l 1
 141 0 l 1
 141 1480 l 1
 1068 1480 l 17
 1068 1312 l 1
 330 1312 l 1
 330 823 l 9
 974 823 l 17
 974 656 l 9
 330 656 l 17
 330 167 l 1
EndSplineSet
Colour: ffff
EndChar

StartChar: florin
Encoding: 402 402 383
Width: 768
VWidth: 997
Flags: HMW
LayerCount: 4
Fore
SplineSet
439 0 m 0
 439 -178 288 -311 110 -311 c 0
 95 -311 80 -311 66 -309 c 1
 66 -146 l 1
 79 -150 94 -151 110 -151 c 0
 200 -151 260 -90 260 0 c 0
 439 0 l 0
720 1305 m 1
 694 1324 643 1340 600 1340 c 0
 498 1340 439 1283 439 1181 c 2
 439 1040 l 1
 720 1040 l 1
 720 880 l 1
 439 880 l 1
 439 0 l 1
 260 0 l 1
 260 880 l 1
 50 880 l 1
 50 926 50 994 50 1040 c 1
 260 1040 l 1
 260 1181 l 2
 260 1382 399 1500 600 1500 c 0
 656 1500 720 1486 765 1468 c 1
 720 1305 l 1
EndSplineSet
Substitution2: "'smcp' Bas-de-casse vers petites capitales lookups0-1" florin.sc
Colour: ff00
EndChar

StartChar: uni0193
Encoding: 403 403 384
Width: 1584
Flags: HMW
LayerCount: 4
Fore
SplineSet
1408 1130 m 1
 1216 1130 l 1
 1213 1146 1212 1164 1212 1181 c 0
 1212 1359 1364 1500 1542 1500 c 0
 1557 1500 1572 1500 1586 1498 c 1
 1586 1326 l 1
 1573 1330 1558 1332 1542 1332 c 0
 1452 1332 1402 1271 1402 1181 c 0
 1402 1163 1403 1145 1408 1130 c 1
1253 1029 m 1
 1171 1216 1002 1332 801 1332 c 0
 511 1332 290 1090 290 740 c 0
 290 390 511 148 801 148 c 0
 1002 148 1171 264 1253 451 c 1
 1414 361 l 1
 1296 129 1069 -20 801 -20 c 0
 406 -20 100 301 100 740 c 0
 100 1179 406 1500 801 1500 c 0
 1069 1500 1296 1353 1414 1121 c 1
 1253 1029 l 1
801 740 m 25
 1422 740 l 25
 1422 0 l 25
 1241 0 l 17
 1241 226 l 1
 1232 253 l 1
 1232 572 l 9
 801 572 l 25
 801 740 l 25
EndSplineSet
Colour: ffff
EndChar

StartChar: uni0194
Encoding: 404 404 385
Width: 1354
VWidth: 997
Flags: HMW
LayerCount: 4
Fore
SplineSet
977 0 m 1
 997 -42 1008 -91 1008 -141 c 0
 1008 -319 856 -459 678 -459 c 0
 500 -459 348 -319 348 -141 c 0
 348 -91 360 -42 380 0 c 1
 380 0 l 1
 580 402 l 1
 70 1480 l 1
 266 1480 l 1
 678 599 l 1
 1090 1480 l 1
 1286 1480 l 1
 776 402 l 1
 977 0 l 1
 977 0 l 1
784 0 m 1
 678 195 l 1
 582 0 l 1
 560 -45 538 -101 538 -141 c 0
 538 -231 588 -292 678 -292 c 0
 768 -292 828 -231 828 -141 c 0
 828 -101 806 -45 784 0 c 1
EndSplineSet
Colour: ffff
EndChar

StartChar: uni0195
Encoding: 405 405 386
Width: 1809
VWidth: 997
Flags: HMW
LayerCount: 4
Fore
SplineSet
1712 468 m 0
 1712 198 1544 -20 1274 -20 c 0
 1004 -20 836 118 836 468 c 1
 836 572 l 1
 836 791 758 900 578 900 c 0
 398 900 320 791 320 572 c 2
 320 0 l 1
 141 0 l 1
 141 1480 l 1
 311 1480 l 1
 311 920 l 1
 396 1005 493 1060 618 1060 c 0
 888 1060 1016 892 1016 572 c 1
 1016 468 l 2
 1016 249 1094 141 1274 141 c 0
 1454 141 1532 289 1532 468 c 0
 1532 738 1454 862 1372 971 c 1
 1524 1060 l 1
 1597 970 1712 818 1712 468 c 0
EndSplineSet
Substitution2: "'smcp' Bas-de-casse vers petites capitales lookups0-1" uni0195.sc
Colour: ff00
EndChar

StartChar: uni0196
Encoding: 406 406 387
Width: 647
VWidth: 997
Flags: HMW
LayerCount: 4
Fore
SplineSet
320 459 m 1
 320 320 l 2
 320 218 378 160 480 160 c 0
 523 160 574 176 600 195 c 1
 644 32 l 1
 599 14 536 0 480 0 c 0
 279 0 141 119 141 320 c 2
 141 459 l 1
 141 1500 l 1
 320 1500 l 1
 320 459 l 1
EndSplineSet
Colour: ffff
EndChar

StartChar: uni0197
Encoding: 407 407 388
Width: 768
Flags: HMW
LayerCount: 4
Fore
SplineSet
720 656 m 1
 50 656 l 1
 50 702 50 777 50 823 c 1
 720 823 l 1
 720 656 l 1
122 1480 m 25
 648 1480 l 29
 648 1312 l 25
 480 1312 l 25
 480 169 l 25
 648 169 l 25
 648 0 l 25
 122 0 l 25
 122 169 l 25
 290 169 l 25
 290 1312 l 25
 122 1312 l 25
 122 1480 l 25
EndSplineSet
Colour: ffff
EndChar

StartChar: uni0198
Encoding: 408 408 389
Width: 1364
Flags: HMW
LayerCount: 4
Fore
SplineSet
550 794 m 1
 678 918 l 1
 1296 0 l 1
 1082 0 l 1
 550 794 l 1
141 1181 m 1
 141 1359 292 1500 470 1500 c 0
 485 1500 500 1500 514 1498 c 1
 514 1326 l 1
 501 1330 486 1332 470 1332 c 0
 380 1332 330 1271 330 1181 c 1
 330 730 l 1
 1056 1480 l 1
 1116 1480 1236 1480 1296 1480 c 1
 330 490 l 1
 330 0 l 1
 141 0 l 1
 141 1181 l 1
EndSplineSet
Colour: ffff
EndChar

StartChar: uni0199
Encoding: 409 409 390
Width: 1056
Flags: HMW
LayerCount: 4
Fore
SplineSet
417 562 m 1
 526 702 l 1
 1024 0 l 1
 816 0 l 1
 417 562 l 1
141 1177 m 1
 141 1359 292 1500 470 1500 c 0
 485 1500 500 1500 514 1498 c 1
 514 1334 l 1
 501 1338 486 1340 470 1340 c 0
 380 1340 320 1271 320 1177 c 1
 320 572 l 1
 788 1040 l 1
 848 1040 960 1040 1020 1040 c 1
 320 340 l 1
 320 0 l 1
 141 0 l 1
 141 1177 l 1
EndSplineSet
Substitution2: "'smcp' Bas-de-casse vers petites capitales lookups0-1" uni0199.sc
Colour: ff00
EndChar

StartChar: uni019A
Encoding: 410 410 391
Width: 507
Flags: HMW
LayerCount: 4
Fore
SplineSet
570 660 m 1
 -100 660 l 1
 -100 706 -100 774 -100 820 c 1
 570 820 l 1
 570 660 l 1
462 157 m 1
 504 4 l 1
 482 -9 442 -20 410 -20 c 0
 240 -20 141 60 141 230 c 2
 141 439 l 1
 141 578 l 1
 141 1480 l 1
 320 1480 l 1
 320 578 l 1
 320 439 l 1
 320 230 l 2
 320 170 350 141 410 141 c 0
 426 141 449 151 462 157 c 1
EndSplineSet
Substitution2: "'smcp' Bas-de-casse vers petites capitales lookups0-1" uni019A.sc
Colour: ff00
EndChar

StartChar: uni019B
Encoding: 411 411 392
Width: 1172
VWidth: 997
Flags: HMW
LayerCount: 4
Fore
SplineSet
587 1278 m 5
 713 1352 l 5
 638 1480 l 5
 507 1407 l 5
 175 1212 l 5
 197 1172 227 1124 249 1084 c 5
 587 1278 l 5
629 1040 m 5
 519 1357 l 6
 481 1461 397 1502 267 1502 c 4
 235 1502 195 1493 173 1480 c 5
 215 1328 l 5
 228 1334 251 1342 267 1342 c 4
 311 1342 338 1326 351 1292 c 6
 451 1016 l 5
 70 0 l 5
 262 0 l 5
 542 773 l 5
 756 125 l 6
 794 21 878 -20 1008 -20 c 4
 1040 -20 1080 -13 1102 0 c 5
 1060 153 l 5
 1047 147 1024 139 1008 139 c 4
 964 139 937 156 924 190 c 6
 629 1040 l 5
EndSplineSet
Substitution2: "'smcp' Bas-de-casse vers petites capitales lookups0-1" uni019B.sc
Colour: ff00
EndChar

StartChar: uni019C
Encoding: 412 412 393
Width: 1719
VWidth: 997
Flags: HMW
LayerCount: 4
Fore
SplineSet
1581 167 m 1
 1581 65 1601 0 1601 0 c 1
 1419 0 l 1
 1419 0 1404 60 1404 120 c 1
 1331 33 1266 -20 1141 -20 c 0
 911 -20 765 128 765 468 c 5
 765 1500 l 1
 955 1500 l 1
 955 468 l 1
 955 249 1013 148 1173 148 c 0
 1333 148 1391 249 1391 468 c 2
 1391 1500 l 1
 1581 1500 l 1
 1581 167 l 1
910 468 m 1
 910 148 746 -20 516 -20 c 0
 286 -20 141 128 141 468 c 1
 141 1500 l 1
 330 1500 l 1
 330 468 l 1
 330 249 388 148 548 148 c 0
 708 148 765 249 765 468 c 5
 910 468 l 1
EndSplineSet
Colour: ffff
EndChar

StartChar: uni019D
Encoding: 413 413 394
Width: 1440
Flags: HMW
LayerCount: 4
Fore
SplineSet
374 0 m 0
 374 -178 222 -320 44 -320 c 0
 29 -320 14 -319 0 -317 c 1
 0 -146 l 1
 13 -150 28 -151 44 -151 c 0
 134 -151 184 -90 184 0 c 0
 374 0 l 0
374 1480 m 1
 1112 320 l 25
 1112 1480 l 1
 1302 1480 l 25
 1302 0 l 25
 1112 0 l 1
 374 1160 l 1
 374 0 l 1
 184 0 l 25
 184 1480 l 1
 374 1480 l 1
EndSplineSet
Colour: ffff
EndChar

StartChar: uni019E
Encoding: 414 414 395
Width: 1154
VWidth: 997
Flags: HMW
LayerCount: 4
Fore
SplineSet
836 -439 m 1
 836 572 l 2
 836 791 758 900 578 900 c 0
 398 900 320 791 320 572 c 2
 320 0 l 1
 141 0 l 1
 141 1040 l 1
 308 1040 l 1
 308 920 l 1
 393 1005 493 1060 618 1060 c 0
 888 1060 1016 892 1016 572 c 1
 1016 -439 l 1
 836 -439 l 1
EndSplineSet
Substitution2: "'smcp' Bas-de-casse vers petites capitales lookups0-1" uni019E.sc
Colour: ff00
EndChar

StartChar: uni019F
Encoding: 415 415 396
Width: 1600
Flags: HMW
LayerCount: 4
Fore
SplineSet
1406 656 m 25
 198 656 l 25
 198 823 l 25
 1406 823 l 25
 1406 656 l 25
290 740 m 0
 290 390 511 148 801 148 c 0
 1091 148 1312 390 1312 740 c 0
 1312 1090 1091 1332 801 1332 c 0
 511 1332 290 1090 290 740 c 0
100 740 m 0
 100 1179 406 1500 801 1500 c 0
 1196 1500 1502 1179 1502 740 c 0
 1502 301 1196 -20 801 -20 c 0
 406 -20 100 301 100 740 c 0
EndSplineSet
Colour: ffff
EndChar

StartChar: uni031B
Encoding: 795 795 399
Width: 0
Flags: HMW
AnchorPoint: "top_right" 0 1041 mark 0
LayerCount: 4
Fore
SplineSet
169 879 m 5
 163 876 157 876 149 876 c 4
 96 876 54 915 54 968 c 4
 54 1021 96 1061 149 1061 c 4
 199 1061 272 1027 272 905 c 4
 272 775 172 661 0 623 c 5
 0 735 l 5
 126 767 169 830 169 879 c 5
EndSplineSet
Colour: ffff00
EndChar

StartChar: uni01A2
Encoding: 418 418 400
Width: 1868
Flags: HMW
LayerCount: 4
Fore
SplineSet
1207 1369 m 0
 1207 1200 l 0
 1370 1200 1518 1256 1635 1351 c 1
 1539 1500 l 1
 1451 1416 1336 1369 1207 1369 c 0
1539 -439 m 1
 1728 -439 l 25
 1728 1500 l 25
 1539 1500 l 1
 1539 -439 l 1
1349 253 m 1
 1349 1227 l 5
 1159 1227 l 1
 1159 253 l 1
 1349 253 l 1
1253 452 m 1
 1171 265 1002 148 801 148 c 0
 511 148 290 390 290 740 c 0
 290 1090 511 1332 801 1332 c 0
 1002 1332 1171 1215 1253 1028 c 1
 1349 1227 l 5
 1223 1397 1025 1500 801 1500 c 0
 406 1500 100 1179 100 740 c 0
 100 301 406 -20 801 -20 c 0
 1025 -20 1223 83 1349 253 c 1
 1253 452 l 1
EndSplineSet
Colour: ffff
EndChar

StartChar: uni01A3
Encoding: 419 419 401
Width: 1494
VWidth: 997
Flags: HMW
LayerCount: 4
Fore
SplineSet
1335 969 m 1
 1175 1040 l 1
 1119 966 1037 922 937 922 c 0
 937 762 l 0
 1103 762 1245 841 1335 969 c 1
1175 -439 m 1
 1356 -439 l 25
 1356 1040 l 25
 1175 1040 l 1
 1175 -439 l 1
816 187 m 1
 996 187 l 1
 996 854 l 1
 816 854 l 1
 816 187 l 1
865 302 m 1
 811 202 717 141 598 141 c 0
 407 141 280 300 280 520 c 0
 280 740 407 900 598 900 c 0
 730 900 833 822 883 700 c 1
 996 854 l 1
 906 982 764 1060 598 1060 c 0
 317 1060 100 831 100 520 c 0
 100 209 317 -20 598 -20 c 0
 764 -20 906 59 996 187 c 1
 865 302 l 1
EndSplineSet
Substitution2: "'smcp' Bas-de-casse vers petites capitales lookups0-1" uni01A3.sc
Colour: ff00
EndChar

StartChar: uni01A4
Encoding: 420 420 402
Width: 1376
Flags: HMW
LayerCount: 4
Fore
SplineSet
196 1110 m 1
 4 1110 l 1
 1 1126 0 1143 0 1160 c 0
 0 1338 152 1480 330 1480 c 0
 345 1480 360 1479 374 1477 c 1
 374 1306 l 1
 361 1310 346 1312 330 1312 c 0
 240 1312 190 1250 190 1160 c 0
 190 1142 191 1125 196 1110 c 1
520 1312 m 25
 520 740 l 25
 802 740 l 17
 968 740 1088 860 1088 1026 c 0
 1088 1192 968 1312 802 1312 c 9
 520 1312 l 25
330 0 m 1
 330 1480 l 1
 802 1480 l 1
 1056 1480 1278 1280 1278 1026 c 0
 1278 772 1056 572 802 572 c 1
 520 572 l 1
 520 0 l 25
 330 0 l 1
EndSplineSet
Colour: ffff
EndChar

StartChar: uni01A5
Encoding: 421 421 403
Width: 1181
VWidth: 997
Flags: HMW
LayerCount: 4
Fore
SplineSet
308 520 m 0
 308 290 426 141 606 141 c 0
 786 141 904 290 904 520 c 0
 904 750 786 900 606 900 c 0
 426 900 308 750 308 520 c 0
141 1177 m 1
 141 1359 292 1500 470 1500 c 0
 485 1500 500 1500 514 1498 c 1
 514 1334 l 1
 501 1338 486 1340 470 1340 c 0
 380 1340 320 1271 320 1177 c 1
 320 1177 320 980 320 920 c 1
 405 1005 481 1060 606 1060 c 0
 887 1060 1084 831 1084 520 c 0
 1084 209 887 -20 606 -20 c 0
 481 -20 405 35 320 120 c 1
 320 -439 l 1
 141 -439 l 1
 141 873 l 1
 141 975 141 1177 141 1177 c 1
EndSplineSet
Substitution2: "'smcp' Bas-de-casse vers petites capitales lookups0-1" uni01A5.sc
Colour: ff00
EndChar

StartChar: uni01A6
Encoding: 422 422 404
Width: 1186
Flags: HMW
LayerCount: 4
Fore
SplineSet
499 449 m 1
 630 572 l 1
 1128 -167 l 1
 914 -167 l 1
 499 449 l 1
330 1144 m 25
 330 572 l 25
 612 572 l 17
 778 572 898 692 898 858 c 0
 898 1024 778 1144 612 1144 c 9
 330 1144 l 25
141 0 m 1
 141 1193 l 1
 141 1480 l 1
 330 1480 l 1
 330 1312 l 1
 612 1312 l 1
 866 1312 1088 1112 1088 858 c 0
 1088 604 866 405 612 405 c 1
 330 405 l 1
 330 0 l 25
 141 0 l 1
EndSplineSet
Colour: ffff
EndChar

StartChar: uni01A7
Encoding: 423 423 405
Width: 1217
VWidth: 997
Flags: HMW
AnchorPoint: "bottom_center" 610 0 basechar 0
AnchorPoint: "top_center" 610 1400 basechar 0
LayerCount: 4
Fore
SplineSet
610 1332 m 0
 820 1332 905 1214 905 1086 c 0
 905 958 817 890 610 837 c 0
 317 763 100 648 100 394 c 0
 100 140 304 -20 610 -20 c 0
 891 -20 1092 158 1119 396 c 1
 933 446 l 0
 933 289 811 148 610 148 c 0
 390 148 286 253 286 394 c 0
 286 535 402 599 610 653 c 0
 904 728 1095 846 1095 1086 c 0
 1095 1326 901 1500 610 1500 c 0
 329 1500 153 1322 126 1084 c 5
 313 1034 l 4
 313 1191 409 1332 610 1332 c 0
EndSplineSet
Colour: ffff
EndChar

StartChar: uni01A8
Encoding: 424 424 406
Width: 1030
VWidth: 997
Flags: HMW
LayerCount: 4
Fore
SplineSet
720 755 m 0
 720 674 652 651 499 613 c 0
 276 557 100 474 100 286 c 0
 100 98 269 -20 499 -20 c 0
 729 -20 883 63 933 252 c 1
 779 340 l 1
 754 199 640 141 499 141 c 0
 323 141 280 205 280 286 c 0
 280 367 346 391 499 431 c 0
 722 489 900 567 900 755 c 0
 900 942 729 1060 499 1060 c 0
 269 1060 169 957 107 788 c 1
 261 700 l 1
 297 799 341 900 499 900 c 0
 675 900 720 836 720 755 c 0
EndSplineSet
Substitution2: "'smcp' Bas-de-casse vers petites capitales lookups0-1" uni01A8.sc
Colour: ff00
EndChar

StartChar: uni01A9
Encoding: 425 425 407
Width: 1205
Flags: HMW
LayerCount: 4
Fore
SplineSet
782 740 m 1
 352 167 l 1
 1068 167 l 1
 1068 0 l 1
 141 0 l 17
 141 167 l 1
 571 740 l 1
 141 1312 l 1
 141 1480 l 1
 1068 1480 l 17
 1068 1312 l 1
 352 1312 l 1
 782 740 l 1
EndSplineSet
Colour: ffff
EndChar

StartChar: uni01AA
Encoding: 426 426 408
Width: 916
VWidth: 997
Flags: HMW
LayerCount: 4
Fore
SplineSet
100 1266 m 0
 100 1408 220 1500 350 1500 c 0
 480 1500 599 1408 599 1266 c 0
 599 1124 480 1032 350 1032 c 0
 220 1032 100 1124 100 1266 c 0
290 1266 m 0
 290 1230 314 1200 350 1200 c 0
 386 1200 410 1230 410 1266 c 0
 410 1302 386 1332 350 1332 c 0
 314 1332 290 1302 290 1266 c 0
599 1270 m 1
 599 308 l 2
 599 206 647 148 749 148 c 0
 792 148 843 164 869 183 c 1
 914 13 l 1
 869 -5 805 -20 749 -20 c 0
 548 -20 409 109 409 308 c 2
 409 1270 l 1
 599 1270 l 1
EndSplineSet
Colour: ffff
EndChar

StartChar: uni01AB
Encoding: 427 427 409
Width: 768
VWidth: 997
Flags: HMW
LayerCount: 4
Fore
SplineSet
690 0 m 1
 690 -182 539 -323 361 -323 c 0
 346 -323 330 -322 316 -320 c 1
 316 -158 l 1
 329 -162 345 -163 361 -163 c 0
 451 -163 510 -94 510 0 c 1
 690 0 l 1
122 1028 m 17
 212 1028 272 1092 272 1182 c 9
 272 1319 l 1
 439 1319 l 1
 439 1040 l 1
 720 1040 l 1
 720 880 l 1
 439 880 l 1
 439 301 l 2
 439 199 498 141 600 141 c 0
 643 141 694 156 720 175 c 1
 765 13 l 1
 720 -5 656 -20 600 -20 c 0
 399 -20 260 102 260 301 c 2
 260 880 l 1
 50 880 l 1
 50 926 50 982 50 1028 c 1
 122 1028 l 17
EndSplineSet
Substitution2: "'smcp' Bas-de-casse vers petites capitales lookups0-1" uni01AB.sc
Colour: ff00
EndChar

StartChar: uni01AC
Encoding: 428 428 410
Width: 1396
Flags: HMW
LayerCount: 4
Fore
SplineSet
330 1312 m 0
 240 1312 190 1250 190 1160 c 0
 190 1142 191 1125 196 1110 c 1
 4 1110 l 1
 1 1126 0 1143 0 1160 c 0
 0 1338 152 1480 330 1480 c 0
 330 1312 l 0
794 0 m 25
 603 0 l 25
 603 1312 l 25
 330 1312 l 25
 330 1480 l 25
 1258 1480 l 25
 1258 1312 l 25
 794 1312 l 25
 794 0 l 25
EndSplineSet
Colour: ffff
EndChar

StartChar: uni01AE
Encoding: 430 430 411
Width: 1396
Flags: HMW
LayerCount: 4
Fore
SplineSet
603 0 m 0
 603 -178 756 -320 934 -320 c 0
 949 -320 964 -319 978 -317 c 1
 978 -146 l 1
 965 -150 950 -151 934 -151 c 0
 844 -151 794 -90 794 0 c 0
 603 0 l 0
794 0 m 25
 603 0 l 25
 603 1312 l 25
 141 1312 l 25
 141 1480 l 25
 1258 1480 l 25
 1258 1312 l 25
 794 1312 l 25
 794 0 l 25
EndSplineSet
Colour: ffff
EndChar

StartChar: uni01AD
Encoding: 429 429 412
Width: 768
VWidth: 997
Flags: HMW
LayerCount: 4
Fore
SplineSet
272 1319 m 1
 272 1182 l 1
 272 1092 212 1028 122 1028 c 9
 50 1028 l 1
 50 982 50 926 50 880 c 1
 260 880 l 1
 260 301 l 2
 260 102 399 -20 600 -20 c 0
 656 -20 720 -5 765 13 c 1
 720 175 l 1
 694 156 643 141 600 141 c 0
 498 141 439 199 439 301 c 2
 439 880 l 1
 720 880 l 1
 720 1040 l 1
 439 1040 l 1
 439 1319 l 1
 439 1413 501 1493 591 1493 c 0
 607 1493 622 1491 635 1487 c 1
 635 1650 l 1
 621 1652 606 1653 591 1653 c 0
 413 1653 272 1501 272 1319 c 1
EndSplineSet
Substitution2: "'smcp' Bas-de-casse vers petites capitales lookups0-1" uni01AD.sc
Colour: ff00
EndChar

StartChar: uni01B1
Encoding: 433 433 415
Width: 1600
Flags: HMW
LayerCount: 4
Fore
SplineSet
942 1480 m 1
 1502 1480 l 1
 1502 1312 l 1
 942 1312 l 1
 942 1480 l 1
100 1480 m 1
 661 1480 l 1
 661 1312 l 1
 100 1312 l 1
 100 1480 l 1
942 1312 m 1
 1263 1312 l 1
 1405 1176 1502 974 1502 740 c 0
 1502 301 1196 -20 801 -20 c 0
 801 148 l 0
 1091 148 1312 390 1312 740 c 0
 1312 1031 1160 1247 942 1312 c 1
661 1312 m 1
 443 1247 290 1031 290 740 c 0
 290 390 511 148 801 148 c 0
 801 -20 l 0
 406 -20 100 301 100 740 c 0
 100 974 197 1176 339 1312 c 1
 661 1312 l 1
EndSplineSet
Colour: ffff
EndChar

StartChar: uni01B2
Encoding: 434 434 416
Width: 1396
Flags: HMW
LayerCount: 4
Fore
SplineSet
1068 1181 m 9
 1068 600 l 1
 1068 350 949 148 699 148 c 0
 449 148 330 350 330 600 c 9
 330 1480 l 25
 141 1480 l 25
 141 600 l 17
 141 239 338 -20 699 -20 c 0
 1060 -20 1258 239 1258 600 c 1
 1258 1181 l 17
 1258 1359 1105 1500 927 1500 c 0
 912 1500 897 1500 883 1498 c 1
 883 1326 l 1
 896 1330 911 1332 927 1332 c 0
 1017 1332 1068 1271 1068 1181 c 9
EndSplineSet
Colour: ffff
EndChar

StartChar: uni01B3
Encoding: 435 435 417
Width: 1488
VWidth: 997
Flags: HMW
LayerCount: 4
Fore
SplineSet
1014 1344 m 0
 1073 1446 1172 1500 1282 1500 c 0
 1339 1500 1396 1485 1449 1455 c 0
 1462 1449 1473 1440 1486 1431 c 1
 1401 1283 l 1
 1391 1293 1380 1302 1366 1310 c 0
 1341 1325 1316 1331 1292 1331 c 0
 1243 1331 1198 1302 1168 1248 c 0
 1014 1344 l 0
601 0 m 1
 601 740 l 1
 791 740 l 1
 791 0 l 1
 601 0 l 1
755 628 m 1
 621 666 l 1
 70 1480 l 1
 284 1480 l 1
 696 858 l 1
 1014 1344 l 1
 1168 1248 l 1
 755 628 l 1
EndSplineSet
Colour: ffff
EndChar

StartChar: uni01B4
Encoding: 436 436 418
Width: 1187
VWidth: 997
Flags: HMW
LayerCount: 4
Fore
SplineSet
746 822 m 1
 784 968 913 1060 1056 1060 c 0
 1085 1060 1113 1057 1142 1049 c 0
 1156 1045 1171 1040 1184 1034 c 1
 1142 877 l 1
 1129 883 1117 890 1102 894 c 0
 1088 898 1073 900 1060 900 c 0
 991 900 934 850 914 775 c 1
 746 822 l 1
552 -254 m 1
 507 -384 392 -459 234 -459 c 0
 178 -459 115 -446 70 -428 c 1
 115 -265 l 1
 141 -284 191 -301 234 -301 c 0
 312 -301 364 -267 386 -206 c 1
 458 0 l 1
 94 1040 l 1
 282 1040 l 1
 550 224 l 1
 746 822 l 1
 914 775 l 1
 642 0 l 1
 552 -254 l 1
EndSplineSet
Substitution2: "'smcp' Bas-de-casse vers petites capitales lookups0-1" uni01B4.sc
Colour: ff00
EndChar

StartChar: uni01B5
Encoding: 437 437 419
Width: 1305
VWidth: 997
Flags: HMW
LayerCount: 4
Fore
SplineSet
999 656 m 1
 329 656 l 1
 329 702 329 777 329 823 c 1
 999 823 l 1
 999 656 l 1
242 0 m 1
 141 151 l 1
 1066 1480 l 1
 1168 1328 l 1
 242 0 l 1
325 167 m 1
 1160 167 l 1
 1160 0 l 1
 790 0 511 0 141 0 c 1
 141 151 l 1
 325 167 l 1
951 1312 m 1
 160 1312 l 1
 160 1480 l 1
 530 1480 798 1480 1168 1480 c 1
 1168 1328 l 1
 951 1312 l 1
EndSplineSet
Colour: ffff
EndChar

StartChar: uni01B6
Encoding: 438 438 420
Width: 1024
Flags: HMW
LayerCount: 4
Fore
SplineSet
141 1040 m 1
 141 880 l 1
 679 880 l 1
 883 896 l 1
 883 1040 l 1
 141 1040 l 1
880 160 m 1
 345 160 l 1
 141 144 l 1
 141 0 l 1
 880 0 l 1
 880 160 l 1
345 160 m 1
 883 896 l 1
 679 880 l 1
 141 144 l 1
 345 160 l 1
177 439 m 1
 847 439 l 1
 847 600 l 1
 177 600 l 1
 177 554 177 485 177 439 c 1
EndSplineSet
Substitution2: "'smcp' Bas-de-casse vers petites capitales lookups0-1" uni01B6.sc
Colour: ff00
EndChar

StartChar: uni01B7
Encoding: 439 439 421
Width: 1220
VWidth: 997
Flags: HMW
LayerCount: 4
Fore
SplineSet
1078 1328 m 1
 640 740 l 1
 515 840 l 1
 863 1312 l 1
 1078 1328 l 1
1122 422 m 0
 1122 179 911 -20 610 -20 c 0
 329 -20 127 158 100 396 c 1
 286 446 l 0
 286 289 409 148 610 148 c 0
 811 148 933 265 933 422 c 0
 933 579 811 696 610 696 c 1
 539 696 515 696 515 696 c 25
 515 840 l 25
 515 840 540 857 610 857 c 1
 893 857 1122 662 1122 422 c 0
172 1480 m 1
 1078 1480 l 1
 1078 1328 l 1
 863 1312 l 1
 172 1312 l 1
 172 1480 l 1
EndSplineSet
Colour: ffff
EndChar

StartChar: uni01B8
Encoding: 440 440 422
Width: 1220
VWidth: 997
Flags: HMW
LayerCount: 4
Fore
SplineSet
145 1328 m 1
 582 740 l 1
 707 840 l 1
 359 1312 l 1
 145 1328 l 1
100 422 m 0
 100 179 311 -20 612 -20 c 0
 893 -20 1095 158 1122 396 c 1
 935 446 l 0
 935 289 813 148 612 148 c 0
 411 148 290 265 290 422 c 0
 290 579 411 696 612 696 c 1
 683 696 707 696 707 696 c 25
 707 840 l 25
 707 840 682 857 612 857 c 1
 329 857 100 662 100 422 c 0
1050 1480 m 1
 145 1480 l 1
 145 1328 l 1
 359 1312 l 1
 1050 1312 l 1
 1050 1480 l 1
EndSplineSet
Colour: ffff
EndChar

StartChar: uni01B9
Encoding: 441 441 423
Width: 1220
VWidth: 997
Flags: HMW
LayerCount: 4
Fore
SplineSet
145 888 m 1
 582 301 l 1
 707 400 l 1
 359 873 l 1
 145 888 l 1
100 -18 m 0
 100 -261 311 -459 612 -459 c 0
 893 -459 1095 -282 1122 -44 c 1
 935 6 l 0
 935 -151 813 -292 612 -292 c 0
 411 -292 290 -175 290 -18 c 0
 290 139 411 257 612 257 c 1
 683 257 707 257 707 257 c 25
 707 400 l 25
 707 400 682 415 612 415 c 1
 329 415 100 222 100 -18 c 0
1050 1040 m 1
 145 1040 l 1
 145 888 l 1
 359 873 l 1
 1050 873 l 1
 1050 1040 l 1
EndSplineSet
Colour: ffff
EndChar

StartChar: uni01BA
Encoding: 442 442 424
Width: 1193
VWidth: 997
Flags: HMW
LayerCount: 4
Fore
SplineSet
598 -106 m 0
 378 -106 280 -151 280 -211 c 0
 280 -271 378 -310 598 -310 c 0
 758 -310 872 -294 986 -239 c 1
 1028 -393 l 1
 919 -443 818 -470 598 -470 c 0
 297 -470 100 -412 100 -211 c 0
 100 -10 297 54 598 54 c 0
 818 54 917 90 917 150 c 0
 917 210 818 257 598 257 c 0
 515 257 l 25
 515 400 l 1
 598 415 l 0
 899 415 1097 351 1097 150 c 0
 1097 -51 899 -106 598 -106 c 0
1078 896 m 1
 630 301 l 1
 515 400 l 1
 874 880 l 1
 1078 896 l 1
172 1040 m 1
 1078 1040 l 1
 1078 896 l 1
 874 880 l 1
 172 880 l 1
 172 1040 l 1
EndSplineSet
Colour: ff00
EndChar

StartChar: uni01BB
Encoding: 443 443 425
Width: 1230
VWidth: 997
Flags: HMW
LayerCount: 4
Fore
SplineSet
1112 492 m 1
 124 492 l 1
 124 538 124 614 124 660 c 1
 1112 660 l 1
 1112 492 l 1
321 949 m 1
 128 1000 l 0
 128 1301 336 1500 616 1500 c 0
 896 1500 1104 1320 1104 1040 c 0
 914 1040 l 0
 914 1220 796 1332 616 1332 c 0
 436 1332 318 1180 318 1000 c 0
 318 982 319 966 321 949 c 1
120 0 m 1
 120 160 131 389 616 669 c 0
 773 759 914 860 914 1040 c 1
 1104 1040 l 1
 1104 749 858 609 616 468 c 0
 313 293 310 90 310 0 c 1
 254 0 176 0 120 0 c 1
211 167 m 1
 1112 167 l 1
 1112 0 l 1
 210 0 l 1
 211 167 l 1
EndSplineSet
Colour: ffff
EndChar

StartChar: uni01BC
Encoding: 444 444 426
Width: 1289
VWidth: 997
Flags: HMW
LayerCount: 4
Fore
SplineSet
382 669 m 5
 330 793 l 5
 404 899 498 986 678 986 c 4
 959 986 1190 774 1190 483 c 4
 1190 192 959 -20 678 -20 c 4
 397 -20 194 158 167 396 c 5
 354 446 l 4
 354 289 477 148 678 148 c 4
 857 148 1002 279 1002 483 c 4
 1002 687 856 818 678 818 c 4
 521 818 438 764 382 669 c 5
203 720 m 5
 308 1480 l 5
 365 1480 431 1480 488 1480 c 5
 382 669 l 5
 203 720 l 5
70 1312 m 1
 70 1480 l 1
 1115 1480 l 1
 1115 1312 l 1
 70 1312 l 1
EndSplineSet
Colour: ffff
EndChar

StartChar: uni01BD
Encoding: 445 445 427
Width: 1054
Flags: HMW
LayerCount: 4
Fore
SplineSet
348 454 m 1
 321 624 l 1
 368 678 441 708 556 708 c 0
 761 708 956 555 956 346 c 0
 956 137 758 -14 550 -14 c 0
 327 -14 167 117 145 294 c 1
 322 325 l 0
 322 231 409 145 550 145 c 0
 676 145 776 223 776 346 c 0
 776 469 675 550 550 550 c 0
 446 550 397 527 348 454 c 1
182 486 m 1
 270 1040 l 1
 313 1040 388 1040 431 1040 c 1
 348 454 l 1
 182 486 l 1
70 881 m 1
 70 1040 l 1
 888 1040 l 1
 888 881 l 1
 70 881 l 1
EndSplineSet
Substitution2: "'smcp' Bas-de-casse vers petites capitales lookups0-1" uni01BD.sc
Colour: ff00
EndChar

StartChar: uni01BE
Encoding: 446 446 428
Width: 1158
VWidth: 997
Flags: HMW
LayerCount: 4
Fore
SplineSet
439 880 m 9
 439 755 l 0
 439 674 507 651 660 613 c 0
 883 557 1060 474 1060 286 c 0
 1060 98 890 -20 660 -20 c 0
 430 -20 278 63 228 252 c 1
 381 340 l 1
 406 199 519 141 660 141 c 0
 836 141 880 205 880 286 c 0
 880 367 813 391 660 431 c 0
 437 489 260 567 260 755 c 0
 260 880 l 17
 50 880 l 1
 50 926 50 982 50 1028 c 1
 122 1028 l 17
 212 1028 272 1092 272 1182 c 9
 272 1319 l 1
 439 1319 l 1
 439 1040 l 1
 720 1040 l 1
 720 880 l 1
 439 880 l 9
EndSplineSet
Colour: ff00
EndChar

StartChar: uni01BF
Encoding: 447 447 429
Width: 1154
VWidth: 997
Flags: HMW
LayerCount: 4
Fore
SplineSet
836 572 m 0
 836 791 780 900 578 900 c 0
 398 900 320 791 320 572 c 2
 320 -439 l 1
 141 -439 l 1
 141 1040 l 1
 308 1040 l 1
 308 920 l 1
 393 1005 493 1060 618 1060 c 0
 888 1060 1016 892 1016 572 c 0
 1016 252 700 -167 141 -167 c 1
 141 0 l 1
 621 0 836 353 836 572 c 0
EndSplineSet
Substitution2: "'smcp' Bas-de-casse vers petites capitales lookups0-1" uni01BF.sc
Colour: ff00
EndChar

StartChar: uni01C0
Encoding: 448 448 430
Width: 458
Flags: HMW
LayerCount: 4
Fore
SplineSet
320 1480 m 25
 320 0 l 25
 141 0 l 1
 141 1480 l 1
 320 1480 l 25
EndSplineSet
Colour: ff00
EndChar

StartChar: uni01C1
Encoding: 449 449 431
Width: 819
Flags: HMW
LayerCount: 4
Fore
SplineSet
679 1480 m 25
 679 0 l 25
 499 0 l 1
 499 1480 l 1
 679 1480 l 25
320 1480 m 25
 320 0 l 25
 141 0 l 1
 141 1480 l 1
 320 1480 l 25
EndSplineSet
Colour: ff00
EndChar

StartChar: uni01C2
Encoding: 450 450 432
Width: 1205
Flags: HMW
LayerCount: 4
Fore
SplineSet
141 840 m 1
 141 1000 l 1
 1068 1000 l 17
 1068 840 l 1
 141 840 l 1
141 480 m 1
 141 640 l 1
 1068 640 l 17
 1068 480 l 1
 141 480 l 1
694 1480 m 25
 694 0 l 25
 514 0 l 1
 514 1480 l 1
 694 1480 l 25
EndSplineSet
Colour: ff00
EndChar

StartChar: uni01C3
Encoding: 451 451 433
Width: 529
Flags: HMW
LayerCount: 4
Fore
SplineSet
141 106 m 0
 141 179 192 236 265 236 c 0
 338 236 392 179 392 106 c 0
 392 33 338 -20 265 -20 c 0
 192 -20 141 33 141 106 c 0
159 1480 m 1
 371 1480 l 1
 354 452 l 1
 175 452 l 1
 159 1480 l 1
EndSplineSet
Colour: ff00
EndChar

StartChar: uni01DD
Encoding: 477 477 451
Width: 1193
VWidth: 997
Flags: HMW
LayerCount: 4
Fore
SplineSet
1022 439 m 1
 217 439 l 1
 217 600 l 1
 1022 600 l 1
 1022 439 l 1
286 700 m 1
 132 788 l 1
 214 966 399 1060 598 1060 c 0
 879 1060 1097 831 1097 520 c 0
 1097 209 879 -20 598 -20 c 0
 317 -20 100 209 100 520 c 0
 100 547 102 574 105 600 c 1
 286 600 l 1
 282 574 280 548 280 520 c 0
 280 300 407 141 598 141 c 0
 789 141 917 300 917 520 c 0
 917 740 789 900 598 900 c 0
 457 900 335 832 286 700 c 1
EndSplineSet
Substitution2: "'smcp' Bas-de-casse vers petites capitales lookups0-1" uni01DD.sc
Colour: ff00
EndChar

StartChar: uni01E4
Encoding: 484 484 457
Width: 1629
Flags: HMW
LayerCount: 4
Fore
SplineSet
1633 236 m 1
 950 236 l 1
 950 282 950 359 950 405 c 1
 1633 405 l 1
 1633 236 l 1
1253 1029 m 1
 1171 1216 1002 1332 801 1332 c 0
 511 1332 290 1090 290 740 c 0
 290 390 511 148 801 148 c 0
 1002 148 1171 264 1253 451 c 1
 1414 361 l 1
 1296 129 1069 -20 801 -20 c 0
 406 -20 100 301 100 740 c 0
 100 1179 406 1500 801 1500 c 0
 1069 1500 1296 1353 1414 1121 c 1
 1253 1029 l 1
801 740 m 25
 1422 740 l 25
 1422 0 l 25
 1241 0 l 17
 1241 226 l 1
 1232 253 l 1
 1232 572 l 9
 801 572 l 25
 801 740 l 25
EndSplineSet
Colour: ffff
EndChar

StartChar: uni01E5
Encoding: 485 485 458
Width: 1243
VWidth: 997
Flags: HMW
AnchorPoint: "top_center" 520 1040 basechar 0
AnchorPoint: "bottom_center" 520 -361 basechar 0
LayerCount: 4
Fore
SplineSet
571 941 m 1
 656 1026 736 1081 861 1081 c 0
 929 1081 985 1071 1035 1049 c 1
 987 870 l 1
 944 904 892 921 821 921 c 0
 765 921 739 910 702 889 c 1
 571 941 l 1
50 -165 m 0
 50 36 260 80 520 80 c 0
 520 15 l 0
 272 15 230 -90 230 -165 c 0
 50 -165 l 0
520 160 m 0
 520 0 l 0
 280 0 141 80 141 210 c 0
 141 370 380 420 520 420 c 0
 520 300 l 0
 362 300 320 260 320 220 c 0
 320 180 412 160 520 160 c 0
520 160 m 0
 841 160 1035 60 1035 -120 c 0
 1035 -300 881 -460 520 -460 c 0
 159 -460 50 -325 50 -165 c 0
 230 -165 l 0
 230 -240 272 -300 520 -300 c 0
 768 -300 855 -230 855 -130 c 0
 855 -50 718 0 520 0 c 0
 520 160 l 0
320 680 m 0
 320 560 400 460 520 460 c 0
 640 460 720 560 720 680 c 0
 720 800 640 900 520 900 c 0
 400 900 320 800 320 680 c 0
140 680 m 0
 140 899 301 1060 520 1060 c 0
 739 1060 900 899 900 680 c 0
 900 461 739 300 520 300 c 0
 301 300 140 461 140 680 c 0
573 -226 m 5
 573 -180 573 -112 573 -66 c 5
 1243 -66 l 5
 1243 -226 l 5
 573 -226 l 5
EndSplineSet
Substitution2: "'smcp' Bas-de-casse vers petites capitales lookups0-1" uni01E5.sc
Substitution2: "'ss04' Simplified a and g lookups0-1" uni01E5.ss04
Colour: ff00
EndChar

StartChar: uni0292
Encoding: 658 658 472
Width: 1220
VWidth: 997
Flags: HMW
LayerCount: 4
Fore
SplineSet
1078 888 m 1
 640 301 l 1
 515 400 l 1
 863 873 l 1
 1078 888 l 1
1122 -18 m 0
 1122 -261 911 -459 610 -459 c 0
 329 -459 127 -282 100 -44 c 1
 286 6 l 0
 286 -151 409 -292 610 -292 c 0
 811 -292 933 -175 933 -18 c 0
 933 139 811 257 610 257 c 1
 539 257 515 257 515 257 c 25
 515 400 l 25
 515 400 540 415 610 415 c 1
 893 415 1122 222 1122 -18 c 0
172 1040 m 1
 1078 1040 l 1
 1078 888 l 1
 863 873 l 1
 172 873 l 1
 172 1040 l 1
EndSplineSet
Colour: ffff
EndChar

StartChar: uni01F7
Encoding: 503 503 497
Width: 1356
VWidth: 997
Flags: HMW
LayerCount: 4
Fore
SplineSet
1062 880 m 0
 1062 1099 976 1332 696 1332 c 0
 516 1332 330 1104 330 874 c 2
 330 -439 l 1
 141 -439 l 1
 141 1480 l 1
 318 1480 l 1
 318 1310 l 1
 495 1487 611 1500 736 1500 c 0
 1066 1500 1252 1260 1252 880 c 0
 1252 381 700 2 141 2 c 1
 141 178 l 1
 621 178 1062 519 1062 880 c 0
EndSplineSet
Colour: ffff
EndChar

StartChar: uni01F6
Encoding: 502 502 498
Width: 2101
Flags: HMW
LayerCount: 4
Fore
SplineSet
1964 1040 m 1
 1964 468 l 1
 1964 118 1786 -20 1516 -20 c 0
 1246 -20 1068 118 1068 468 c 1
 1068 1040 l 1
 1258 1040 l 1
 1258 468 l 2
 1258 249 1336 148 1516 148 c 0
 1696 148 1774 249 1774 468 c 2
 1774 1040 l 1
 1964 1040 l 1
141 1480 m 25
 330 1480 l 25
 330 823 l 25
 1068 823 l 25
 1068 1480 l 25
 1258 1480 l 1
 1258 530 l 25
 1068 530 l 25
 1068 656 l 1
 330 656 l 25
 330 0 l 25
 141 0 l 25
 141 1480 l 25
EndSplineSet
Colour: ffff
EndChar

StartChar: uni030F
Encoding: 783 783 499
Width: 0
VWidth: 997
Flags: HMW
AnchorPoint: "top_center" 642 1040 mark 0
LayerCount: 4
Fore
SplineSet
401 1225 m 1
 578 1225 l 1
 401 1480 l 1
 175 1480 l 1
 401 1225 l 1
805 1225 m 1
 983 1225 l 1
 805 1480 l 1
 578 1480 l 1
 805 1225 l 1
EndSplineSet
Colour: ffff00
EndChar

StartChar: uni0311
Encoding: 785 785 512
Width: 0
VWidth: 997
Flags: HMW
AnchorPoint: "top_center" 642 1040 mark 0
LayerCount: 4
Fore
SplineSet
642 1490 m 0
 492 1490 362 1366 362 1225 c 1
 522 1225 l 1
 522 1291 576 1350 642 1350 c 0
 708 1350 762 1291 762 1225 c 1
 922 1225 l 1
 922 1366 792 1490 642 1490 c 0
EndSplineSet
Colour: ffff00
EndChar

StartChar: uni0326
Encoding: 806 806 529
Width: 0
Flags: HMW
AnchorPoint: "bottom_center" 459 0 mark 0
LayerCount: 4
Fore
SplineSet
361 -226 m 0
 361 -168 401 -122 459 -122 c 0
 515 -122 561 -168 561 -226 c 0
 561 -284 517 -327 459 -327 c 0
 401 -327 361 -284 361 -226 c 0
371 -439 m 1
 417 -429 490 -391 490 -294 c 0
 490 -272 462 -226 462 -226 c 1
 459 -122 l 1
 515 -122 590 -158 590 -294 c 0
 590 -438 458 -516 396 -532 c 1
 371 -439 l 1
EndSplineSet
Colour: ffbf00
EndChar

StartChar: uni021C
Encoding: 540 540 530
Width: 1187
VWidth: 997
Flags: HMW
LayerCount: 4
Fore
SplineSet
697 548 m 1
 835 520 909 412 909 278 c 0
 909 56 693 -272 234 -272 c 0
 234 -439 l 0
 754 -439 1099 -72 1099 278 c 0
 1099 476 985 623 819 688 c 1
 697 548 l 1
572 1332 m 0
 761 1332 864 1212 864 1054 c 0
 864 832 693 504 234 504 c 0
 234 336 l 0
 754 336 1054 704 1054 1054 c 0
 1054 1324 842 1500 572 1500 c 0
 302 1500 90 1302 90 1032 c 0
 286 978 l 1
 283 995 280 1013 280 1032 c 0
 280 1190 382 1332 572 1332 c 0
EndSplineSet
Colour: ffff
EndChar

StartChar: uni021D
Encoding: 541 541 531
Width: 936
Flags: HMW
LayerCount: 4
Fore
SplineSet
536 349 m 1
 640 329 696 253 696 159 c 0
 696 2 491 -280 153 -280 c 0
 153 -439 l 0
 560 -439 876 -116 876 141 c 0
 876 286 799 424 648 471 c 1
 536 349 l 1
448 914 m 0
 580 914 653 836 653 733 c 0
 653 588 483 320 153 320 c 0
 153 160 l 0
 555 160 833 486 833 745 c 0
 833 944 665 1074 448 1074 c 0
 231 1074 63 925 63 723 c 0
 247 684 l 1
 245 696 243 706 243 719 c 0
 243 822 316 914 448 914 c 0
EndSplineSet
Substitution2: "'smcp' Bas-de-casse vers petites capitales lookups0-1" uni021D.sc
Colour: ff00
EndChar

StartChar: uni0220
Encoding: 544 544 532
Width: 1389
VWidth: 997
Flags: HMW
LayerCount: 4
Fore
SplineSet
1252 880 m 0
 1252 1260 1066 1500 736 1500 c 0
 611 1500 495 1487 318 1310 c 1
 318 1480 l 1
 141 1480 l 1
 141 0 l 1
 330 0 l 1
 330 880 l 2
 330 1110 416 1332 696 1332 c 0
 976 1332 1062 1110 1062 880 c 0
 1062 -439 l 25
 1252 -439 l 25
 1252 880 l 0
EndSplineSet
Colour: ffff
EndChar

StartChar: uni0221
Encoding: 545 545 533
Width: 1341
VWidth: 997
Flags: HMW
LayerCount: 4
Fore
SplineSet
864 -147 m 0
 864 -5 974 79 1104 79 c 0
 1234 79 1344 -5 1344 -147 c 0
 1344 -289 1234 -373 1104 -373 c 0
 974 -373 864 -289 864 -147 c 0
1044 -147 m 0
 1044 -183 1068 -213 1104 -213 c 0
 1140 -213 1165 -183 1165 -147 c 0
 1165 -111 1140 -81 1104 -81 c 0
 1068 -81 1044 -111 1044 -147 c 0
640 -371 m 1
 640 -371 755 79 1105 79 c 1
 1105 -81 l 1
 885 -81 793 -459 793 -459 c 1
 640 -371 l 1
876 520 m 0
 876 750 758 900 578 900 c 0
 398 900 280 750 280 520 c 0
 280 290 398 141 578 141 c 0
 758 141 876 290 876 520 c 0
1044 167 m 1
 1044 65 1044 -100 1044 -100 c 1
 864 -147 l 1
 864 -147 864 60 864 120 c 1
 779 35 703 -20 578 -20 c 0
 297 -20 100 209 100 520 c 0
 100 831 297 1060 578 1060 c 0
 703 1060 779 1005 864 920 c 1
 864 1480 l 1
 1044 1480 l 1
 1044 167 l 1
EndSplineSet
Layer: 2
SplineSet
822 -116 m 4
 822 26 932 110 1062 110 c 4
 1192 110 1302 26 1302 -116 c 4
 1302 -258 1192 -342 1062 -342 c 4
 932 -342 822 -258 822 -116 c 4
1002 -116 m 4
 1002 -152 1026 -182 1062 -182 c 4
 1098 -182 1122 -152 1122 -116 c 4
 1122 -80 1098 -50 1062 -50 c 4
 1026 -50 1002 -80 1002 -116 c 4
598 -341.005859375 m 5
 598 -341.005859375 713 109.994140625 1063 109.994140625 c 5
 1063 -50.005859375 l 5
 843 -50.005859375 751 -429.005859375 751 -429.005859375 c 5
 598 -341.005859375 l 5
EndSplineSet
Substitution2: "'smcp' Bas-de-casse vers petites capitales lookups0-1" uni0221.sc
Colour: ff00
EndChar

StartChar: uni0223
Encoding: 547 547 534
Width: 1220
VWidth: 997
Flags: HMW
LayerCount: 4
Fore
SplineSet
733 1335 m 1
 777 1500 l 1
 960 1444 1078 1285 1078 1110 c 0
 1078 981 1012 854 905 781 c 1
 1040 702 1122 569 1122 418 c 0
 1122 175 911 -20 610 -20 c 0
 309 -20 100 175 100 418 c 0
 100 568 180 702 314 781 c 1
 207 854 143 981 143 1110 c 0
 143 1285 260 1443 443 1500 c 1
 487 1335 l 1
 388 1299 333 1207 333 1106 c 0
 333 968 435 857 610 857 c 0
 785 857 886 968 886 1106 c 0
 886 1207 832 1300 733 1335 c 1
610 696 m 0
 409 696 290 579 290 422 c 0
 290 265 409 148 610 148 c 0
 811 148 933 265 933 422 c 0
 933 579 811 696 610 696 c 0
EndSplineSet
Substitution2: "'smcp' Bas-de-casse vers petites capitales lookups0-1" uni0223.sc
Colour: ffff
EndChar

StartChar: uni0222
Encoding: 546 546 535
Width: 1310
VWidth: 997
Flags: HMW
LayerCount: 4
Fore
SplineSet
143 1024 m 0
 143 934 216 824 314 781 c 1
 180 702 100 568 100 418 c 0
 100 175 294 -20 655 -20 c 0
 1016 -20 1212 175 1212 418 c 0
 1212 569 1130 702 995 781 c 1
 1102 854 1167 969 1167 1098 c 0
 1167 1338 1024 1522 700 1522 c 0
 700 1354 l 0
 922 1354 977 1244 977 1094 c 0
 977 956 877 857 655 857 c 0
 433 857 333 935 333 1030 c 0
 333 1125 430 1184 610 1184 c 0
 610 1352 l 0
 391 1352 143 1264 143 1024 c 0
655 696 m 0
 895 696 1022 579 1022 422 c 0
 1022 265 895 148 655 148 c 0
 415 148 290 265 290 422 c 0
 290 579 415 696 655 696 c 0
EndSplineSet
Colour: ffff
EndChar

StartChar: uni0224
Encoding: 548 548 536
Width: 1305
VWidth: 997
Flags: HMW
LayerCount: 4
Fore
SplineSet
1160 0 m 0
 1160 -178 1008 -320 830 -320 c 0
 815 -320 800 -319 786 -317 c 1
 786 -146 l 1
 799 -150 814 -151 830 -151 c 0
 920 -151 970 -90 970 0 c 0
 1160 0 l 0
242 0 m 1
 141 151 l 1
 1066 1480 l 1
 1168 1328 l 1
 242 0 l 1
325 167 m 1
 1160 167 l 1
 1160 0 l 1
 790 0 511 0 141 0 c 1
 141 151 l 1
 325 167 l 1
951 1312 m 1
 160 1312 l 1
 160 1480 l 1
 530 1480 798 1480 1168 1480 c 1
 1168 1328 l 1
 951 1312 l 1
EndSplineSet
Colour: ffff
EndChar

StartChar: uni0225
Encoding: 549 549 537
Width: 1024
Flags: HMW
LayerCount: 4
Fore
SplineSet
880 0 m 1
 880 -182 728 -323 550 -323 c 0
 535 -323 520 -322 506 -320 c 1
 506 -158 l 1
 519 -162 534 -163 550 -163 c 0
 640 -163 700 -94 700 0 c 1
 880 0 l 1
141 1040 m 1
 141 880 l 1
 679 880 l 1
 883 896 l 1
 883 1040 l 1
 141 1040 l 1
880 160 m 1
 345 160 l 1
 141 144 l 1
 141 0 l 1
 880 0 l 1
 880 160 l 1
345 160 m 1
 883 896 l 1
 679 880 l 1
 141 144 l 1
 345 160 l 1
EndSplineSet
Substitution2: "'smcp' Bas-de-casse vers petites capitales lookups0-1" uni0225.sc
Colour: ff00
EndChar

StartChar: uni0234
Encoding: 564 564 538
Width: 618
VWidth: 997
Flags: HMW
LayerCount: 4
Fore
SplineSet
141 -147 m 0
 141 -5 250 79 380 79 c 0
 510 79 619 -5 619 -147 c 0
 619 -289 510 -373 380 -373 c 0
 250 -373 141 -289 141 -147 c 0
320 -147 m 0
 320 -183 344 -213 380 -213 c 0
 416 -213 439 -183 439 -147 c 0
 439 -111 416 -81 380 -81 c 0
 344 -81 320 -111 320 -147 c 0
-84 -371 m 1
 -84 -371 31 79 381 79 c 1
 381 -81 l 1
 161 -81 69 -459 69 -459 c 1
 -84 -371 l 1
141 1480 m 1
 320 1480 l 1
 320 167 l 1
 320 65 320 -100 320 -100 c 1
 141 -147 l 1
 141 -147 141 60 141 120 c 1
 141 1480 l 1
EndSplineSet
Substitution2: "'smcp' Bas-de-casse vers petites capitales lookups0-1" uni0234.sc
Colour: ff00
EndChar

StartChar: uni0235
Encoding: 565 565 539
Width: 1313
VWidth: 997
Flags: HMW
LayerCount: 4
Fore
SplineSet
836 -147 m 0
 836 -5 947 79 1077 79 c 0
 1207 79 1316 -5 1316 -147 c 0
 1316 -289 1207 -373 1077 -373 c 0
 947 -373 836 -289 836 -147 c 0
1016 -147 m 0
 1016 -183 1041 -213 1077 -213 c 0
 1113 -213 1136 -183 1136 -147 c 0
 1136 -111 1113 -81 1077 -81 c 0
 1041 -81 1016 -111 1016 -147 c 0
612 -371 m 1
 612 -371 728 79 1078 79 c 1
 1078 -81 l 1
 858 -81 765 -459 765 -459 c 1
 612 -371 l 1
836 -70 m 1
 836 572 l 2
 836 791 758 900 578 900 c 0
 398 900 320 791 320 572 c 2
 320 0 l 1
 141 0 l 1
 141 1040 l 1
 308 1040 l 1
 308 920 l 1
 393 1005 493 1060 618 1060 c 0
 888 1060 1016 892 1016 572 c 1
 1016 -70 l 1
 836 -70 l 1
EndSplineSet
Substitution2: "'smcp' Bas-de-casse vers petites capitales lookups0-1" uni0235.sc
Colour: ff00
EndChar

StartChar: uni0236
Encoding: 566 566 540
Width: 738
VWidth: 997
Flags: HMW
LayerCount: 4
Fore
SplineSet
260 206 m 0
 260 348 369 432 499 432 c 0
 629 432 740 348 740 206 c 0
 740 64 629 -20 499 -20 c 0
 369 -20 260 64 260 206 c 0
439 206 m 0
 439 170 463 141 499 141 c 0
 535 141 559 170 559 206 c 0
 559 242 535 272 499 272 c 0
 463 272 439 242 439 206 c 0
36 -19 m 1
 36 -19 150 432 500 432 c 1
 500 272 l 1
 280 272 189 -106 189 -106 c 1
 36 -19 l 1
260 301 m 25
 260 880 l 1
 50 880 l 1
 50 926 50 982 50 1028 c 1
 122 1028 l 17
 212 1028 272 1092 272 1182 c 9
 272 1319 l 1
 439 1319 l 1
 439 1040 l 1
 720 1040 l 1
 720 880 l 1
 439 880 l 1
 439 301 l 25
 260 301 l 25
EndSplineSet
Substitution2: "'smcp' Bas-de-casse vers petites capitales lookups0-1" uni0236.sc
Colour: ff00
EndChar

StartChar: uni0238
Encoding: 568 568 541
Width: 1906
VWidth: 997
Flags: HMW
LayerCount: 4
Fore
SplineSet
876 520 m 0
 876 750 758 900 578 900 c 0
 398 900 280 750 280 520 c 0
 280 290 398 141 578 141 c 0
 758 141 876 290 876 520 c 0
864 1480 m 1
 1044 1480 l 1
 1044 920 l 1
 1129 1005 1205 1060 1330 1060 c 0
 1611 1060 1808 831 1808 520 c 0
 1808 209 1611 -20 1330 -20 c 0
 1205 -20 1122 35 1037 120 c 1
 1037 60 1037 0 1037 0 c 1
 873 0 l 1
 873 0 873 60 873 120 c 1
 788 35 703 -20 578 -20 c 0
 297 -20 100 209 100 520 c 0
 100 831 297 1060 578 1060 c 0
 703 1060 779 1005 864 920 c 1
 864 1480 l 1
1032 520 m 0
 1032 290 1150 141 1330 141 c 0
 1510 141 1627 290 1627 520 c 0
 1627 750 1510 900 1330 900 c 0
 1150 900 1032 750 1032 520 c 0
EndSplineSet
Colour: ff00
EndChar

StartChar: uni0239
Encoding: 569 569 542
Width: 1906
VWidth: 997
Flags: HMW
LayerCount: 4
Fore
SplineSet
876 520 m 0
 876 290 758 141 578 141 c 0
 398 141 280 290 280 520 c 0
 280 750 398 900 578 900 c 0
 758 900 876 750 876 520 c 0
864 -439 m 1
 1044 -439 l 1
 1044 120 l 1
 1129 35 1205 -20 1330 -20 c 0
 1611 -20 1808 209 1808 520 c 0
 1808 831 1611 1060 1330 1060 c 0
 1205 1060 1122 1005 1037 920 c 1
 1037 980 1037 1040 1037 1040 c 1
 873 1040 l 1
 873 1040 873 980 873 920 c 1
 788 1005 703 1060 578 1060 c 0
 297 1060 100 831 100 520 c 0
 100 209 297 -20 578 -20 c 0
 703 -20 779 35 864 120 c 1
 864 -439 l 1
1032 520 m 0
 1032 750 1150 900 1330 900 c 0
 1510 900 1627 750 1627 520 c 0
 1627 290 1510 141 1330 141 c 0
 1150 141 1032 290 1032 520 c 0
EndSplineSet
Colour: ff00
EndChar

StartChar: uni0338
Encoding: 824 824 543
Width: 1600
Flags: HMW
LayerCount: 4
Fore
SplineSet
1366 1596 m 1
 1493 1500 l 1
 236 -116 l 1
 107 -20 l 1
 1366 1596 l 1
EndSplineSet
Colour: ffff
EndChar

StartChar: uni0337
Encoding: 823 823 544
Width: 1193
VWidth: 997
Flags: HMW
LayerCount: 4
Fore
SplineSet
992 1156 m 1
 1121 1060 l 1
 204 -116 l 1
 76 -20 l 1
 992 1156 l 1
EndSplineSet
Colour: ff00
EndChar

StartChar: uni023A
Encoding: 570 570 545
Width: 1414
VWidth: 997
Flags: HMW
LayerCount: 4
Fore
SplineSet
1273 1596 m 1
 1401 1500 l 1
 144 -116 l 1
 16 -20 l 1
 1273 1596 l 1
334 603 m 1
 1060 603 l 1
 1060 436 l 1
 334 436 l 1
 334 603 l 1
708 1230 m 1
 295 0 l 1
 100 0 l 1
 610 1480 l 1
 806 1480 l 1
 1316 0 l 1
 1121 0 l 1
 708 1230 l 1
EndSplineSet
Colour: ffff
EndChar

StartChar: uni023B
Encoding: 571 571 546
Width: 1511
Flags: HMW
LayerCount: 4
Fore
SplineSet
1366 1596 m 1
 1493 1500 l 1
 236 -116 l 1
 107 -20 l 1
 1366 1596 l 1
1253 1028 m 1
 1171 1215 1002 1332 801 1332 c 0
 511 1332 290 1090 290 740 c 0
 290 390 511 148 801 148 c 0
 1002 148 1171 265 1253 452 c 1
 1414 361 l 1
 1296 129 1069 -20 801 -20 c 0
 406 -20 100 301 100 740 c 0
 100 1179 406 1500 801 1500 c 0
 1069 1500 1296 1353 1414 1121 c 1
 1253 1028 l 1
EndSplineSet
Colour: ffff
EndChar

StartChar: uni023C
Encoding: 572 572 547
Width: 1140
VWidth: 997
Flags: HMW
LayerCount: 4
Fore
SplineSet
992 1156 m 1
 1121 1060 l 1
 204 -116 l 1
 76 -20 l 1
 992 1156 l 1
280 520 m 0
 280 300 407 141 598 141 c 0
 739 141 840 208 889 340 c 1
 1042 252 l 1
 960 74 797 -20 598 -20 c 0
 317 -20 100 209 100 520 c 0
 100 831 317 1060 598 1060 c 0
 797 1060 960 966 1042 788 c 1
 889 700 l 1
 840 832 739 900 598 900 c 0
 407 900 280 740 280 520 c 0
EndSplineSet
Substitution2: "'smcp' Bas-de-casse vers petites capitales lookups0-1" uni023C.sc
Colour: ff00
EndChar

StartChar: uni023D
Encoding: 573 573 548
Width: 1276
Flags: HMW
LayerCount: 4
Fore
SplineSet
670 656 m 1
 0 656 l 1
 0 702 0 777 0 823 c 1
 670 823 l 1
 670 656 l 1
400 1480 m 17
 400 167 l 1
 1138 167 l 1
 1138 0 l 1
 210 0 l 25
 210 1480 l 1
 400 1480 l 17
EndSplineSet
Colour: ffff
EndChar

StartChar: uni023E
Encoding: 574 574 549
Width: 1396
Flags: HMW
LayerCount: 4
Fore
SplineSet
1264 1596 m 1
 1392 1500 l 1
 135 -116 l 1
 6 -20 l 1
 1264 1596 l 1
794 0 m 25
 603 0 l 25
 603 1312 l 25
 141 1312 l 25
 141 1480 l 25
 1258 1480 l 25
 1258 1312 l 25
 794 1312 l 25
 794 0 l 25
EndSplineSet
Colour: ffff
EndChar

StartChar: uni023F
Encoding: 575 575 550
Width: 1030
VWidth: 997
Flags: HMW
LayerCount: 4
Fore
SplineSet
910 1156 m 1
 1038 1060 l 1
 122 -116 l 1
 -6 -20 l 1
 910 1156 l 1
311 755 m 0
 311 674 379 651 532 613 c 0
 755 557 933 474 933 286 c 0
 933 98 762 -20 532 -20 c 0
 302 -20 150 63 100 252 c 1
 253 340 l 1
 278 199 391 141 532 141 c 0
 708 141 752 205 752 286 c 0
 752 367 685 391 532 431 c 0
 309 489 132 567 132 755 c 0
 132 942 302 1060 532 1060 c 0
 762 1060 862 957 924 788 c 1
 771 700 l 1
 735 799 690 900 532 900 c 0
 356 900 311 836 311 755 c 0
EndSplineSet
Substitution2: "'smcp' Bas-de-casse vers petites capitales lookups0-1" uni023F.sc
Colour: ff00
EndChar

StartChar: uni0240
Encoding: 576 576 551
Width: 1040
Flags: HMW
LayerCount: 4
Fore
SplineSet
270 13 m 1
 141 144 l 1
 207 232 279 267 354 267 c 0
 413 267 473 245 532 211 c 0
 705 111 638 36 738 -22 c 0
 763 -36 790 -45 814 -45 c 0
 848 -45 878 -25 912 22 c 1
 1042 -109 l 1
 976 -197 903 -232 828 -232 c 0
 769 -232 709 -211 650 -177 c 0
 477 -77 542 -2 442 56 c 0
 417 70 393 80 369 80 c 0
 335 80 304 60 270 13 c 1
141 1040 m 1
 883 1040 l 1
 883 896 l 1
 679 880 l 1
 141 880 l 1
 141 1040 l 1
345 160 m 1
 141 144 l 1
 679 880 l 1
 883 896 l 1
 345 160 l 1
EndSplineSet
Colour: ff00
EndChar

StartChar: uni0241
Encoding: 577 577 552
Width: 1190
VWidth: 997
Flags: HMW
LayerCount: 4
Fore
SplineSet
504 0 m 1
 684 0 l 1
 684 580 l 1
 504 580 l 1
 504 0 l 1
594 421 m 0
 875 421 1092 649 1092 960 c 0
 1092 1271 895 1500 594 1500 c 0
 324 1500 131 1306 100 1032 c 1
 276 978 l 1
 282 1188 396 1340 594 1340 c 0
 796 1340 912 1180 912 960 c 0
 912 740 785 580 594 580 c 0
 594 421 l 0
EndSplineSet
Colour: ffff
EndChar

StartChar: uni0242
Encoding: 578 578 553
Width: 983
Flags: HMW
LayerCount: 4
Fore
SplineSet
402 0 m 1
 581 0 l 1
 581 427 l 1
 402 427 l 1
 402 0 l 1
490 274 m 0
 713 274 885 443 885 674 c 0
 885 905 727 1074 490 1074 c 0
 276 1074 125 928 100 721 c 1
 267 686 l 1
 271 824 351 921 490 921 c 0
 632 921 714 817 714 674 c 0
 714 531 624 427 490 427 c 0
 490 274 l 0
EndSplineSet
Substitution2: "'smcp' Bas-de-casse vers petites capitales lookups0-1" uni0242.sc
Colour: ff00
EndChar

StartChar: uni0243
Encoding: 579 579 554
Width: 1351
Flags: HMW
LayerCount: 4
Fore
SplineSet
670 366 m 1
 0 366 l 1
 0 412 0 488 0 534 c 1
 670 534 l 1
 670 366 l 1
777 740 m 1
 777 908 l 17
 902 908 999 987 999 1112 c 0
 999 1237 902 1312 777 1312 c 9
 400 1312 l 1
 400 1480 l 25
 777 1480 l 1
 997 1480 1190 1330 1190 1110 c 0
 1190 890 997 740 777 740 c 1
400 167 m 25
 777 167 l 17
 943 167 1062 288 1062 454 c 0
 1062 620 943 740 777 740 c 9
 400 740 l 25
 400 167 l 25
210 1480 m 1
 400 1480 l 25
 400 908 l 1
 777 908 l 1
 1031 908 1253 708 1253 454 c 0
 1253 200 1031 0 777 0 c 1
 210 0 l 1
 210 1480 l 1
EndSplineSet
Colour: ffff
EndChar

StartChar: uni0244
Encoding: 580 580 555
Width: 1536
Flags: HMW
LayerCount: 4
Fore
SplineSet
1538 823 m 25
 1538 656 l 25
 0 656 l 25
 0 823 l 25
 1538 823 l 25
400 1480 m 25
 400 600 l 17
 400 350 520 148 770 148 c 0
 1020 148 1138 350 1138 600 c 9
 1138 1480 l 25
 1328 1480 l 25
 1328 600 l 17
 1328 239 1131 -20 770 -20 c 0
 409 -20 210 239 210 600 c 9
 210 1480 l 25
 400 1480 l 25
EndSplineSet
Colour: ffff
EndChar

StartChar: uni0245
Encoding: 581 581 556
Width: 1354
VWidth: 997
Flags: HMW
LayerCount: 4
Fore
SplineSet
678 1230 m 1
 1090 0 l 1
 1286 0 l 1
 776 1480 l 1
 580 1480 l 1
 70 0 l 1
 266 0 l 1
 678 1230 l 1
EndSplineSet
Colour: ffff
EndChar

StartChar: uni0246
Encoding: 582 582 557
Width: 1205
Flags: HMW
LayerCount: 4
Fore
SplineSet
896 1660 m 1
 1069 1660 l 1
 311 -180 l 1
 139 -180 l 1
 896 1660 l 1
974 823 m 17
 974 656 l 9
 330 656 l 17
 330 167 l 1
 1068 167 l 1
 1068 0 l 1
 141 0 l 25
 141 1480 l 1
 1068 1480 l 17
 1068 1312 l 1
 330 1312 l 1
 330 823 l 9
 974 823 l 17
EndSplineSet
Colour: ffff
EndChar

StartChar: uni0247
Encoding: 583 583 558
Width: 1193
VWidth: 997
Flags: HMW
LayerCount: 4
Fore
SplineSet
862 1220 m 25
 482 -180 l 25
 334 -180 l 1
 714 1220 l 1
 862 1220 l 25
174 600 m 1
 980 600 l 1
 980 439 l 1
 174 439 l 1
 174 600 l 1
910 340 m 1
 1062 252 l 1
 980 74 797 -20 598 -20 c 0
 317 -20 100 209 100 520 c 0
 100 831 317 1060 598 1060 c 0
 879 1060 1097 831 1097 520 c 0
 1097 493 1093 465 1090 439 c 1
 910 439 l 1
 914 465 917 492 917 520 c 0
 917 740 789 900 598 900 c 0
 407 900 280 740 280 520 c 0
 280 300 407 141 598 141 c 0
 739 141 861 208 910 340 c 1
EndSplineSet
Substitution2: "'smcp' Bas-de-casse vers petites capitales lookups0-1" uni0247.sc
Colour: ff00
EndChar

StartChar: uni0248
Encoding: 584 584 559
Width: 1235
Flags: HMW
LayerCount: 4
Fore
SplineSet
1237 656 m 1
 567 656 l 1
 567 702 567 777 567 823 c 1
 1237 823 l 1
 1237 656 l 1
290 492 m 1
 290 439 l 1
 290 259 385 148 565 148 c 0
 745 148 838 259 838 439 c 9
 838 1480 l 1
 1028 1480 l 1
 1028 439 l 17
 1028 169 835 -20 565 -20 c 0
 295 -20 100 169 100 439 c 9
 290 492 l 1
EndSplineSet
Colour: ffff
EndChar

StartChar: uni0249
Encoding: 585 585 560
Width: 668
Flags: HMW
LayerCount: 4
Fore
SplineSet
0 439 m 1
 0 485 0 554 0 600 c 1
 670 600 l 1
 670 439 l 1
 0 439 l 1
207 1372 m 0
 207 1445 262 1500 335 1500 c 0
 408 1500 463 1445 463 1372 c 0
 463 1299 408 1244 335 1244 c 0
 262 1244 207 1299 207 1372 c 0
103 -284 m 1
 116 -290 139 -301 155 -301 c 0
 215 -301 245 -270 245 -210 c 2
 245 0 l 1
 245 138 l 1
 245 1040 l 1
 425 1040 l 1
 425 138 l 1
 425 0 l 1
 425 -210 l 2
 425 -380 325 -459 155 -459 c 0
 123 -459 83 -449 61 -436 c 1
 103 -284 l 1
EndSplineSet
Substitution2: "'smcp' Bas-de-casse vers petites capitales lookups0-1" uni0249.sc
Colour: ff00
EndChar

StartChar: uni024A
Encoding: 586 586 561
Width: 1684
Flags: HMW
LayerCount: 4
Fore
SplineSet
1312 -141 m 0
 1502 -141 l 0
 1502 -231 1552 -292 1642 -292 c 0
 1658 -292 1673 -290 1686 -286 c 1
 1686 -457 l 1
 1672 -459 1657 -459 1642 -459 c 0
 1464 -459 1312 -319 1312 -141 c 0
1502 1480 m 25
 1502 -141 l 25
 1312 -141 l 1
 1312 1480 l 1
 1502 1480 l 25
290 740 m 0
 290 390 511 148 801 148 c 0
 1091 148 1312 390 1312 740 c 0
 1312 1090 1091 1332 801 1332 c 0
 511 1332 290 1090 290 740 c 0
100 740 m 0
 100 1179 406 1500 801 1500 c 0
 1196 1500 1502 1179 1502 740 c 0
 1502 301 1196 -20 801 -20 c 0
 406 -20 100 301 100 740 c 0
EndSplineSet
Colour: ffff
EndChar

StartChar: uni024B
Encoding: 587 587 562
Width: 1236
VWidth: 997
Flags: HMW
LayerCount: 4
Fore
SplineSet
864 -138 m 1
 1044 -138 l 1
 1044 -232 1104 -301 1194 -301 c 0
 1210 -301 1225 -298 1238 -294 c 1
 1238 -457 l 1
 1224 -459 1209 -459 1194 -459 c 0
 1016 -459 864 -320 864 -138 c 1
876 520 m 0
 876 750 758 900 578 900 c 0
 398 900 280 750 280 520 c 0
 280 290 398 141 578 141 c 0
 758 141 876 290 876 520 c 0
1044 873 m 1
 1044 -138 l 1
 864 -138 l 1
 864 120 l 1
 779 35 703 -20 578 -20 c 0
 297 -20 100 209 100 520 c 0
 100 831 297 1060 578 1060 c 0
 703 1060 788 1005 873 920 c 1
 873 980 873 1040 873 1040 c 1
 1044 1040 l 1
 1044 1040 1044 975 1044 873 c 1
EndSplineSet
Substitution2: "'smcp' Bas-de-casse vers petites capitales lookups0-1" uni024B.sc
Colour: ff00
EndChar

StartChar: uni024C
Encoding: 588 588 563
Width: 1256
Flags: HMW
LayerCount: 4
Fore
SplineSet
320 572 m 1
 320 740 l 1
 0 740 l 1
 0 694 0 618 0 572 c 1
 320 572 l 1
570 617 m 1
 984 0 l 1
 1198 0 l 1
 700 740 l 1
 570 617 l 1
400 1312 m 25
 682 1312 l 17
 848 1312 968 1192 968 1026 c 0
 968 860 848 740 682 740 c 9
 400 740 l 25
 400 1312 l 25
210 0 m 1
 400 0 l 25
 400 572 l 1
 682 572 l 1
 936 572 1158 772 1158 1026 c 0
 1158 1280 936 1480 682 1480 c 1
 210 1480 l 1
 210 0 l 1
EndSplineSet
Colour: ffff
EndChar

StartChar: uni024D
Encoding: 589 589 564
Width: 865
VWidth: 997
Flags: HMW
LayerCount: 4
Fore
SplineSet
0 439 m 1
 0 485 0 554 0 600 c 1
 670 600 l 1
 670 439 l 1
 0 439 l 1
814 849 m 1
 771 883 719 900 648 900 c 0
 468 900 390 791 390 572 c 2
 390 0 l 1
 210 0 l 1
 210 1040 l 1
 378 1040 l 1
 378 920 l 1
 463 1005 563 1060 688 1060 c 0
 756 1060 812 1050 862 1028 c 1
 814 849 l 1
EndSplineSet
Substitution2: "'smcp' Bas-de-casse vers petites capitales lookups0-1" uni024D.sc
Colour: ff00
EndChar

StartChar: uni024E
Encoding: 590 590 565
Width: 1440
VWidth: 997
Flags: HMW
LayerCount: 4
Fore
SplineSet
1392 1194 m 25
 1392 1027 l 25
 50 1027 l 25
 50 1194 l 25
 1392 1194 l 25
626 0 m 1
 626 740 l 1
 816 740 l 1
 816 0 l 1
 626 0 l 1
780 628 m 1
 646 666 l 1
 95 1480 l 1
 309 1480 l 1
 721 858 l 1
 1133 1480 l 1
 1347 1480 l 1
 780 628 l 1
EndSplineSet
Colour: ffff
EndChar

StartChar: uni024F
Encoding: 591 591 566
Width: 1101
VWidth: 997
Flags: HMW
LayerCount: 4
Fore
SplineSet
50 439 m 1
 50 485 50 554 50 600 c 1
 1054 600 l 1
 1054 439 l 1
 50 439 l 1
554 -254 m 1
 509 -384 395 -459 237 -459 c 0
 181 -459 118 -446 73 -428 c 1
 117 -265 l 1
 143 -284 194 -301 237 -301 c 0
 315 -301 365 -267 387 -206 c 1
 459 0 l 1
 95 1040 l 1
 284 1040 l 1
 552 224 l 1
 820 1040 l 1
 1009 1040 l 1
 644 0 l 1
 554 -254 l 1
EndSplineSet
Substitution2: "'smcp' Bas-de-casse vers petites capitales lookups0-1" uni024F.sc
Colour: ff00
EndChar

StartChar: uni0250
Encoding: 592 592 567
Width: 1137
VWidth: 997
Flags: HMW
LayerCount: 4
Fore
SplineSet
250 700 m 0
 340 700 l 0
 340 580 420 499 600 499 c 0
 780 499 860 580 860 700 c 0
 860 820 780 900 600 900 c 0
 450 900 340 820 340 700 c 2
 340 400 l 2
 340 220 434 139 601 139 c 0
 781 139 918 245 918 245 c 1
 1000 104 l 1
 1000 104 854 -20 600 -20 c 0
 354 -20 160 82 160 432 c 1
 160 582 l 1
 160 582 160 759 160 873 c 9
 322 920 l 1
 407 1005 515 1060 640 1060 c 0
 894 1060 1040 901 1040 700 c 0
 1040 499 854 340 600 340 c 0
 374 340 250 499 250 700 c 0
112 1060 m 1
 256 1047 340 969 340 814 c 2
 340 534 l 1
 160 534 l 1
 160 814 l 2
 160 874 130 902 70 902 c 0
 112 1060 l 1
EndSplineSet
Colour: ff00
EndChar

StartChar: uni0251
Encoding: 593 593 568
Width: 1181
VWidth: 997
Flags: HMW
LayerCount: 4
Fore
SplineSet
876 520 m 0
 876 750 758 900 578 900 c 0
 398 900 280 750 280 520 c 0
 280 290 398 141 578 141 c 0
 758 141 876 290 876 520 c 0
1044 167 m 1
 1044 65 1064 0 1064 0 c 1
 892 0 l 1
 892 0 876 60 876 120 c 1
 791 35 703 -20 578 -20 c 0
 297 -20 100 209 100 520 c 0
 100 831 297 1060 578 1060 c 0
 703 1060 779 1005 864 920 c 1
 864 1040 l 1
 1044 1040 l 1
 1044 167 l 1
EndSplineSet
Colour: ff00
EndChar

StartChar: uni0252
Encoding: 594 594 569
Width: 1181
VWidth: 997
Flags: HMW
LayerCount: 4
Fore
SplineSet
308 520 m 0
 308 290 426 141 606 141 c 0
 786 141 904 290 904 520 c 0
 904 750 786 900 606 900 c 0
 426 900 308 750 308 520 c 0
141 167 m 1
 141 1040 l 1
 320 1040 l 1
 320 920 l 1
 405 1005 481 1060 606 1060 c 0
 887 1060 1084 831 1084 520 c 0
 1084 209 887 -20 606 -20 c 0
 481 -20 396 35 311 120 c 1
 311 60 311 0 311 0 c 1
 141 0 l 1
 141 0 141 65 141 167 c 1
EndSplineSet
Colour: ff00
EndChar

StartChar: uni0253
Encoding: 595 595 570
Width: 1181
VWidth: 997
Flags: HMW
LayerCount: 4
Fore
SplineSet
308 520 m 0
 308 290 426 141 606 141 c 0
 786 141 904 290 904 520 c 0
 904 750 786 900 606 900 c 0
 426 900 308 750 308 520 c 0
141 1177 m 1
 141 1359 292 1500 470 1500 c 0
 485 1500 500 1500 514 1498 c 1
 514 1334 l 1
 501 1338 486 1340 470 1340 c 0
 380 1340 320 1271 320 1177 c 1
 320 1177 320 980 320 920 c 1
 405 1005 481 1060 606 1060 c 0
 887 1060 1084 831 1084 520 c 0
 1084 209 887 -20 606 -20 c 0
 481 -20 405 35 320 120 c 1
 320 0 l 1
 141 0 l 1
 141 873 l 1
 141 975 141 1177 141 1177 c 1
EndSplineSet
Colour: ff00
EndChar

StartChar: uni0254
Encoding: 596 596 571
Width: 1140
VWidth: 997
Flags: HMW
LayerCount: 4
Fore
SplineSet
862 520 m 0
 862 300 735 141 544 141 c 0
 403 141 302 208 253 340 c 1
 100 252 l 1
 182 74 345 -20 544 -20 c 0
 825 -20 1042 209 1042 520 c 0
 1042 831 825 1060 544 1060 c 0
 345 1060 182 966 100 788 c 1
 253 700 l 1
 302 832 403 900 544 900 c 0
 735 900 862 740 862 520 c 0
EndSplineSet
Colour: ff00
EndChar

StartChar: uni0255
Encoding: 597 597 572
Width: 1140
VWidth: 997
Flags: HMW
LayerCount: 4
Fore
SplineSet
759 291 m 0
 539 291 458 -178 458 -178 c 1
 294 -90 l 1
 294 -90 410 450 759 451 c 0
 889 451 999 368 999 226 c 0
 999 121 941 47 857 16 c 1
 827 4 759 0 759 0 c 0
 759 159 l 0
 790 171 819 190 819 226 c 0
 819 262 795 291 759 291 c 0
857 16 m 1
 800 -6 758 -20 598 -20 c 0
 317 -20 100 209 100 520 c 0
 100 831 317 1060 598 1060 c 0
 797 1060 960 966 1042 788 c 1
 889 700 l 1
 840 832 739 900 598 900 c 0
 407 900 280 740 280 520 c 0
 280 300 407 141 598 141 c 0
 718 141 759 159 759 159 c 1
 857 16 l 1
EndSplineSet
Colour: ff00
EndChar

StartChar: uni0256
Encoding: 598 598 573
Width: 1236
VWidth: 997
Flags: HMW
LayerCount: 4
Fore
SplineSet
873 0 m 1
 1044 0 l 1
 1044 -94 1104 -163 1194 -163 c 0
 1210 -163 1225 -162 1238 -158 c 1
 1238 -320 l 1
 1224 -322 1209 -323 1194 -323 c 0
 1016 -323 873 -182 873 0 c 1
876 520 m 0
 876 290 758 141 578 141 c 0
 398 141 280 290 280 520 c 0
 280 750 398 900 578 900 c 0
 758 900 876 750 876 520 c 0
1044 167 m 1
 1044 1480 l 1
 864 1480 l 1
 864 920 l 1
 779 1005 703 1060 578 1060 c 0
 297 1060 100 831 100 520 c 0
 100 209 297 -20 578 -20 c 0
 703 -20 788 35 873 120 c 1
 873 60 873 0 873 0 c 1
 1044 0 l 1
 1044 0 1044 65 1044 167 c 1
EndSplineSet
Colour: ff00
EndChar

StartChar: uni0257
Encoding: 599 599 574
Width: 1236
VWidth: 997
Flags: HMW
LayerCount: 4
Fore
SplineSet
864 1177 m 1
 864 1359 1016 1500 1194 1500 c 0
 1209 1500 1224 1500 1238 1498 c 1
 1238 1334 l 1
 1225 1338 1210 1340 1194 1340 c 0
 1104 1340 1044 1271 1044 1177 c 1
 864 1177 l 1
876 520 m 0
 876 750 758 900 578 900 c 0
 398 900 280 750 280 520 c 0
 280 290 398 141 578 141 c 0
 758 141 876 290 876 520 c 0
1044 167 m 1
 1044 65 1064 0 1064 0 c 1
 892 0 l 1
 892 0 876 60 876 120 c 1
 791 35 703 -20 578 -20 c 0
 297 -20 100 209 100 520 c 0
 100 831 297 1060 578 1060 c 0
 703 1060 779 1005 864 920 c 1
 864 1177 l 1
 1044 1177 l 1
 1044 167 l 1
EndSplineSet
Colour: ff00
EndChar

StartChar: uni0258
Encoding: 600 600 575
Width: 1193
VWidth: 997
Flags: HMW
LayerCount: 4
Fore
SplineSet
1022 600 m 1
 217 600 l 1
 217 439 l 1
 1022 439 l 1
 1022 600 l 1
286 340 m 1
 132 252 l 1
 214 74 399 -20 598 -20 c 0
 879 -20 1097 209 1097 520 c 0
 1097 831 879 1060 598 1060 c 0
 317 1060 100 831 100 520 c 0
 100 493 102 465 105 439 c 1
 286 439 l 1
 282 465 280 492 280 520 c 0
 280 740 407 900 598 900 c 0
 789 900 917 740 917 520 c 0
 917 300 789 141 598 141 c 0
 457 141 335 208 286 340 c 1
EndSplineSet
Colour: ff00
EndChar

StartChar: uni0259
Encoding: 601 601 576
Width: 1193
VWidth: 997
Flags: HMW
LayerCount: 4
Fore
SplineSet
1022 439 m 1
 217 439 l 1
 217 600 l 1
 1022 600 l 1
 1022 439 l 1
286 700 m 1
 132 788 l 1
 214 966 399 1060 598 1060 c 0
 879 1060 1097 831 1097 520 c 0
 1097 209 879 -20 598 -20 c 0
 317 -20 100 209 100 520 c 0
 100 547 102 574 105 600 c 1
 286 600 l 1
 282 574 280 548 280 520 c 0
 280 300 407 141 598 141 c 0
 789 141 917 300 917 520 c 0
 917 740 789 900 598 900 c 0
 457 900 335 832 286 700 c 1
EndSplineSet
Colour: ff00
EndChar

StartChar: uni025A
Encoding: 602 602 577
Width: 1453
VWidth: 997
Flags: HMW
LayerCount: 4
Fore
SplineSet
1115 698 m 1
 1261 781 l 1
 1261 674 1321 558 1411 558 c 0
 1427 558 1442 561 1455 565 c 1
 1455 402 l 1
 1441 400 1426 398 1411 398 c 0
 1202 398 1121 607 1115 698 c 1
210 333 m 1
 207 458 l 1
 280 518 l 1
 1261 781 l 1
 1238 690 l 1
 1302 626 l 1
 210 333 l 1
280 518 m 1
 281 299 408 141 598 141 c 0
 789 141 917 300 917 520 c 0
 917 740 789 900 598 900 c 0
 457 900 335 832 286 700 c 1
 132 788 l 1
 214 966 399 1060 598 1060 c 0
 879 1060 1097 831 1097 520 c 0
 1097 209 879 -20 598 -20 c 0
 332 -20 124 184 102 470 c 1
 280 518 l 1
EndSplineSet
Colour: ff00
EndChar

StartChar: uni025B
Encoding: 603 603 578
Width: 1011
Flags: HMW
LayerCount: 4
Fore
SplineSet
508 618 m 1
 386 618 322 680 322 762 c 0
 322 844 386 900 508 900 c 0
 630 900 700 823 700 741 c 0
 873 788 l 1
 851 937 722 1060 508 1060 c 0
 294 1060 142 932 142 774 c 0
 142 684 182 600 281 550 c 1
 156 494 100 397 100 290 c 0
 100 117 269 -20 508 -20 c 0
 732 -20 886 78 914 252 c 1
 741 299 l 0
 728 204 652 141 508 141 c 0
 364 141 279 208 279 303 c 0
 279 398 364 471 508 471 c 1
 557 471 573 471 573 471 c 25
 573 618 l 25
 573 618 555 618 508 618 c 1
EndSplineSet
Colour: ff00
EndChar

StartChar: uni025C
Encoding: 604 604 579
Width: 1011
Flags: HMW
LayerCount: 4
Fore
SplineSet
506 618 m 1
 628 618 691 680 691 762 c 0
 691 844 628 900 506 900 c 0
 384 900 313 823 313 741 c 0
 141 788 l 1
 163 937 292 1060 506 1060 c 0
 720 1060 871 932 871 774 c 0
 871 684 831 600 732 550 c 1
 857 494 914 397 914 290 c 0
 914 117 745 -20 506 -20 c 0
 282 -20 128 78 100 252 c 1
 272 299 l 0
 285 204 362 141 506 141 c 0
 650 141 734 208 734 303 c 0
 734 398 650 471 506 471 c 1
 457 471 439 471 439 471 c 25
 439 618 l 25
 439 618 459 618 506 618 c 1
EndSplineSet
Colour: ff00
EndChar

StartChar: uni025D
Encoding: 605 605 580
Width: 1270
Flags: HMW
LayerCount: 4
Fore
SplineSet
506 618 m 1
 628 618 691 680 691 762 c 0
 691 844 628 900 506 900 c 0
 384 900 313 823 313 741 c 0
 141 788 l 1
 163 937 292 1060 506 1060 c 0
 720 1060 871 932 871 774 c 0
 871 684 831 600 732 550 c 1
 857 494 914 397 914 290 c 0
 914 117 745 -20 506 -20 c 0
 282 -20 128 78 100 252 c 1
 272 299 l 0
 285 204 362 141 506 141 c 0
 650 141 734 208 734 303 c 0
 734 398 650 471 506 471 c 1
 457 471 439 471 439 471 c 25
 439 618 l 25
 439 618 459 618 506 618 c 1
934 698 m 1
 1078 781 l 1
 1078 674 1138 558 1228 558 c 0
 1244 558 1259 561 1272 565 c 1
 1272 402 l 1
 1258 400 1243 398 1228 398 c 0
 1019 398 940 607 934 698 c 1
754 694 m 1
 1078 781 l 1
 1056 690 l 1
 1119 626 l 1
 678 508 l 1
 754 694 l 1
EndSplineSet
Colour: ff00
EndChar

StartChar: uni025E
Encoding: 606 606 581
Width: 1104
VWidth: 997
Flags: HMW
LayerCount: 4
Fore
SplineSet
598 1060 m 0
 812 1060 964 932 964 774 c 0
 964 684 924 600 825 550 c 1
 950 494 1006 397 1006 290 c 0
 1006 117 837 -20 598 -20 c 0
 317 -20 100 209 100 520 c 0
 100 831 317 1060 598 1060 c 0
598 900 m 0
 407 900 280 740 280 520 c 0
 280 300 407 141 598 141 c 0
 742 141 832 208 832 303 c 0
 832 398 742 471 598 471 c 1
 549 471 534 471 534 471 c 25
 534 618 l 25
 534 618 551 618 598 618 c 1
 720 618 790 680 790 762 c 0
 790 844 720 900 598 900 c 0
EndSplineSet
Colour: ff00
EndChar

StartChar: uni025F
Encoding: 607 607 582
Width: 668
Flags: HMW
LayerCount: 4
Fore
SplineSet
0 439 m 1
 0 485 0 554 0 600 c 1
 670 600 l 1
 670 439 l 1
 0 439 l 1
103 -284 m 1
 116 -290 139 -301 155 -301 c 0
 215 -301 245 -270 245 -210 c 2
 245 0 l 1
 245 138 l 1
 245 1040 l 1
 425 1040 l 1
 425 138 l 1
 425 0 l 1
 425 -210 l 2
 425 -380 325 -459 155 -459 c 0
 123 -459 83 -449 61 -436 c 1
 103 -284 l 1
EndSplineSet
Colour: ff00
EndChar

StartChar: uni0260
Encoding: 608 608 583
Width: 1236
VWidth: 997
Flags: HMW
LayerCount: 4
Fore
SplineSet
1044 1040 m 1
 1044 1134 1104 1203 1194 1203 c 0
 1210 1203 1225 1201 1238 1197 c 1
 1238 1360 l 1
 1224 1362 1209 1363 1194 1363 c 0
 1016 1363 873 1222 873 1040 c 1
 873 1040 873 980 873 920 c 1
 788 1005 703 1060 578 1060 c 0
 297 1060 100 831 100 520 c 0
 100 209 297 -20 578 -20 c 0
 703 -20 779 35 864 120 c 1
 864 80 l 0
 864 -150 746 -301 566 -301 c 0
 425 -301 324 -232 275 -100 c 1
 122 -188 l 1
 204 -366 367 -459 566 -459 c 0
 847 -459 1044 -250 1044 80 c 0
 1044 873 l 1
 1044 975 1044 1040 1044 1040 c 1
876 520 m 0
 876 290 758 141 578 141 c 0
 398 141 280 290 280 520 c 0
 280 750 398 900 578 900 c 0
 758 900 876 750 876 520 c 0
EndSplineSet
Colour: ff00
EndChar

StartChar: uni0261
Encoding: 609 609 584
Width: 1181
VWidth: 997
Flags: HMW
LayerCount: 4
Fore
SplineSet
566 -459 m 0
 367 -459 204 -366 122 -188 c 1
 275 -100 l 1
 324 -232 425 -301 566 -301 c 0
 746 -301 864 -150 864 80 c 0
 864 120 l 1
 779 35 703 -20 578 -20 c 0
 297 -20 100 209 100 520 c 0
 100 831 297 1060 578 1060 c 0
 703 1060 788 1005 873 920 c 1
 873 980 873 1040 873 1040 c 1
 1044 1040 l 1
 1044 1040 1044 975 1044 873 c 1
 1044 80 l 0
 1044 -250 847 -459 566 -459 c 0
876 520 m 0
 876 750 758 900 578 900 c 0
 398 900 280 750 280 520 c 0
 280 290 398 141 578 141 c 0
 758 141 876 290 876 520 c 0
EndSplineSet
Colour: ff00
EndChar

StartChar: uni0262
Encoding: 610 610 585
Width: 1209
Flags: HMW
LayerCount: 4
Fore
SplineSet
921 703 m 1
 875 803 776 914 626 914 c 0
 422 914 280 753 280 520 c 0
 280 287 422 125 626 125 c 0
 776 125 872 236 918 336 c 1
 1030 257 l 1
 943 72 824 -36 626 -36 c 0
 334 -36 100 199 100 520 c 0
 100 841 334 1074 626 1074 c 0
 824 1074 983 975 1070 790 c 1
 921 703 l 1
892 278 m 1
 892 363 l 1
 588 363 l 1
 588 524 l 1
 1071 524 l 1
 1071 0 l 1
 899 0 l 1
 899 132 l 1
 892 278 l 1
EndSplineSet
Colour: ff00
EndChar

StartChar: uni0263
Encoding: 611 611 586
Width: 1146
Flags: HMW
LayerCount: 4
Fore
SplineSet
832 -65 m 1
 850 -96 869 -147 869 -207 c 0
 869 -337 754 -459 574 -459 c 0
 394 -459 279 -337 279 -207 c 0
 279 -147 306 -96 324 -65 c 1
 474 188 l 1
 70 1040 l 1
 278 1040 l 1
 574 381 l 1
 870 1040 l 1
 1078 1040 l 1
 675 188 l 1
 832 -65 l 1
648 -73 m 1
 574 50 l 1
 506 -73 l 1
 490 -103 458 -138 458 -178 c 0
 458 -239 511 -302 574 -302 c 0
 637 -302 689 -239 689 -178 c 0
 689 -138 664 -103 648 -73 c 1
EndSplineSet
Colour: ff00
EndChar

StartChar: uni0264
Encoding: 612 612 587
Width: 1026
Flags: HMW
LayerCount: 4
Fore
SplineSet
751 365 m 1
 769 334 790 283 790 223 c 0
 790 93 694 -20 514 -20 c 0
 334 -20 239 93 239 223 c 0
 239 283 266 334 284 365 c 1
 413 559 l 1
 70 1040 l 1
 278 1040 l 1
 514 690 l 1
 750 1040 l 1
 958 1040 l 1
 615 559 l 1
 751 365 l 1
572 355 m 1
 514 426 l 1
 462 355 l 1
 443 326 418 292 418 252 c 0
 418 191 451 141 514 141 c 0
 577 141 610 191 610 252 c 0
 610 292 591 325 572 355 c 1
EndSplineSet
Colour: ff00
EndChar

StartChar: uni0265
Encoding: 613 613 588
Width: 1154
VWidth: 997
Flags: HMW
LayerCount: 4
Fore
SplineSet
320 1040 m 1
 320 468 l 2
 320 249 398 141 578 141 c 0
 758 141 836 249 836 468 c 2
 836 1040 l 1
 1016 1040 l 1
 1016 -439 l 1
 844 -439 l 1
 844 120 l 1
 759 35 663 -20 538 -20 c 0
 268 -20 141 148 141 468 c 1
 141 1040 l 1
 320 1040 l 1
EndSplineSet
Colour: ff00
EndChar

StartChar: uni0266
Encoding: 614 614 589
Width: 1154
VWidth: 997
Flags: HMW
LayerCount: 4
Fore
SplineSet
141 1174 m 1
 141 1358 284 1500 462 1500 c 0
 477 1500 492 1500 506 1498 c 1
 506 1334 l 1
 493 1338 478 1340 462 1340 c 0
 372 1340 311 1271 311 1174 c 1
 311 920 l 1
 396 1005 493 1060 618 1060 c 0
 888 1060 1016 892 1016 572 c 1
 1016 0 l 1
 836 0 l 1
 836 572 l 2
 836 791 758 900 578 900 c 0
 398 900 320 791 320 572 c 2
 320 0 l 1
 141 0 l 1
 141 1174 l 1
EndSplineSet
Colour: ff00
EndChar

StartChar: uni0267
Encoding: 615 615 590
Width: 1154
VWidth: 997
Flags: HMW
LayerCount: 4
Fore
SplineSet
1016 0 m 1
 1016 -182 864 -323 686 -323 c 0
 671 -323 656 -322 642 -320 c 1
 642 -158 l 1
 655 -162 670 -163 686 -163 c 0
 776 -163 836 -94 836 0 c 1
 1016 0 l 1
1016 0 m 1025
462 1500 m 1025
141 1174 m 1
 141 1358 284 1500 462 1500 c 0
 477 1500 492 1500 506 1498 c 1
 506 1334 l 1
 493 1338 478 1340 462 1340 c 0
 372 1340 311 1271 311 1174 c 1
 311 920 l 1
 396 1005 493 1060 618 1060 c 0
 888 1060 1016 892 1016 572 c 1
 1016 0 l 1
 836 0 l 1
 836 572 l 2
 836 791 758 900 578 900 c 0
 398 900 320 791 320 572 c 2
 320 0 l 1
 141 0 l 1
 141 1174 l 1
EndSplineSet
Colour: ff00
EndChar

StartChar: uni0268
Encoding: 616 616 591
Width: 668
Flags: HMW
LayerCount: 4
Fore
SplineSet
0 439 m 1
 0 485 0 554 0 600 c 1
 670 600 l 1
 670 439 l 1
 0 439 l 1
207 1372 m 0
 207 1445 262 1500 335 1500 c 0
 408 1500 463 1445 463 1372 c 0
 463 1299 408 1244 335 1244 c 0
 262 1244 207 1299 207 1372 c 0
245 0 m 1
 245 1040 l 1
 425 1040 l 1
 425 0 l 1
 245 0 l 1
EndSplineSet
Colour: ff00
EndChar

StartChar: uni0269
Encoding: 617 617 592
Width: 507
Flags: HMW
LayerCount: 4
Fore
SplineSet
462 157 m 1
 504 4 l 1
 482 -9 442 -20 410 -20 c 0
 240 -20 141 60 141 230 c 2
 141 439 l 1
 141 578 l 1
 141 1040 l 1
 320 1040 l 1
 320 578 l 1
 320 439 l 1
 320 230 l 2
 320 170 350 141 410 141 c 0
 426 141 449 151 462 157 c 1
EndSplineSet
Colour: ff00
EndChar

StartChar: uni026A
Encoding: 618 618 593
Width: 775
Flags: HMW
LayerCount: 4
Fore
SplineSet
141 1040 m 1
 638 1040 l 1
 638 880 l 1
 478 880 l 1
 478 160 l 5
 638 160 l 5
 638 0 l 5
 141 0 l 5
 141 160 l 5
 299 160 l 5
 299 880 l 1
 141 880 l 1
 141 1040 l 1
EndSplineSet
Colour: ff00
EndChar

StartChar: uni026B
Encoding: 619 619 594
Width: 804
Flags: HMW
LayerCount: 4
Fore
SplineSet
205 615 m 1
 66 653 l 1
 82 789 173 878 280 878 c 0
 412 878 446 742 526 742 c 0
 573 742 596 805 601 865 c 1
 740 828 l 1
 724 692 633 602 526 602 c 0
 394 602 360 738 280 738 c 0
 233 738 210 675 205 615 c 1
141 1480 m 25
 666 1480 l 25
 666 1312 l 25
 498 1312 l 25
 498 167 l 25
 666 167 l 25
 666 0 l 25
 141 0 l 25
 141 167 l 25
 308 167 l 25
 308 1312 l 25
 141 1312 l 25
 141 1480 l 25
EndSplineSet
Colour: ffff
EndChar

StartChar: uni026C
Encoding: 620 620 595
Width: 848
Flags: HMW
LayerCount: 4
Fore
SplineSet
800 514 m 1
 270 514 l 1
 270 674 l 1
 800 674 l 1
 800 514 l 1
270 514 m 0
 140 514 30 598 30 740 c 0
 30 882 140 966 270 966 c 0
 400 966 510 882 510 740 c 0
 330 740 l 0
 330 776 306 806 270 806 c 0
 234 806 210 776 210 740 c 0
 210 704 234 674 270 674 c 0
 270 514 l 0
162 1480 m 25
 688 1480 l 25
 688 1312 l 25
 520 1312 l 25
 520 167 l 25
 688 167 l 25
 688 0 l 25
 162 0 l 25
 162 167 l 25
 330 167 l 25
 330 1312 l 25
 162 1312 l 25
 162 1480 l 25
EndSplineSet
Colour: ffff
EndChar

StartChar: uni026D
Encoding: 621 621 596
Width: 512
VWidth: 997
Flags: HMW
LayerCount: 4
Fore
SplineSet
141 -138 m 1
 141 439 l 1
 141 578 l 1
 141 1480 l 1
 320 1480 l 1
 320 578 l 1
 320 439 l 1
 320 -138 l 1
 320 -232 380 -301 470 -301 c 0
 486 -301 501 -298 514 -294 c 1
 514 -457 l 1
 500 -459 485 -459 470 -459 c 0
 292 -459 141 -320 141 -138 c 1
320 -138 m 1025
141 -138 m 1025
EndSplineSet
Colour: ff00
EndChar

